%TF.GenerationSoftware,KiCad,Pcbnew,7.0.1*%
%TF.CreationDate,2023-04-24T14:27:33-07:00*%
%TF.ProjectId,expansionboardA,65787061-6e73-4696-9f6e-626f61726441,3*%
%TF.SameCoordinates,Original*%
%TF.FileFunction,Soldermask,Bot*%
%TF.FilePolarity,Negative*%
%FSLAX46Y46*%
G04 Gerber Fmt 4.6, Leading zero omitted, Abs format (unit mm)*
G04 Created by KiCad (PCBNEW 7.0.1) date 2023-04-24 14:27:33*
%MOMM*%
%LPD*%
G01*
G04 APERTURE LIST*
G04 Aperture macros list*
%AMRoundRect*
0 Rectangle with rounded corners*
0 $1 Rounding radius*
0 $2 $3 $4 $5 $6 $7 $8 $9 X,Y pos of 4 corners*
0 Add a 4 corners polygon primitive as box body*
4,1,4,$2,$3,$4,$5,$6,$7,$8,$9,$2,$3,0*
0 Add four circle primitives for the rounded corners*
1,1,$1+$1,$2,$3*
1,1,$1+$1,$4,$5*
1,1,$1+$1,$6,$7*
1,1,$1+$1,$8,$9*
0 Add four rect primitives between the rounded corners*
20,1,$1+$1,$2,$3,$4,$5,0*
20,1,$1+$1,$4,$5,$6,$7,0*
20,1,$1+$1,$6,$7,$8,$9,0*
20,1,$1+$1,$8,$9,$2,$3,0*%
G04 Aperture macros list end*
%ADD10C,1.600000*%
%ADD11O,1.600000X1.600000*%
%ADD12C,1.000000*%
%ADD13R,2.000000X2.000000*%
%ADD14C,2.000000*%
%ADD15R,1.700000X1.700000*%
%ADD16O,1.700000X1.700000*%
%ADD17C,1.400000*%
%ADD18O,1.400000X1.400000*%
%ADD19R,1.500000X1.600000*%
%ADD20C,3.000000*%
%ADD21C,1.700000*%
%ADD22R,2.200000X2.800000*%
%ADD23R,2.800000X2.800000*%
%ADD24R,1.308100X0.304800*%
%ADD25C,0.650000*%
%ADD26O,1.700000X0.900000*%
%ADD27O,2.400000X0.900000*%
%ADD28R,0.800000X0.800000*%
%ADD29C,0.800000*%
%ADD30O,2.800000X1.700000*%
%ADD31RoundRect,0.237500X-0.300000X-0.237500X0.300000X-0.237500X0.300000X0.237500X-0.300000X0.237500X0*%
%ADD32C,1.498000*%
%ADD33C,1.950000*%
G04 APERTURE END LIST*
D10*
%TO.C,R14*%
X105105200Y-28498800D03*
D11*
X105105200Y-20878800D03*
%TD*%
D12*
%TO.C,Y1*%
X85166200Y-88773000D03*
X85166200Y-91313000D03*
%TD*%
D13*
%TO.C,C11*%
X58699400Y-70760600D03*
D14*
X58699400Y-65760600D03*
%TD*%
D15*
%TO.C,ADC1*%
X35052000Y-93566000D03*
D16*
X32512000Y-93566000D03*
X35052000Y-96106000D03*
X32512000Y-96106000D03*
X35052000Y-98646000D03*
X32512000Y-98646000D03*
X35052000Y-101186000D03*
X32512000Y-101186000D03*
X35052000Y-103726000D03*
X32512000Y-103726000D03*
%TD*%
D17*
%TO.C,R13*%
X108331000Y-28498800D03*
D18*
X108331000Y-23418800D03*
%TD*%
D17*
%TO.C,R12*%
X108356400Y-39827200D03*
D18*
X108356400Y-34747200D03*
%TD*%
D13*
%TO.C,C14*%
X88827600Y-25019000D03*
D14*
X93827600Y-25019000D03*
%TD*%
D13*
%TO.C,C13*%
X88751400Y-37439600D03*
D14*
X93751400Y-37439600D03*
%TD*%
D19*
%TO.C,J2*%
X34307600Y-27522000D03*
D10*
X34307600Y-30022000D03*
X34307600Y-32022000D03*
X34307600Y-34522000D03*
D20*
X31597600Y-24452000D03*
X31597600Y-37592000D03*
%TD*%
D10*
%TO.C,R11*%
X105156000Y-39801800D03*
D11*
X105156000Y-32181800D03*
%TD*%
D15*
%TO.C,J4*%
X38277800Y-114198400D03*
D16*
X38277800Y-116738400D03*
%TD*%
D21*
%TO.C,AU1*%
X129049600Y-29243800D03*
X122049600Y-29243800D03*
D22*
X130149600Y-32943800D03*
D23*
X120749600Y-32943800D03*
D22*
X128149600Y-25543800D03*
%TD*%
D24*
%TO.C,U6*%
X57683400Y-82702400D03*
X57683400Y-82194400D03*
X57683400Y-81686400D03*
X57683400Y-81178400D03*
X57683400Y-80670400D03*
X61988700Y-80670400D03*
X61988700Y-81178400D03*
X61988700Y-81686400D03*
X61988700Y-82194400D03*
X61988700Y-82702400D03*
%TD*%
D15*
%TO.C,U2*%
X48220000Y-121920000D03*
D16*
X45680000Y-121920000D03*
X48220000Y-119380000D03*
X45680000Y-119380000D03*
X48220000Y-116840000D03*
X45680000Y-116840000D03*
X48220000Y-114300000D03*
X45680000Y-114300000D03*
X48220000Y-111760000D03*
X45680000Y-111760000D03*
X48220000Y-109220000D03*
X45680000Y-109220000D03*
X48220000Y-106680000D03*
X45680000Y-106680000D03*
X48220000Y-104140000D03*
X45680000Y-104140000D03*
X48220000Y-101600000D03*
X45680000Y-101600000D03*
X48220000Y-99060000D03*
X45680000Y-99060000D03*
X48220000Y-96520000D03*
X45680000Y-96520000D03*
X48220000Y-93980000D03*
X45680000Y-93980000D03*
X48220000Y-91440000D03*
X45680000Y-91440000D03*
X48220000Y-88900000D03*
X45680000Y-88900000D03*
X48220000Y-86360000D03*
X45680000Y-86360000D03*
X48220000Y-83820000D03*
X45680000Y-83820000D03*
X48220000Y-81280000D03*
X45680000Y-81280000D03*
X48220000Y-78740000D03*
X45680000Y-78740000D03*
X48220000Y-76200000D03*
X45680000Y-76200000D03*
X48220000Y-73660000D03*
X45680000Y-73660000D03*
X48220000Y-71120000D03*
X45680000Y-71120000D03*
X48220000Y-68580000D03*
X45680000Y-68580000D03*
X48220000Y-66040000D03*
X45680000Y-66040000D03*
X48220000Y-63500000D03*
X45680000Y-63500000D03*
X48220000Y-60960000D03*
X45680000Y-60960000D03*
X48220000Y-58420000D03*
X45680000Y-58420000D03*
X48220000Y-55880000D03*
X45680000Y-55880000D03*
X48220000Y-53340000D03*
X45680000Y-53340000D03*
X48220000Y-50800000D03*
X45680000Y-50800000D03*
X48220000Y-48260000D03*
X45680000Y-48260000D03*
X48220000Y-45720000D03*
X45680000Y-45720000D03*
X48220000Y-43180000D03*
X45680000Y-43180000D03*
%TD*%
D15*
%TO.C,U4*%
X109220000Y-121920000D03*
D16*
X106680000Y-121920000D03*
X109220000Y-119380000D03*
X106680000Y-119380000D03*
X109220000Y-116840000D03*
X106680000Y-116840000D03*
X109220000Y-114300000D03*
X106680000Y-114300000D03*
X109220000Y-111760000D03*
X106680000Y-111760000D03*
X109220000Y-109220000D03*
X106680000Y-109220000D03*
X109220000Y-106680000D03*
X106680000Y-106680000D03*
X109220000Y-104140000D03*
X106680000Y-104140000D03*
X109220000Y-101600000D03*
X106680000Y-101600000D03*
X109220000Y-99060000D03*
X106680000Y-99060000D03*
X109220000Y-96520000D03*
X106680000Y-96520000D03*
X109220000Y-93980000D03*
X106680000Y-93980000D03*
X109220000Y-91440000D03*
X106680000Y-91440000D03*
X109220000Y-88900000D03*
X106680000Y-88900000D03*
X109220000Y-86360000D03*
X106680000Y-86360000D03*
X109220000Y-83820000D03*
X106680000Y-83820000D03*
X109220000Y-81280000D03*
X106680000Y-81280000D03*
X109220000Y-78740000D03*
X106680000Y-78740000D03*
X109220000Y-76200000D03*
X106680000Y-76200000D03*
X109220000Y-73660000D03*
X106680000Y-73660000D03*
X109220000Y-71120000D03*
X106680000Y-71120000D03*
X109220000Y-68580000D03*
X106680000Y-68580000D03*
X109220000Y-66040000D03*
X106680000Y-66040000D03*
X109220000Y-63500000D03*
X106680000Y-63500000D03*
X109220000Y-60960000D03*
X106680000Y-60960000D03*
X109220000Y-58420000D03*
X106680000Y-58420000D03*
X109220000Y-55880000D03*
X106680000Y-55880000D03*
X109220000Y-53340000D03*
X106680000Y-53340000D03*
X109220000Y-50800000D03*
X106680000Y-50800000D03*
X109220000Y-48260000D03*
X106680000Y-48260000D03*
X109220000Y-45720000D03*
X106680000Y-45720000D03*
X109220000Y-43180000D03*
X106680000Y-43180000D03*
%TD*%
D15*
%TO.C,J1*%
X122555000Y-110718600D03*
D16*
X122555000Y-113258600D03*
X122555000Y-115798600D03*
X122555000Y-118338600D03*
%TD*%
D25*
%TO.C,P1*%
X126907200Y-93552000D03*
X126907200Y-94402000D03*
X126907200Y-95252000D03*
X126907200Y-96102000D03*
X126907200Y-96952000D03*
X126907200Y-97802000D03*
X126907200Y-98652000D03*
X126907200Y-99502000D03*
X128257200Y-99502000D03*
X128257200Y-98652000D03*
X128257200Y-97802000D03*
X128257200Y-96952000D03*
X128257200Y-96102000D03*
X128257200Y-95252000D03*
X128257200Y-94402000D03*
X128257200Y-93552000D03*
D26*
X131267200Y-92202000D03*
X131267200Y-100852000D03*
D27*
X127887200Y-92202000D03*
X127887200Y-100852000D03*
%TD*%
D28*
%TO.C,J3*%
X124922000Y-65832600D03*
D29*
X123372000Y-66332600D03*
X124922000Y-66832600D03*
X123372000Y-67332600D03*
X124922000Y-67832600D03*
X123372000Y-68332600D03*
X124922000Y-68832600D03*
X123372000Y-69332600D03*
X124922000Y-69832600D03*
X123372000Y-70332600D03*
X124922000Y-70832600D03*
X123372000Y-71332600D03*
X124922000Y-71832600D03*
X123372000Y-72332600D03*
X124922000Y-72832600D03*
X123372000Y-73332600D03*
X124922000Y-73832600D03*
X123372000Y-74332600D03*
X124922000Y-74832600D03*
D30*
X123202000Y-79482600D03*
X123202000Y-61182600D03*
X130302000Y-61182600D03*
X130302000Y-79482600D03*
%TD*%
D31*
%TO.C,C10*%
X55882200Y-76631800D03*
X57607200Y-76631800D03*
%TD*%
D32*
%TO.C,RESETN1*%
X124485400Y-46050200D03*
X124485400Y-50550200D03*
D33*
X121995400Y-44795200D03*
X121995400Y-51805200D03*
%TD*%
M02*
