%TF.GenerationSoftware,KiCad,Pcbnew,7.0.2-6a45011f42~172~ubuntu22.10.1*%
%TF.CreationDate,2023-05-06T18:08:32-07:00*%
%TF.ProjectId,expansionboardA,65787061-6e73-4696-9f6e-626f61726441,3*%
%TF.SameCoordinates,Original*%
%TF.FileFunction,Drillmap*%
%TF.FilePolarity,Positive*%
%FSLAX45Y45*%
G04 Gerber Fmt 4.5, Leading zero omitted, Abs format (unit mm)*
G04 Created by KiCad (PCBNEW 7.0.2-6a45011f42~172~ubuntu22.10.1) date 2023-05-06 18:08:32*
%MOMM*%
%LPD*%
G01*
G04 APERTURE LIST*
%ADD10C,0.010000*%
%ADD11C,0.200000*%
%ADD12C,0.170000*%
G04 APERTURE END LIST*
D10*
X13309599Y-8214711D02*
G75*
G03*
X13291236Y-8094903I-400019J2D01*
G01*
X2609800Y-12750800D02*
X12909600Y-12750800D01*
X13309600Y-2210000D02*
G75*
G03*
X12909600Y-1810000I-400000J0D01*
G01*
X13309600Y-12350800D02*
X13309600Y-8214711D01*
X2209800Y-12350800D02*
G75*
G03*
X2609800Y-12750800I400000J0D01*
G01*
X2609800Y-1810000D02*
G75*
G03*
X2209800Y-2210000I0J-400000D01*
G01*
X13294218Y-5946654D02*
G75*
G03*
X13309600Y-5836792I-384658J109864D01*
G01*
X12909600Y-12750800D02*
G75*
G03*
X13309600Y-12350800I0J400000D01*
G01*
X12909600Y-1810000D02*
X2609800Y-1810000D01*
X2209800Y-2210000D02*
X2209800Y-12350800D01*
X13309600Y-5836792D02*
X13309600Y-2210000D01*
X13245200Y-6118260D02*
X13294217Y-5946654D01*
X13291236Y-8094903D02*
X13245200Y-7948260D01*
D11*
D12*
X12119960Y-2839380D02*
X12289960Y-3009380D01*
X12289960Y-2839380D02*
X12119960Y-3009380D01*
X12819960Y-2839380D02*
X12989960Y-3009380D01*
X12989960Y-2839380D02*
X12819960Y-3009380D01*
D11*
X2456919Y-13063824D02*
X2456919Y-12863824D01*
X2456919Y-12863824D02*
X2504538Y-12863824D01*
X2504538Y-12863824D02*
X2533110Y-12873348D01*
X2533110Y-12873348D02*
X2552157Y-12892395D01*
X2552157Y-12892395D02*
X2561681Y-12911443D01*
X2561681Y-12911443D02*
X2571205Y-12949538D01*
X2571205Y-12949538D02*
X2571205Y-12978109D01*
X2571205Y-12978109D02*
X2561681Y-13016205D01*
X2561681Y-13016205D02*
X2552157Y-13035252D01*
X2552157Y-13035252D02*
X2533110Y-13054300D01*
X2533110Y-13054300D02*
X2504538Y-13063824D01*
X2504538Y-13063824D02*
X2456919Y-13063824D01*
X2656919Y-13063824D02*
X2656919Y-12930490D01*
X2656919Y-12968586D02*
X2666443Y-12949538D01*
X2666443Y-12949538D02*
X2675967Y-12940014D01*
X2675967Y-12940014D02*
X2695014Y-12930490D01*
X2695014Y-12930490D02*
X2714062Y-12930490D01*
X2780729Y-13063824D02*
X2780729Y-12930490D01*
X2780729Y-12863824D02*
X2771205Y-12873348D01*
X2771205Y-12873348D02*
X2780729Y-12882871D01*
X2780729Y-12882871D02*
X2790252Y-12873348D01*
X2790252Y-12873348D02*
X2780729Y-12863824D01*
X2780729Y-12863824D02*
X2780729Y-12882871D01*
X2904538Y-13063824D02*
X2885490Y-13054300D01*
X2885490Y-13054300D02*
X2875967Y-13035252D01*
X2875967Y-13035252D02*
X2875967Y-12863824D01*
X3009300Y-13063824D02*
X2990252Y-13054300D01*
X2990252Y-13054300D02*
X2980728Y-13035252D01*
X2980728Y-13035252D02*
X2980728Y-12863824D01*
X3237871Y-13063824D02*
X3237871Y-12863824D01*
X3237871Y-12863824D02*
X3304538Y-13006681D01*
X3304538Y-13006681D02*
X3371205Y-12863824D01*
X3371205Y-12863824D02*
X3371205Y-13063824D01*
X3552157Y-13063824D02*
X3552157Y-12959062D01*
X3552157Y-12959062D02*
X3542633Y-12940014D01*
X3542633Y-12940014D02*
X3523586Y-12930490D01*
X3523586Y-12930490D02*
X3485490Y-12930490D01*
X3485490Y-12930490D02*
X3466443Y-12940014D01*
X3552157Y-13054300D02*
X3533109Y-13063824D01*
X3533109Y-13063824D02*
X3485490Y-13063824D01*
X3485490Y-13063824D02*
X3466443Y-13054300D01*
X3466443Y-13054300D02*
X3456919Y-13035252D01*
X3456919Y-13035252D02*
X3456919Y-13016205D01*
X3456919Y-13016205D02*
X3466443Y-12997157D01*
X3466443Y-12997157D02*
X3485490Y-12987633D01*
X3485490Y-12987633D02*
X3533109Y-12987633D01*
X3533109Y-12987633D02*
X3552157Y-12978109D01*
X3647395Y-12930490D02*
X3647395Y-13130490D01*
X3647395Y-12940014D02*
X3666443Y-12930490D01*
X3666443Y-12930490D02*
X3704538Y-12930490D01*
X3704538Y-12930490D02*
X3723586Y-12940014D01*
X3723586Y-12940014D02*
X3733109Y-12949538D01*
X3733109Y-12949538D02*
X3742633Y-12968586D01*
X3742633Y-12968586D02*
X3742633Y-13025728D01*
X3742633Y-13025728D02*
X3733109Y-13044776D01*
X3733109Y-13044776D02*
X3723586Y-13054300D01*
X3723586Y-13054300D02*
X3704538Y-13063824D01*
X3704538Y-13063824D02*
X3666443Y-13063824D01*
X3666443Y-13063824D02*
X3647395Y-13054300D01*
X3828348Y-13044776D02*
X3837871Y-13054300D01*
X3837871Y-13054300D02*
X3828348Y-13063824D01*
X3828348Y-13063824D02*
X3818824Y-13054300D01*
X3818824Y-13054300D02*
X3828348Y-13044776D01*
X3828348Y-13044776D02*
X3828348Y-13063824D01*
X3828348Y-12940014D02*
X3837871Y-12949538D01*
X3837871Y-12949538D02*
X3828348Y-12959062D01*
X3828348Y-12959062D02*
X3818824Y-12949538D01*
X3818824Y-12949538D02*
X3828348Y-12940014D01*
X3828348Y-12940014D02*
X3828348Y-12959062D01*
D12*
X2039300Y-13306300D02*
X2209300Y-13476300D01*
X2209300Y-13306300D02*
X2039300Y-13476300D01*
D11*
X2561681Y-13483824D02*
X2447395Y-13483824D01*
X2504538Y-13483824D02*
X2504538Y-13283824D01*
X2504538Y-13283824D02*
X2485490Y-13312395D01*
X2485490Y-13312395D02*
X2466443Y-13331443D01*
X2466443Y-13331443D02*
X2447395Y-13340967D01*
X2647395Y-13464776D02*
X2656919Y-13474300D01*
X2656919Y-13474300D02*
X2647395Y-13483824D01*
X2647395Y-13483824D02*
X2637871Y-13474300D01*
X2637871Y-13474300D02*
X2647395Y-13464776D01*
X2647395Y-13464776D02*
X2647395Y-13483824D01*
X2723586Y-13283824D02*
X2856919Y-13283824D01*
X2856919Y-13283824D02*
X2771205Y-13483824D01*
X2971205Y-13283824D02*
X2990252Y-13283824D01*
X2990252Y-13283824D02*
X3009300Y-13293348D01*
X3009300Y-13293348D02*
X3018824Y-13302871D01*
X3018824Y-13302871D02*
X3028348Y-13321919D01*
X3028348Y-13321919D02*
X3037871Y-13360014D01*
X3037871Y-13360014D02*
X3037871Y-13407633D01*
X3037871Y-13407633D02*
X3028348Y-13445728D01*
X3028348Y-13445728D02*
X3018824Y-13464776D01*
X3018824Y-13464776D02*
X3009300Y-13474300D01*
X3009300Y-13474300D02*
X2990252Y-13483824D01*
X2990252Y-13483824D02*
X2971205Y-13483824D01*
X2971205Y-13483824D02*
X2952157Y-13474300D01*
X2952157Y-13474300D02*
X2942633Y-13464776D01*
X2942633Y-13464776D02*
X2933109Y-13445728D01*
X2933109Y-13445728D02*
X2923586Y-13407633D01*
X2923586Y-13407633D02*
X2923586Y-13360014D01*
X2923586Y-13360014D02*
X2933109Y-13321919D01*
X2933109Y-13321919D02*
X2942633Y-13302871D01*
X2942633Y-13302871D02*
X2952157Y-13293348D01*
X2952157Y-13293348D02*
X2971205Y-13283824D01*
X3161681Y-13283824D02*
X3180729Y-13283824D01*
X3180729Y-13283824D02*
X3199776Y-13293348D01*
X3199776Y-13293348D02*
X3209300Y-13302871D01*
X3209300Y-13302871D02*
X3218824Y-13321919D01*
X3218824Y-13321919D02*
X3228348Y-13360014D01*
X3228348Y-13360014D02*
X3228348Y-13407633D01*
X3228348Y-13407633D02*
X3218824Y-13445728D01*
X3218824Y-13445728D02*
X3209300Y-13464776D01*
X3209300Y-13464776D02*
X3199776Y-13474300D01*
X3199776Y-13474300D02*
X3180729Y-13483824D01*
X3180729Y-13483824D02*
X3161681Y-13483824D01*
X3161681Y-13483824D02*
X3142633Y-13474300D01*
X3142633Y-13474300D02*
X3133109Y-13464776D01*
X3133109Y-13464776D02*
X3123586Y-13445728D01*
X3123586Y-13445728D02*
X3114062Y-13407633D01*
X3114062Y-13407633D02*
X3114062Y-13360014D01*
X3114062Y-13360014D02*
X3123586Y-13321919D01*
X3123586Y-13321919D02*
X3133109Y-13302871D01*
X3133109Y-13302871D02*
X3142633Y-13293348D01*
X3142633Y-13293348D02*
X3161681Y-13283824D01*
X3314062Y-13483824D02*
X3314062Y-13350490D01*
X3314062Y-13369538D02*
X3323586Y-13360014D01*
X3323586Y-13360014D02*
X3342633Y-13350490D01*
X3342633Y-13350490D02*
X3371205Y-13350490D01*
X3371205Y-13350490D02*
X3390252Y-13360014D01*
X3390252Y-13360014D02*
X3399776Y-13379062D01*
X3399776Y-13379062D02*
X3399776Y-13483824D01*
X3399776Y-13379062D02*
X3409300Y-13360014D01*
X3409300Y-13360014D02*
X3428348Y-13350490D01*
X3428348Y-13350490D02*
X3456919Y-13350490D01*
X3456919Y-13350490D02*
X3475967Y-13360014D01*
X3475967Y-13360014D02*
X3485490Y-13379062D01*
X3485490Y-13379062D02*
X3485490Y-13483824D01*
X3580729Y-13483824D02*
X3580729Y-13350490D01*
X3580729Y-13369538D02*
X3590252Y-13360014D01*
X3590252Y-13360014D02*
X3609300Y-13350490D01*
X3609300Y-13350490D02*
X3637871Y-13350490D01*
X3637871Y-13350490D02*
X3656919Y-13360014D01*
X3656919Y-13360014D02*
X3666443Y-13379062D01*
X3666443Y-13379062D02*
X3666443Y-13483824D01*
X3666443Y-13379062D02*
X3675967Y-13360014D01*
X3675967Y-13360014D02*
X3695014Y-13350490D01*
X3695014Y-13350490D02*
X3723586Y-13350490D01*
X3723586Y-13350490D02*
X3742633Y-13360014D01*
X3742633Y-13360014D02*
X3752157Y-13379062D01*
X3752157Y-13379062D02*
X3752157Y-13483824D01*
X4142633Y-13274300D02*
X3971205Y-13531443D01*
X4399776Y-13283824D02*
X4418824Y-13283824D01*
X4418824Y-13283824D02*
X4437872Y-13293348D01*
X4437872Y-13293348D02*
X4447395Y-13302871D01*
X4447395Y-13302871D02*
X4456919Y-13321919D01*
X4456919Y-13321919D02*
X4466443Y-13360014D01*
X4466443Y-13360014D02*
X4466443Y-13407633D01*
X4466443Y-13407633D02*
X4456919Y-13445728D01*
X4456919Y-13445728D02*
X4447395Y-13464776D01*
X4447395Y-13464776D02*
X4437872Y-13474300D01*
X4437872Y-13474300D02*
X4418824Y-13483824D01*
X4418824Y-13483824D02*
X4399776Y-13483824D01*
X4399776Y-13483824D02*
X4380729Y-13474300D01*
X4380729Y-13474300D02*
X4371205Y-13464776D01*
X4371205Y-13464776D02*
X4361681Y-13445728D01*
X4361681Y-13445728D02*
X4352157Y-13407633D01*
X4352157Y-13407633D02*
X4352157Y-13360014D01*
X4352157Y-13360014D02*
X4361681Y-13321919D01*
X4361681Y-13321919D02*
X4371205Y-13302871D01*
X4371205Y-13302871D02*
X4380729Y-13293348D01*
X4380729Y-13293348D02*
X4399776Y-13283824D01*
X4552157Y-13464776D02*
X4561681Y-13474300D01*
X4561681Y-13474300D02*
X4552157Y-13483824D01*
X4552157Y-13483824D02*
X4542634Y-13474300D01*
X4542634Y-13474300D02*
X4552157Y-13464776D01*
X4552157Y-13464776D02*
X4552157Y-13483824D01*
X4685491Y-13283824D02*
X4704538Y-13283824D01*
X4704538Y-13283824D02*
X4723586Y-13293348D01*
X4723586Y-13293348D02*
X4733110Y-13302871D01*
X4733110Y-13302871D02*
X4742634Y-13321919D01*
X4742634Y-13321919D02*
X4752157Y-13360014D01*
X4752157Y-13360014D02*
X4752157Y-13407633D01*
X4752157Y-13407633D02*
X4742634Y-13445728D01*
X4742634Y-13445728D02*
X4733110Y-13464776D01*
X4733110Y-13464776D02*
X4723586Y-13474300D01*
X4723586Y-13474300D02*
X4704538Y-13483824D01*
X4704538Y-13483824D02*
X4685491Y-13483824D01*
X4685491Y-13483824D02*
X4666443Y-13474300D01*
X4666443Y-13474300D02*
X4656919Y-13464776D01*
X4656919Y-13464776D02*
X4647395Y-13445728D01*
X4647395Y-13445728D02*
X4637872Y-13407633D01*
X4637872Y-13407633D02*
X4637872Y-13360014D01*
X4637872Y-13360014D02*
X4647395Y-13321919D01*
X4647395Y-13321919D02*
X4656919Y-13302871D01*
X4656919Y-13302871D02*
X4666443Y-13293348D01*
X4666443Y-13293348D02*
X4685491Y-13283824D01*
X4923586Y-13283824D02*
X4885491Y-13283824D01*
X4885491Y-13283824D02*
X4866443Y-13293348D01*
X4866443Y-13293348D02*
X4856919Y-13302871D01*
X4856919Y-13302871D02*
X4837872Y-13331443D01*
X4837872Y-13331443D02*
X4828348Y-13369538D01*
X4828348Y-13369538D02*
X4828348Y-13445728D01*
X4828348Y-13445728D02*
X4837872Y-13464776D01*
X4837872Y-13464776D02*
X4847395Y-13474300D01*
X4847395Y-13474300D02*
X4866443Y-13483824D01*
X4866443Y-13483824D02*
X4904538Y-13483824D01*
X4904538Y-13483824D02*
X4923586Y-13474300D01*
X4923586Y-13474300D02*
X4933110Y-13464776D01*
X4933110Y-13464776D02*
X4942634Y-13445728D01*
X4942634Y-13445728D02*
X4942634Y-13398109D01*
X4942634Y-13398109D02*
X4933110Y-13379062D01*
X4933110Y-13379062D02*
X4923586Y-13369538D01*
X4923586Y-13369538D02*
X4904538Y-13360014D01*
X4904538Y-13360014D02*
X4866443Y-13360014D01*
X4866443Y-13360014D02*
X4847395Y-13369538D01*
X4847395Y-13369538D02*
X4837872Y-13379062D01*
X4837872Y-13379062D02*
X4828348Y-13398109D01*
X5114062Y-13283824D02*
X5075967Y-13283824D01*
X5075967Y-13283824D02*
X5056919Y-13293348D01*
X5056919Y-13293348D02*
X5047395Y-13302871D01*
X5047395Y-13302871D02*
X5028348Y-13331443D01*
X5028348Y-13331443D02*
X5018824Y-13369538D01*
X5018824Y-13369538D02*
X5018824Y-13445728D01*
X5018824Y-13445728D02*
X5028348Y-13464776D01*
X5028348Y-13464776D02*
X5037872Y-13474300D01*
X5037872Y-13474300D02*
X5056919Y-13483824D01*
X5056919Y-13483824D02*
X5095015Y-13483824D01*
X5095015Y-13483824D02*
X5114062Y-13474300D01*
X5114062Y-13474300D02*
X5123586Y-13464776D01*
X5123586Y-13464776D02*
X5133110Y-13445728D01*
X5133110Y-13445728D02*
X5133110Y-13398109D01*
X5133110Y-13398109D02*
X5123586Y-13379062D01*
X5123586Y-13379062D02*
X5114062Y-13369538D01*
X5114062Y-13369538D02*
X5095015Y-13360014D01*
X5095015Y-13360014D02*
X5056919Y-13360014D01*
X5056919Y-13360014D02*
X5037872Y-13369538D01*
X5037872Y-13369538D02*
X5028348Y-13379062D01*
X5028348Y-13379062D02*
X5018824Y-13398109D01*
X5228348Y-13483824D02*
X5266443Y-13483824D01*
X5266443Y-13483824D02*
X5285491Y-13474300D01*
X5285491Y-13474300D02*
X5295015Y-13464776D01*
X5295015Y-13464776D02*
X5314062Y-13436205D01*
X5314062Y-13436205D02*
X5323586Y-13398109D01*
X5323586Y-13398109D02*
X5323586Y-13321919D01*
X5323586Y-13321919D02*
X5314062Y-13302871D01*
X5314062Y-13302871D02*
X5304538Y-13293348D01*
X5304538Y-13293348D02*
X5285491Y-13283824D01*
X5285491Y-13283824D02*
X5247395Y-13283824D01*
X5247395Y-13283824D02*
X5228348Y-13293348D01*
X5228348Y-13293348D02*
X5218824Y-13302871D01*
X5218824Y-13302871D02*
X5209300Y-13321919D01*
X5209300Y-13321919D02*
X5209300Y-13369538D01*
X5209300Y-13369538D02*
X5218824Y-13388586D01*
X5218824Y-13388586D02*
X5228348Y-13398109D01*
X5228348Y-13398109D02*
X5247395Y-13407633D01*
X5247395Y-13407633D02*
X5285491Y-13407633D01*
X5285491Y-13407633D02*
X5304538Y-13398109D01*
X5304538Y-13398109D02*
X5314062Y-13388586D01*
X5314062Y-13388586D02*
X5323586Y-13369538D01*
X5399776Y-13283824D02*
X5399776Y-13321919D01*
X5475967Y-13283824D02*
X5475967Y-13321919D01*
X5771205Y-13560014D02*
X5761681Y-13550490D01*
X5761681Y-13550490D02*
X5742634Y-13521919D01*
X5742634Y-13521919D02*
X5733110Y-13502871D01*
X5733110Y-13502871D02*
X5723586Y-13474300D01*
X5723586Y-13474300D02*
X5714062Y-13426681D01*
X5714062Y-13426681D02*
X5714062Y-13388586D01*
X5714062Y-13388586D02*
X5723586Y-13340967D01*
X5723586Y-13340967D02*
X5733110Y-13312395D01*
X5733110Y-13312395D02*
X5742634Y-13293348D01*
X5742634Y-13293348D02*
X5761681Y-13264776D01*
X5761681Y-13264776D02*
X5771205Y-13255252D01*
X5837872Y-13302871D02*
X5847395Y-13293348D01*
X5847395Y-13293348D02*
X5866443Y-13283824D01*
X5866443Y-13283824D02*
X5914062Y-13283824D01*
X5914062Y-13283824D02*
X5933110Y-13293348D01*
X5933110Y-13293348D02*
X5942634Y-13302871D01*
X5942634Y-13302871D02*
X5952157Y-13321919D01*
X5952157Y-13321919D02*
X5952157Y-13340967D01*
X5952157Y-13340967D02*
X5942634Y-13369538D01*
X5942634Y-13369538D02*
X5828348Y-13483824D01*
X5828348Y-13483824D02*
X5952157Y-13483824D01*
X6190253Y-13483824D02*
X6190253Y-13283824D01*
X6275967Y-13483824D02*
X6275967Y-13379062D01*
X6275967Y-13379062D02*
X6266443Y-13360014D01*
X6266443Y-13360014D02*
X6247396Y-13350490D01*
X6247396Y-13350490D02*
X6218824Y-13350490D01*
X6218824Y-13350490D02*
X6199776Y-13360014D01*
X6199776Y-13360014D02*
X6190253Y-13369538D01*
X6399776Y-13483824D02*
X6380729Y-13474300D01*
X6380729Y-13474300D02*
X6371205Y-13464776D01*
X6371205Y-13464776D02*
X6361681Y-13445728D01*
X6361681Y-13445728D02*
X6361681Y-13388586D01*
X6361681Y-13388586D02*
X6371205Y-13369538D01*
X6371205Y-13369538D02*
X6380729Y-13360014D01*
X6380729Y-13360014D02*
X6399776Y-13350490D01*
X6399776Y-13350490D02*
X6428348Y-13350490D01*
X6428348Y-13350490D02*
X6447396Y-13360014D01*
X6447396Y-13360014D02*
X6456919Y-13369538D01*
X6456919Y-13369538D02*
X6466443Y-13388586D01*
X6466443Y-13388586D02*
X6466443Y-13445728D01*
X6466443Y-13445728D02*
X6456919Y-13464776D01*
X6456919Y-13464776D02*
X6447396Y-13474300D01*
X6447396Y-13474300D02*
X6428348Y-13483824D01*
X6428348Y-13483824D02*
X6399776Y-13483824D01*
X6580729Y-13483824D02*
X6561681Y-13474300D01*
X6561681Y-13474300D02*
X6552157Y-13455252D01*
X6552157Y-13455252D02*
X6552157Y-13283824D01*
X6733110Y-13474300D02*
X6714062Y-13483824D01*
X6714062Y-13483824D02*
X6675967Y-13483824D01*
X6675967Y-13483824D02*
X6656919Y-13474300D01*
X6656919Y-13474300D02*
X6647396Y-13455252D01*
X6647396Y-13455252D02*
X6647396Y-13379062D01*
X6647396Y-13379062D02*
X6656919Y-13360014D01*
X6656919Y-13360014D02*
X6675967Y-13350490D01*
X6675967Y-13350490D02*
X6714062Y-13350490D01*
X6714062Y-13350490D02*
X6733110Y-13360014D01*
X6733110Y-13360014D02*
X6742634Y-13379062D01*
X6742634Y-13379062D02*
X6742634Y-13398109D01*
X6742634Y-13398109D02*
X6647396Y-13417157D01*
X6818824Y-13474300D02*
X6837872Y-13483824D01*
X6837872Y-13483824D02*
X6875967Y-13483824D01*
X6875967Y-13483824D02*
X6895015Y-13474300D01*
X6895015Y-13474300D02*
X6904538Y-13455252D01*
X6904538Y-13455252D02*
X6904538Y-13445728D01*
X6904538Y-13445728D02*
X6895015Y-13426681D01*
X6895015Y-13426681D02*
X6875967Y-13417157D01*
X6875967Y-13417157D02*
X6847396Y-13417157D01*
X6847396Y-13417157D02*
X6828348Y-13407633D01*
X6828348Y-13407633D02*
X6818824Y-13388586D01*
X6818824Y-13388586D02*
X6818824Y-13379062D01*
X6818824Y-13379062D02*
X6828348Y-13360014D01*
X6828348Y-13360014D02*
X6847396Y-13350490D01*
X6847396Y-13350490D02*
X6875967Y-13350490D01*
X6875967Y-13350490D02*
X6895015Y-13360014D01*
X6971205Y-13560014D02*
X6980729Y-13550490D01*
X6980729Y-13550490D02*
X6999777Y-13521919D01*
X6999777Y-13521919D02*
X7009300Y-13502871D01*
X7009300Y-13502871D02*
X7018824Y-13474300D01*
X7018824Y-13474300D02*
X7028348Y-13426681D01*
X7028348Y-13426681D02*
X7028348Y-13388586D01*
X7028348Y-13388586D02*
X7018824Y-13340967D01*
X7018824Y-13340967D02*
X7009300Y-13312395D01*
X7009300Y-13312395D02*
X6999777Y-13293348D01*
X6999777Y-13293348D02*
X6980729Y-13264776D01*
X6980729Y-13264776D02*
X6971205Y-13255252D01*
X7333110Y-13560014D02*
X7323586Y-13550490D01*
X7323586Y-13550490D02*
X7304538Y-13521919D01*
X7304538Y-13521919D02*
X7295015Y-13502871D01*
X7295015Y-13502871D02*
X7285491Y-13474300D01*
X7285491Y-13474300D02*
X7275967Y-13426681D01*
X7275967Y-13426681D02*
X7275967Y-13388586D01*
X7275967Y-13388586D02*
X7285491Y-13340967D01*
X7285491Y-13340967D02*
X7295015Y-13312395D01*
X7295015Y-13312395D02*
X7304538Y-13293348D01*
X7304538Y-13293348D02*
X7323586Y-13264776D01*
X7323586Y-13264776D02*
X7333110Y-13255252D01*
X7409300Y-13350490D02*
X7409300Y-13483824D01*
X7409300Y-13369538D02*
X7418824Y-13360014D01*
X7418824Y-13360014D02*
X7437872Y-13350490D01*
X7437872Y-13350490D02*
X7466443Y-13350490D01*
X7466443Y-13350490D02*
X7485491Y-13360014D01*
X7485491Y-13360014D02*
X7495015Y-13379062D01*
X7495015Y-13379062D02*
X7495015Y-13483824D01*
X7618824Y-13483824D02*
X7599777Y-13474300D01*
X7599777Y-13474300D02*
X7590253Y-13464776D01*
X7590253Y-13464776D02*
X7580729Y-13445728D01*
X7580729Y-13445728D02*
X7580729Y-13388586D01*
X7580729Y-13388586D02*
X7590253Y-13369538D01*
X7590253Y-13369538D02*
X7599777Y-13360014D01*
X7599777Y-13360014D02*
X7618824Y-13350490D01*
X7618824Y-13350490D02*
X7647396Y-13350490D01*
X7647396Y-13350490D02*
X7666443Y-13360014D01*
X7666443Y-13360014D02*
X7675967Y-13369538D01*
X7675967Y-13369538D02*
X7685491Y-13388586D01*
X7685491Y-13388586D02*
X7685491Y-13445728D01*
X7685491Y-13445728D02*
X7675967Y-13464776D01*
X7675967Y-13464776D02*
X7666443Y-13474300D01*
X7666443Y-13474300D02*
X7647396Y-13483824D01*
X7647396Y-13483824D02*
X7618824Y-13483824D01*
X7742634Y-13350490D02*
X7818824Y-13350490D01*
X7771205Y-13283824D02*
X7771205Y-13455252D01*
X7771205Y-13455252D02*
X7780729Y-13474300D01*
X7780729Y-13474300D02*
X7799777Y-13483824D01*
X7799777Y-13483824D02*
X7818824Y-13483824D01*
X8037872Y-13350490D02*
X8037872Y-13550490D01*
X8037872Y-13360014D02*
X8056919Y-13350490D01*
X8056919Y-13350490D02*
X8095015Y-13350490D01*
X8095015Y-13350490D02*
X8114062Y-13360014D01*
X8114062Y-13360014D02*
X8123586Y-13369538D01*
X8123586Y-13369538D02*
X8133110Y-13388586D01*
X8133110Y-13388586D02*
X8133110Y-13445728D01*
X8133110Y-13445728D02*
X8123586Y-13464776D01*
X8123586Y-13464776D02*
X8114062Y-13474300D01*
X8114062Y-13474300D02*
X8095015Y-13483824D01*
X8095015Y-13483824D02*
X8056919Y-13483824D01*
X8056919Y-13483824D02*
X8037872Y-13474300D01*
X8247396Y-13483824D02*
X8228348Y-13474300D01*
X8228348Y-13474300D02*
X8218824Y-13455252D01*
X8218824Y-13455252D02*
X8218824Y-13283824D01*
X8409301Y-13483824D02*
X8409301Y-13379062D01*
X8409301Y-13379062D02*
X8399777Y-13360014D01*
X8399777Y-13360014D02*
X8380729Y-13350490D01*
X8380729Y-13350490D02*
X8342634Y-13350490D01*
X8342634Y-13350490D02*
X8323586Y-13360014D01*
X8409301Y-13474300D02*
X8390253Y-13483824D01*
X8390253Y-13483824D02*
X8342634Y-13483824D01*
X8342634Y-13483824D02*
X8323586Y-13474300D01*
X8323586Y-13474300D02*
X8314062Y-13455252D01*
X8314062Y-13455252D02*
X8314062Y-13436205D01*
X8314062Y-13436205D02*
X8323586Y-13417157D01*
X8323586Y-13417157D02*
X8342634Y-13407633D01*
X8342634Y-13407633D02*
X8390253Y-13407633D01*
X8390253Y-13407633D02*
X8409301Y-13398109D01*
X8475967Y-13350490D02*
X8552158Y-13350490D01*
X8504539Y-13283824D02*
X8504539Y-13455252D01*
X8504539Y-13455252D02*
X8514062Y-13474300D01*
X8514062Y-13474300D02*
X8533110Y-13483824D01*
X8533110Y-13483824D02*
X8552158Y-13483824D01*
X8695015Y-13474300D02*
X8675967Y-13483824D01*
X8675967Y-13483824D02*
X8637872Y-13483824D01*
X8637872Y-13483824D02*
X8618824Y-13474300D01*
X8618824Y-13474300D02*
X8609301Y-13455252D01*
X8609301Y-13455252D02*
X8609301Y-13379062D01*
X8609301Y-13379062D02*
X8618824Y-13360014D01*
X8618824Y-13360014D02*
X8637872Y-13350490D01*
X8637872Y-13350490D02*
X8675967Y-13350490D01*
X8675967Y-13350490D02*
X8695015Y-13360014D01*
X8695015Y-13360014D02*
X8704539Y-13379062D01*
X8704539Y-13379062D02*
X8704539Y-13398109D01*
X8704539Y-13398109D02*
X8609301Y-13417157D01*
X8875967Y-13483824D02*
X8875967Y-13283824D01*
X8875967Y-13474300D02*
X8856920Y-13483824D01*
X8856920Y-13483824D02*
X8818824Y-13483824D01*
X8818824Y-13483824D02*
X8799777Y-13474300D01*
X8799777Y-13474300D02*
X8790253Y-13464776D01*
X8790253Y-13464776D02*
X8780729Y-13445728D01*
X8780729Y-13445728D02*
X8780729Y-13388586D01*
X8780729Y-13388586D02*
X8790253Y-13369538D01*
X8790253Y-13369538D02*
X8799777Y-13360014D01*
X8799777Y-13360014D02*
X8818824Y-13350490D01*
X8818824Y-13350490D02*
X8856920Y-13350490D01*
X8856920Y-13350490D02*
X8875967Y-13360014D01*
X8952158Y-13560014D02*
X8961682Y-13550490D01*
X8961682Y-13550490D02*
X8980729Y-13521919D01*
X8980729Y-13521919D02*
X8990253Y-13502871D01*
X8990253Y-13502871D02*
X8999777Y-13474300D01*
X8999777Y-13474300D02*
X9009301Y-13426681D01*
X9009301Y-13426681D02*
X9009301Y-13388586D01*
X9009301Y-13388586D02*
X8999777Y-13340967D01*
X8999777Y-13340967D02*
X8990253Y-13312395D01*
X8990253Y-13312395D02*
X8980729Y-13293348D01*
X8980729Y-13293348D02*
X8961682Y-13264776D01*
X8961682Y-13264776D02*
X8952158Y-13255252D01*
M02*
