%TF.GenerationSoftware,KiCad,Pcbnew,7.0.1-3b83917a11~172~ubuntu22.10.1*%
%TF.CreationDate,2023-03-30T23:28:45-07:00*%
%TF.ProjectId,expansionboardA,65787061-6e73-4696-9f6e-626f61726441,3*%
%TF.SameCoordinates,Original*%
%TF.FileFunction,Drillmap*%
%TF.FilePolarity,Positive*%
%FSLAX45Y45*%
G04 Gerber Fmt 4.5, Leading zero omitted, Abs format (unit mm)*
G04 Created by KiCad (PCBNEW 7.0.1-3b83917a11~172~ubuntu22.10.1) date 2023-03-30 23:28:45*
%MOMM*%
%LPD*%
G01*
G04 APERTURE LIST*
%ADD10C,0.010000*%
%ADD11C,0.200000*%
%ADD12C,0.040000*%
%ADD13C,0.050000*%
%ADD14C,0.055000*%
%ADD15C,0.060000*%
%ADD16C,0.080000*%
%ADD17C,0.095000*%
%ADD18C,0.100000*%
%ADD19C,0.230000*%
G04 APERTURE END LIST*
D10*
X13309599Y-8214711D02*
G75*
G03*
X13291236Y-8094903I-400019J2D01*
G01*
X2609800Y-12750800D02*
X12909600Y-12750800D01*
X13309600Y-2210000D02*
G75*
G03*
X12909600Y-1810000I-400000J0D01*
G01*
X13309600Y-12350800D02*
X13309600Y-8214711D01*
X2209800Y-12350800D02*
G75*
G03*
X2609800Y-12750800I400000J0D01*
G01*
X2609800Y-1810000D02*
G75*
G03*
X2209800Y-2210000I0J-400000D01*
G01*
X13294218Y-5946654D02*
G75*
G03*
X13309600Y-5836792I-384658J109864D01*
G01*
X12909600Y-12750800D02*
G75*
G03*
X13309600Y-12350800I0J400000D01*
G01*
X12909600Y-1810000D02*
X2609800Y-1810000D01*
X2209800Y-2210000D02*
X2209800Y-12350800D01*
X13309600Y-5836792D02*
X13309600Y-2210000D01*
X13245200Y-6118260D02*
X13294217Y-5946654D01*
X13291236Y-8094903D02*
X13245200Y-7948260D01*
D11*
D12*
X2690180Y-7742240D02*
X2730180Y-7782240D01*
X2730180Y-7742240D02*
X2690180Y-7782240D01*
X2850200Y-5974400D02*
X2890200Y-6014400D01*
X2890200Y-5974400D02*
X2850200Y-6014400D01*
X2918780Y-7914960D02*
X2958780Y-7954960D01*
X2958780Y-7914960D02*
X2918780Y-7954960D01*
X2974660Y-7511100D02*
X3014660Y-7551100D01*
X3014660Y-7511100D02*
X2974660Y-7551100D01*
X2989900Y-8207060D02*
X3029900Y-8247060D01*
X3029900Y-8207060D02*
X2989900Y-8247060D01*
X3059810Y-8524560D02*
X3099810Y-8564560D01*
X3099810Y-8524560D02*
X3059810Y-8564560D01*
X3171374Y-7676200D02*
X3211374Y-7716200D01*
X3211374Y-7676200D02*
X3171374Y-7716200D01*
X3335340Y-8814120D02*
X3375340Y-8854120D01*
X3375340Y-8814120D02*
X3335340Y-8854120D01*
X3350580Y-7831140D02*
X3390580Y-7871140D01*
X3390580Y-7831140D02*
X3350580Y-7871140D01*
X3469960Y-7363780D02*
X3509960Y-7403780D01*
X3509960Y-7363780D02*
X3469960Y-7403780D01*
X3541250Y-8024745D02*
X3581250Y-8064745D01*
X3581250Y-8024745D02*
X3541250Y-8064745D01*
X3561400Y-6797360D02*
X3601400Y-6837360D01*
X3601400Y-6797360D02*
X3561400Y-6837360D01*
X3612200Y-5695000D02*
X3652200Y-5735000D01*
X3652200Y-5695000D02*
X3612200Y-5735000D01*
X3723960Y-5941380D02*
X3763960Y-5981380D01*
X3763960Y-5941380D02*
X3723960Y-5981380D01*
X4173540Y-6507800D02*
X4213540Y-6547800D01*
X4213540Y-6507800D02*
X4173540Y-6547800D01*
X4356420Y-6794820D02*
X4396420Y-6834820D01*
X4396420Y-6794820D02*
X4356420Y-6834820D01*
X5225100Y-7053900D02*
X5265100Y-7093900D01*
X5265100Y-7053900D02*
X5225100Y-7093900D01*
X5288600Y-8031800D02*
X5328600Y-8071800D01*
X5328600Y-8031800D02*
X5288600Y-8071800D01*
X5461320Y-9710740D02*
X5501320Y-9750740D01*
X5501320Y-9710740D02*
X5461320Y-9750740D01*
X5504500Y-4437700D02*
X5544500Y-4477700D01*
X5544500Y-4437700D02*
X5504500Y-4477700D01*
X5870260Y-7224080D02*
X5910260Y-7264080D01*
X5910260Y-7224080D02*
X5870260Y-7264080D01*
X5870260Y-7556820D02*
X5910260Y-7596820D01*
X5910260Y-7556820D02*
X5870260Y-7596820D01*
X5923600Y-6101400D02*
X5963600Y-6141400D01*
X5963600Y-6101400D02*
X5923600Y-6141400D01*
X6022660Y-7356160D02*
X6062660Y-7396160D01*
X6062660Y-7356160D02*
X6022660Y-7396160D01*
X6098619Y-7876619D02*
X6138619Y-7916619D01*
X6138619Y-7876619D02*
X6098619Y-7916619D01*
X6114100Y-7722500D02*
X6154100Y-7762500D01*
X6154100Y-7722500D02*
X6114100Y-7762500D01*
X6435350Y-6951012D02*
X6475350Y-6991012D01*
X6475350Y-6951012D02*
X6435350Y-6991012D01*
X6441760Y-11605580D02*
X6481760Y-11645580D01*
X6481760Y-11605580D02*
X6441760Y-11645580D01*
X6469700Y-3871280D02*
X6509700Y-3911280D01*
X6509700Y-3871280D02*
X6469700Y-3911280D01*
X6487480Y-7559360D02*
X6527480Y-7599360D01*
X6527480Y-7559360D02*
X6487480Y-7599360D01*
X6507800Y-7069140D02*
X6547800Y-7109140D01*
X6547800Y-7069140D02*
X6507800Y-7109140D01*
X6736400Y-6965000D02*
X6776400Y-7005000D01*
X6776400Y-6965000D02*
X6736400Y-7005000D01*
X6802440Y-12045000D02*
X6842440Y-12085000D01*
X6842440Y-12045000D02*
X6802440Y-12085000D01*
X6881180Y-7826060D02*
X6921180Y-7866060D01*
X6921180Y-7826060D02*
X6881180Y-7866060D01*
X6897455Y-7280995D02*
X6937455Y-7320995D01*
X6937455Y-7280995D02*
X6897455Y-7320995D01*
X6917950Y-7158040D02*
X6957950Y-7198040D01*
X6957950Y-7158040D02*
X6917950Y-7198040D01*
X6944680Y-10226360D02*
X6984680Y-10266360D01*
X6984680Y-10226360D02*
X6944680Y-10266360D01*
X7546660Y-11846880D02*
X7586660Y-11886880D01*
X7586660Y-11846880D02*
X7546660Y-11886880D01*
X8016560Y-12476800D02*
X8056560Y-12516800D01*
X8056560Y-12476800D02*
X8016560Y-12516800D01*
X8312040Y-9587980D02*
X8352040Y-9627980D01*
X8352040Y-9587980D02*
X8312040Y-9627980D01*
X8374700Y-7561900D02*
X8414700Y-7601900D01*
X8414700Y-7561900D02*
X8374700Y-7601900D01*
X8422960Y-12202480D02*
X8462960Y-12242480D01*
X8462960Y-12202480D02*
X8422960Y-12242480D01*
X8438630Y-9509650D02*
X8478630Y-9549650D01*
X8478630Y-9509650D02*
X8438630Y-9549650D01*
X8438917Y-4652883D02*
X8478917Y-4692883D01*
X8478917Y-4652883D02*
X8438917Y-4692883D01*
X8506780Y-9624380D02*
X8546780Y-9664380D01*
X8546780Y-9624380D02*
X8506780Y-9664380D01*
X8527100Y-9437200D02*
X8567100Y-9477200D01*
X8567100Y-9437200D02*
X8527100Y-9477200D01*
X8552930Y-4641330D02*
X8592930Y-4681330D01*
X8592930Y-4641330D02*
X8552930Y-4681330D01*
X8605840Y-10310180D02*
X8645840Y-10350180D01*
X8645840Y-10310180D02*
X8605840Y-10350180D01*
X8893509Y-4903551D02*
X8933509Y-4943551D01*
X8933509Y-4903551D02*
X8893509Y-4943551D01*
X9009700Y-4889820D02*
X9049700Y-4929820D01*
X9049700Y-4889820D02*
X9009700Y-4929820D01*
X9034979Y-9873179D02*
X9074979Y-9913179D01*
X9074979Y-9873179D02*
X9034979Y-9913179D01*
X9045260Y-9530400D02*
X9085260Y-9570400D01*
X9085260Y-9530400D02*
X9045260Y-9570400D01*
X9140650Y-10720530D02*
X9180650Y-10760530D01*
X9180650Y-10720530D02*
X9140650Y-10760530D01*
X9144320Y-10048560D02*
X9184320Y-10088560D01*
X9184320Y-10048560D02*
X9144320Y-10088560D01*
X9148400Y-10610249D02*
X9188400Y-10650249D01*
X9188400Y-10610249D02*
X9148400Y-10650249D01*
X9149400Y-10505760D02*
X9189400Y-10545760D01*
X9189400Y-10505760D02*
X9149400Y-10545760D01*
X9215440Y-9700580D02*
X9255440Y-9740580D01*
X9255440Y-9700580D02*
X9215440Y-9740580D01*
X9522780Y-10310180D02*
X9562780Y-10350180D01*
X9562780Y-10310180D02*
X9522780Y-10350180D01*
X9595230Y-10386068D02*
X9635230Y-10426068D01*
X9635230Y-10386068D02*
X9595230Y-10426068D01*
X9667730Y-10297480D02*
X9707730Y-10337480D01*
X9707730Y-10297480D02*
X9667730Y-10337480D01*
X9827580Y-10007920D02*
X9867580Y-10047920D01*
X9867580Y-10007920D02*
X9827580Y-10047920D01*
X9962200Y-11943400D02*
X10002200Y-11983400D01*
X10002200Y-11943400D02*
X9962200Y-11983400D01*
X10061260Y-10564180D02*
X10101260Y-10604180D01*
X10101260Y-10564180D02*
X10061260Y-10604180D01*
X10117140Y-8709980D02*
X10157140Y-8749980D01*
X10157140Y-8709980D02*
X10117140Y-8749980D01*
X11206800Y-3713800D02*
X11246800Y-3753800D01*
X11246800Y-3713800D02*
X11206800Y-3753800D01*
X11206800Y-7473000D02*
X11246800Y-7513000D01*
X11246800Y-7473000D02*
X11206800Y-7513000D01*
X11435400Y-8598220D02*
X11475400Y-8638220D01*
X11475400Y-8598220D02*
X11435400Y-8638220D01*
X11714800Y-10343200D02*
X11754800Y-10383200D01*
X11754800Y-10343200D02*
X11714800Y-10383200D01*
X12070400Y-5364800D02*
X12110400Y-5404800D01*
X12110400Y-5364800D02*
X12070400Y-5404800D01*
X12209000Y-7665000D02*
X12249000Y-7705000D01*
X12249000Y-7665000D02*
X12209000Y-7705000D01*
X12702860Y-8415340D02*
X12742860Y-8455340D01*
X12742860Y-8415340D02*
X12702860Y-8455340D01*
X13106720Y-9632700D02*
X13146720Y-9672700D01*
X13146720Y-9632700D02*
X13106720Y-9672700D01*
X12710720Y-9355200D02*
G75*
G03*
X12710720Y-9355200I-20000J0D01*
G01*
X12710720Y-9440200D02*
G75*
G03*
X12710720Y-9440200I-20000J0D01*
G01*
X12710720Y-9525200D02*
G75*
G03*
X12710720Y-9525200I-20000J0D01*
G01*
X12710720Y-9610200D02*
G75*
G03*
X12710720Y-9610200I-20000J0D01*
G01*
X12710720Y-9695200D02*
G75*
G03*
X12710720Y-9695200I-20000J0D01*
G01*
X12710720Y-9780200D02*
G75*
G03*
X12710720Y-9780200I-20000J0D01*
G01*
X12710720Y-9865200D02*
G75*
G03*
X12710720Y-9865200I-20000J0D01*
G01*
X12710720Y-9950200D02*
G75*
G03*
X12710720Y-9950200I-20000J0D01*
G01*
X12845720Y-9355200D02*
G75*
G03*
X12845720Y-9355200I-20000J0D01*
G01*
X12845720Y-9440200D02*
G75*
G03*
X12845720Y-9440200I-20000J0D01*
G01*
X12845720Y-9525200D02*
G75*
G03*
X12845720Y-9525200I-20000J0D01*
G01*
X12845720Y-9610200D02*
G75*
G03*
X12845720Y-9610200I-20000J0D01*
G01*
X12845720Y-9695200D02*
G75*
G03*
X12845720Y-9695200I-20000J0D01*
G01*
X12845720Y-9780200D02*
G75*
G03*
X12845720Y-9780200I-20000J0D01*
G01*
X12845720Y-9865200D02*
G75*
G03*
X12845720Y-9865200I-20000J0D01*
G01*
X12845720Y-9950200D02*
G75*
G03*
X12845720Y-9950200I-20000J0D01*
G01*
D13*
X8329395Y-8993805D02*
X8329395Y-9043805D01*
X8304395Y-9018805D02*
X8354395Y-9018805D01*
X8509000Y-8814200D02*
X8509000Y-8864200D01*
X8484000Y-8839200D02*
X8534000Y-8839200D01*
D14*
X12356646Y-6652706D02*
X12356646Y-6613814D01*
X12317754Y-6613814D01*
X12317754Y-6652706D01*
X12356646Y-6652706D01*
X12356646Y-6752706D02*
X12356646Y-6713814D01*
X12317754Y-6713814D01*
X12317754Y-6752706D01*
X12356646Y-6752706D01*
X12356646Y-6852706D02*
X12356646Y-6813814D01*
X12317754Y-6813814D01*
X12317754Y-6852706D01*
X12356646Y-6852706D01*
X12356646Y-6952706D02*
X12356646Y-6913814D01*
X12317754Y-6913814D01*
X12317754Y-6952706D01*
X12356646Y-6952706D01*
X12356646Y-7052706D02*
X12356646Y-7013814D01*
X12317754Y-7013814D01*
X12317754Y-7052706D01*
X12356646Y-7052706D01*
X12356646Y-7152706D02*
X12356646Y-7113814D01*
X12317754Y-7113814D01*
X12317754Y-7152706D01*
X12356646Y-7152706D01*
X12356646Y-7252706D02*
X12356646Y-7213814D01*
X12317754Y-7213814D01*
X12317754Y-7252706D01*
X12356646Y-7252706D01*
X12356646Y-7352706D02*
X12356646Y-7313814D01*
X12317754Y-7313814D01*
X12317754Y-7352706D01*
X12356646Y-7352706D01*
X12356646Y-7452706D02*
X12356646Y-7413814D01*
X12317754Y-7413814D01*
X12317754Y-7452706D01*
X12356646Y-7452706D01*
X12511646Y-6602706D02*
X12511646Y-6563814D01*
X12472754Y-6563814D01*
X12472754Y-6602706D01*
X12511646Y-6602706D01*
X12511646Y-6702706D02*
X12511646Y-6663814D01*
X12472754Y-6663814D01*
X12472754Y-6702706D01*
X12511646Y-6702706D01*
X12511646Y-6802706D02*
X12511646Y-6763814D01*
X12472754Y-6763814D01*
X12472754Y-6802706D01*
X12511646Y-6802706D01*
X12511646Y-6902706D02*
X12511646Y-6863814D01*
X12472754Y-6863814D01*
X12472754Y-6902706D01*
X12511646Y-6902706D01*
X12511646Y-7002706D02*
X12511646Y-6963814D01*
X12472754Y-6963814D01*
X12472754Y-7002706D01*
X12511646Y-7002706D01*
X12511646Y-7102706D02*
X12511646Y-7063814D01*
X12472754Y-7063814D01*
X12472754Y-7102706D01*
X12511646Y-7102706D01*
X12511646Y-7202706D02*
X12511646Y-7163814D01*
X12472754Y-7163814D01*
X12472754Y-7202706D01*
X12511646Y-7202706D01*
X12511646Y-7302706D02*
X12511646Y-7263814D01*
X12472754Y-7263814D01*
X12472754Y-7302706D01*
X12511646Y-7302706D01*
X12511646Y-7402706D02*
X12511646Y-7363814D01*
X12472754Y-7363814D01*
X12472754Y-7402706D01*
X12511646Y-7402706D01*
X12511646Y-7502706D02*
X12511646Y-7463814D01*
X12472754Y-7463814D01*
X12472754Y-7502706D01*
X12511646Y-7502706D01*
D15*
X12788720Y-9250200D02*
X12818720Y-9220200D01*
X12788720Y-9190200D01*
X12758720Y-9220200D01*
X12788720Y-9250200D01*
D11*
X12863720Y-9190200D02*
X12713720Y-9190200D01*
X12713720Y-9190200D02*
G75*
G03*
X12713720Y-9250200I0J-30000D01*
G01*
X12713720Y-9250200D02*
X12863720Y-9250200D01*
X12863720Y-9250200D02*
G75*
G03*
X12863720Y-9190200I0J30000D01*
G01*
D15*
X12788720Y-10115200D02*
X12818720Y-10085200D01*
X12788720Y-10055200D01*
X12758720Y-10085200D01*
X12788720Y-10115200D01*
D11*
X12863720Y-10055200D02*
X12713720Y-10055200D01*
X12713720Y-10055200D02*
G75*
G03*
X12713720Y-10115200I0J-30000D01*
G01*
X12713720Y-10115200D02*
X12863720Y-10115200D01*
X12863720Y-10115200D02*
G75*
G03*
X12863720Y-10055200I0J30000D01*
G01*
D15*
X13126720Y-9250200D02*
X13156720Y-9220200D01*
X13126720Y-9190200D01*
X13096720Y-9220200D01*
X13126720Y-9250200D01*
D11*
X13166720Y-9190200D02*
X13086720Y-9190200D01*
X13086720Y-9190200D02*
G75*
G03*
X13086720Y-9250200I0J-30000D01*
G01*
X13086720Y-9250200D02*
X13166720Y-9250200D01*
X13166720Y-9250200D02*
G75*
G03*
X13166720Y-9190200I0J30000D01*
G01*
D15*
X13126720Y-10115200D02*
X13156720Y-10085200D01*
X13126720Y-10055200D01*
X13096720Y-10085200D01*
X13126720Y-10115200D01*
D11*
X13166720Y-10055200D02*
X13086720Y-10055200D01*
X13086720Y-10055200D02*
G75*
G03*
X13086720Y-10115200I0J-30000D01*
G01*
X13086720Y-10115200D02*
X13166720Y-10115200D01*
X13166720Y-10115200D02*
G75*
G03*
X13166720Y-10055200I0J30000D01*
G01*
D16*
X12280200Y-6078260D02*
X12360200Y-6158260D01*
X12360200Y-6078260D02*
X12280200Y-6158260D01*
X12360200Y-6118260D02*
G75*
G03*
X12360200Y-6118260I-40000J0D01*
G01*
D11*
X12385200Y-6078260D02*
X12255200Y-6078260D01*
X12255200Y-6078260D02*
G75*
G03*
X12255200Y-6158260I0J-40000D01*
G01*
X12255200Y-6158260D02*
X12385200Y-6158260D01*
X12385200Y-6158260D02*
G75*
G03*
X12385200Y-6078260I0J40000D01*
G01*
D16*
X12280200Y-7908260D02*
X12360200Y-7988260D01*
X12360200Y-7908260D02*
X12280200Y-7988260D01*
X12360200Y-7948260D02*
G75*
G03*
X12360200Y-7948260I-40000J0D01*
G01*
D11*
X12385200Y-7908260D02*
X12255200Y-7908260D01*
X12255200Y-7908260D02*
G75*
G03*
X12255200Y-7988260I0J-40000D01*
G01*
X12255200Y-7988260D02*
X12385200Y-7988260D01*
X12385200Y-7988260D02*
G75*
G03*
X12385200Y-7908260I0J40000D01*
G01*
D16*
X12990200Y-6078260D02*
X13070200Y-6158260D01*
X13070200Y-6078260D02*
X12990200Y-6158260D01*
X13070200Y-6118260D02*
G75*
G03*
X13070200Y-6118260I-40000J0D01*
G01*
D11*
X13095200Y-6078260D02*
X12965200Y-6078260D01*
X12965200Y-6078260D02*
G75*
G03*
X12965200Y-6158260I0J-40000D01*
G01*
X12965200Y-6158260D02*
X13095200Y-6158260D01*
X13095200Y-6158260D02*
G75*
G03*
X13095200Y-6078260I0J40000D01*
G01*
D16*
X12990200Y-7908260D02*
X13070200Y-7988260D01*
X13070200Y-7908260D02*
X12990200Y-7988260D01*
X13070200Y-7948260D02*
G75*
G03*
X13070200Y-7948260I-40000J0D01*
G01*
D11*
X13095200Y-7908260D02*
X12965200Y-7908260D01*
X12965200Y-7908260D02*
G75*
G03*
X12965200Y-7988260I0J-40000D01*
G01*
X12965200Y-7988260D02*
X13095200Y-7988260D01*
X13095200Y-7988260D02*
G75*
G03*
X13095200Y-7908260I0J40000D01*
G01*
D17*
X3383260Y-2704700D02*
X3478260Y-2799700D01*
X3478260Y-2704700D02*
X3383260Y-2799700D01*
X3430760Y-2704700D02*
X3430760Y-2799700D01*
X3383260Y-2752200D02*
X3478260Y-2752200D01*
X3383260Y-2954700D02*
X3478260Y-3049700D01*
X3478260Y-2954700D02*
X3383260Y-3049700D01*
X3430760Y-2954700D02*
X3430760Y-3049700D01*
X3383260Y-3002200D02*
X3478260Y-3002200D01*
X3383260Y-3154700D02*
X3478260Y-3249700D01*
X3478260Y-3154700D02*
X3383260Y-3249700D01*
X3430760Y-3154700D02*
X3430760Y-3249700D01*
X3383260Y-3202200D02*
X3478260Y-3202200D01*
X3383260Y-3404700D02*
X3478260Y-3499700D01*
X3478260Y-3404700D02*
X3383260Y-3499700D01*
X3430760Y-3404700D02*
X3430760Y-3499700D01*
X3383260Y-3452200D02*
X3478260Y-3452200D01*
D18*
X3201200Y-9306600D02*
X3301200Y-9406600D01*
X3301200Y-9306600D02*
X3201200Y-9406600D01*
X3286556Y-9391956D02*
X3286556Y-9321244D01*
X3215844Y-9321244D01*
X3215844Y-9391956D01*
X3286556Y-9391956D01*
X3201200Y-9560600D02*
X3301200Y-9660600D01*
X3301200Y-9560600D02*
X3201200Y-9660600D01*
X3286556Y-9645956D02*
X3286556Y-9575244D01*
X3215844Y-9575244D01*
X3215844Y-9645956D01*
X3286556Y-9645956D01*
X3201200Y-9814600D02*
X3301200Y-9914600D01*
X3301200Y-9814600D02*
X3201200Y-9914600D01*
X3286556Y-9899956D02*
X3286556Y-9829244D01*
X3215844Y-9829244D01*
X3215844Y-9899956D01*
X3286556Y-9899956D01*
X3201200Y-10068600D02*
X3301200Y-10168600D01*
X3301200Y-10068600D02*
X3201200Y-10168600D01*
X3286556Y-10153956D02*
X3286556Y-10083244D01*
X3215844Y-10083244D01*
X3215844Y-10153956D01*
X3286556Y-10153956D01*
X3201200Y-10322600D02*
X3301200Y-10422600D01*
X3301200Y-10322600D02*
X3201200Y-10422600D01*
X3286556Y-10407956D02*
X3286556Y-10337244D01*
X3215844Y-10337244D01*
X3215844Y-10407956D01*
X3286556Y-10407956D01*
X3455200Y-9306600D02*
X3555200Y-9406600D01*
X3555200Y-9306600D02*
X3455200Y-9406600D01*
X3540556Y-9391956D02*
X3540556Y-9321244D01*
X3469844Y-9321244D01*
X3469844Y-9391956D01*
X3540556Y-9391956D01*
X3455200Y-9560600D02*
X3555200Y-9660600D01*
X3555200Y-9560600D02*
X3455200Y-9660600D01*
X3540556Y-9645956D02*
X3540556Y-9575244D01*
X3469844Y-9575244D01*
X3469844Y-9645956D01*
X3540556Y-9645956D01*
X3455200Y-9814600D02*
X3555200Y-9914600D01*
X3555200Y-9814600D02*
X3455200Y-9914600D01*
X3540556Y-9899956D02*
X3540556Y-9829244D01*
X3469844Y-9829244D01*
X3469844Y-9899956D01*
X3540556Y-9899956D01*
X3455200Y-10068600D02*
X3555200Y-10168600D01*
X3555200Y-10068600D02*
X3455200Y-10168600D01*
X3540556Y-10153956D02*
X3540556Y-10083244D01*
X3469844Y-10083244D01*
X3469844Y-10153956D01*
X3540556Y-10153956D01*
X3455200Y-10322600D02*
X3555200Y-10422600D01*
X3555200Y-10322600D02*
X3455200Y-10422600D01*
X3540556Y-10407956D02*
X3540556Y-10337244D01*
X3469844Y-10337244D01*
X3469844Y-10407956D01*
X3540556Y-10407956D01*
X4518000Y-4268000D02*
X4618000Y-4368000D01*
X4618000Y-4268000D02*
X4518000Y-4368000D01*
X4603356Y-4353356D02*
X4603356Y-4282644D01*
X4532644Y-4282644D01*
X4532644Y-4353356D01*
X4603356Y-4353356D01*
X4518000Y-4522000D02*
X4618000Y-4622000D01*
X4618000Y-4522000D02*
X4518000Y-4622000D01*
X4603356Y-4607356D02*
X4603356Y-4536644D01*
X4532644Y-4536644D01*
X4532644Y-4607356D01*
X4603356Y-4607356D01*
X4518000Y-4776000D02*
X4618000Y-4876000D01*
X4618000Y-4776000D02*
X4518000Y-4876000D01*
X4603356Y-4861356D02*
X4603356Y-4790644D01*
X4532644Y-4790644D01*
X4532644Y-4861356D01*
X4603356Y-4861356D01*
X4518000Y-5030000D02*
X4618000Y-5130000D01*
X4618000Y-5030000D02*
X4518000Y-5130000D01*
X4603356Y-5115356D02*
X4603356Y-5044644D01*
X4532644Y-5044644D01*
X4532644Y-5115356D01*
X4603356Y-5115356D01*
X4518000Y-5284000D02*
X4618000Y-5384000D01*
X4618000Y-5284000D02*
X4518000Y-5384000D01*
X4603356Y-5369356D02*
X4603356Y-5298644D01*
X4532644Y-5298644D01*
X4532644Y-5369356D01*
X4603356Y-5369356D01*
X4518000Y-5538000D02*
X4618000Y-5638000D01*
X4618000Y-5538000D02*
X4518000Y-5638000D01*
X4603356Y-5623356D02*
X4603356Y-5552644D01*
X4532644Y-5552644D01*
X4532644Y-5623356D01*
X4603356Y-5623356D01*
X4518000Y-5792000D02*
X4618000Y-5892000D01*
X4618000Y-5792000D02*
X4518000Y-5892000D01*
X4603356Y-5877356D02*
X4603356Y-5806644D01*
X4532644Y-5806644D01*
X4532644Y-5877356D01*
X4603356Y-5877356D01*
X4518000Y-6046000D02*
X4618000Y-6146000D01*
X4618000Y-6046000D02*
X4518000Y-6146000D01*
X4603356Y-6131356D02*
X4603356Y-6060644D01*
X4532644Y-6060644D01*
X4532644Y-6131356D01*
X4603356Y-6131356D01*
X4518000Y-6300000D02*
X4618000Y-6400000D01*
X4618000Y-6300000D02*
X4518000Y-6400000D01*
X4603356Y-6385356D02*
X4603356Y-6314644D01*
X4532644Y-6314644D01*
X4532644Y-6385356D01*
X4603356Y-6385356D01*
X4518000Y-6554000D02*
X4618000Y-6654000D01*
X4618000Y-6554000D02*
X4518000Y-6654000D01*
X4603356Y-6639356D02*
X4603356Y-6568644D01*
X4532644Y-6568644D01*
X4532644Y-6639356D01*
X4603356Y-6639356D01*
X4518000Y-6808000D02*
X4618000Y-6908000D01*
X4618000Y-6808000D02*
X4518000Y-6908000D01*
X4603356Y-6893356D02*
X4603356Y-6822644D01*
X4532644Y-6822644D01*
X4532644Y-6893356D01*
X4603356Y-6893356D01*
X4518000Y-7062000D02*
X4618000Y-7162000D01*
X4618000Y-7062000D02*
X4518000Y-7162000D01*
X4603356Y-7147356D02*
X4603356Y-7076644D01*
X4532644Y-7076644D01*
X4532644Y-7147356D01*
X4603356Y-7147356D01*
X4518000Y-7316000D02*
X4618000Y-7416000D01*
X4618000Y-7316000D02*
X4518000Y-7416000D01*
X4603356Y-7401356D02*
X4603356Y-7330644D01*
X4532644Y-7330644D01*
X4532644Y-7401356D01*
X4603356Y-7401356D01*
X4518000Y-7570000D02*
X4618000Y-7670000D01*
X4618000Y-7570000D02*
X4518000Y-7670000D01*
X4603356Y-7655356D02*
X4603356Y-7584644D01*
X4532644Y-7584644D01*
X4532644Y-7655356D01*
X4603356Y-7655356D01*
X4518000Y-7824000D02*
X4618000Y-7924000D01*
X4618000Y-7824000D02*
X4518000Y-7924000D01*
X4603356Y-7909356D02*
X4603356Y-7838644D01*
X4532644Y-7838644D01*
X4532644Y-7909356D01*
X4603356Y-7909356D01*
X4518000Y-8078000D02*
X4618000Y-8178000D01*
X4618000Y-8078000D02*
X4518000Y-8178000D01*
X4603356Y-8163356D02*
X4603356Y-8092644D01*
X4532644Y-8092644D01*
X4532644Y-8163356D01*
X4603356Y-8163356D01*
X4518000Y-8332000D02*
X4618000Y-8432000D01*
X4618000Y-8332000D02*
X4518000Y-8432000D01*
X4603356Y-8417356D02*
X4603356Y-8346644D01*
X4532644Y-8346644D01*
X4532644Y-8417356D01*
X4603356Y-8417356D01*
X4518000Y-8586000D02*
X4618000Y-8686000D01*
X4618000Y-8586000D02*
X4518000Y-8686000D01*
X4603356Y-8671356D02*
X4603356Y-8600644D01*
X4532644Y-8600644D01*
X4532644Y-8671356D01*
X4603356Y-8671356D01*
X4518000Y-8840000D02*
X4618000Y-8940000D01*
X4618000Y-8840000D02*
X4518000Y-8940000D01*
X4603356Y-8925356D02*
X4603356Y-8854644D01*
X4532644Y-8854644D01*
X4532644Y-8925356D01*
X4603356Y-8925356D01*
X4518000Y-9094000D02*
X4618000Y-9194000D01*
X4618000Y-9094000D02*
X4518000Y-9194000D01*
X4603356Y-9179356D02*
X4603356Y-9108644D01*
X4532644Y-9108644D01*
X4532644Y-9179356D01*
X4603356Y-9179356D01*
X4518000Y-9348000D02*
X4618000Y-9448000D01*
X4618000Y-9348000D02*
X4518000Y-9448000D01*
X4603356Y-9433356D02*
X4603356Y-9362644D01*
X4532644Y-9362644D01*
X4532644Y-9433356D01*
X4603356Y-9433356D01*
X4518000Y-9602000D02*
X4618000Y-9702000D01*
X4618000Y-9602000D02*
X4518000Y-9702000D01*
X4603356Y-9687356D02*
X4603356Y-9616644D01*
X4532644Y-9616644D01*
X4532644Y-9687356D01*
X4603356Y-9687356D01*
X4518000Y-9856000D02*
X4618000Y-9956000D01*
X4618000Y-9856000D02*
X4518000Y-9956000D01*
X4603356Y-9941356D02*
X4603356Y-9870644D01*
X4532644Y-9870644D01*
X4532644Y-9941356D01*
X4603356Y-9941356D01*
X4518000Y-10110000D02*
X4618000Y-10210000D01*
X4618000Y-10110000D02*
X4518000Y-10210000D01*
X4603356Y-10195356D02*
X4603356Y-10124644D01*
X4532644Y-10124644D01*
X4532644Y-10195356D01*
X4603356Y-10195356D01*
X4518000Y-10364000D02*
X4618000Y-10464000D01*
X4618000Y-10364000D02*
X4518000Y-10464000D01*
X4603356Y-10449356D02*
X4603356Y-10378644D01*
X4532644Y-10378644D01*
X4532644Y-10449356D01*
X4603356Y-10449356D01*
X4518000Y-10618000D02*
X4618000Y-10718000D01*
X4618000Y-10618000D02*
X4518000Y-10718000D01*
X4603356Y-10703356D02*
X4603356Y-10632644D01*
X4532644Y-10632644D01*
X4532644Y-10703356D01*
X4603356Y-10703356D01*
X4518000Y-10872000D02*
X4618000Y-10972000D01*
X4618000Y-10872000D02*
X4518000Y-10972000D01*
X4603356Y-10957356D02*
X4603356Y-10886644D01*
X4532644Y-10886644D01*
X4532644Y-10957356D01*
X4603356Y-10957356D01*
X4518000Y-11126000D02*
X4618000Y-11226000D01*
X4618000Y-11126000D02*
X4518000Y-11226000D01*
X4603356Y-11211356D02*
X4603356Y-11140644D01*
X4532644Y-11140644D01*
X4532644Y-11211356D01*
X4603356Y-11211356D01*
X4518000Y-11380000D02*
X4618000Y-11480000D01*
X4618000Y-11380000D02*
X4518000Y-11480000D01*
X4603356Y-11465356D02*
X4603356Y-11394644D01*
X4532644Y-11394644D01*
X4532644Y-11465356D01*
X4603356Y-11465356D01*
X4518000Y-11634000D02*
X4618000Y-11734000D01*
X4618000Y-11634000D02*
X4518000Y-11734000D01*
X4603356Y-11719356D02*
X4603356Y-11648644D01*
X4532644Y-11648644D01*
X4532644Y-11719356D01*
X4603356Y-11719356D01*
X4518000Y-11888000D02*
X4618000Y-11988000D01*
X4618000Y-11888000D02*
X4518000Y-11988000D01*
X4603356Y-11973356D02*
X4603356Y-11902644D01*
X4532644Y-11902644D01*
X4532644Y-11973356D01*
X4603356Y-11973356D01*
X4518000Y-12142000D02*
X4618000Y-12242000D01*
X4618000Y-12142000D02*
X4518000Y-12242000D01*
X4603356Y-12227356D02*
X4603356Y-12156644D01*
X4532644Y-12156644D01*
X4532644Y-12227356D01*
X4603356Y-12227356D01*
X4772000Y-4268000D02*
X4872000Y-4368000D01*
X4872000Y-4268000D02*
X4772000Y-4368000D01*
X4857356Y-4353356D02*
X4857356Y-4282644D01*
X4786644Y-4282644D01*
X4786644Y-4353356D01*
X4857356Y-4353356D01*
X4772000Y-4522000D02*
X4872000Y-4622000D01*
X4872000Y-4522000D02*
X4772000Y-4622000D01*
X4857356Y-4607356D02*
X4857356Y-4536644D01*
X4786644Y-4536644D01*
X4786644Y-4607356D01*
X4857356Y-4607356D01*
X4772000Y-4776000D02*
X4872000Y-4876000D01*
X4872000Y-4776000D02*
X4772000Y-4876000D01*
X4857356Y-4861356D02*
X4857356Y-4790644D01*
X4786644Y-4790644D01*
X4786644Y-4861356D01*
X4857356Y-4861356D01*
X4772000Y-5030000D02*
X4872000Y-5130000D01*
X4872000Y-5030000D02*
X4772000Y-5130000D01*
X4857356Y-5115356D02*
X4857356Y-5044644D01*
X4786644Y-5044644D01*
X4786644Y-5115356D01*
X4857356Y-5115356D01*
X4772000Y-5284000D02*
X4872000Y-5384000D01*
X4872000Y-5284000D02*
X4772000Y-5384000D01*
X4857356Y-5369356D02*
X4857356Y-5298644D01*
X4786644Y-5298644D01*
X4786644Y-5369356D01*
X4857356Y-5369356D01*
X4772000Y-5538000D02*
X4872000Y-5638000D01*
X4872000Y-5538000D02*
X4772000Y-5638000D01*
X4857356Y-5623356D02*
X4857356Y-5552644D01*
X4786644Y-5552644D01*
X4786644Y-5623356D01*
X4857356Y-5623356D01*
X4772000Y-5792000D02*
X4872000Y-5892000D01*
X4872000Y-5792000D02*
X4772000Y-5892000D01*
X4857356Y-5877356D02*
X4857356Y-5806644D01*
X4786644Y-5806644D01*
X4786644Y-5877356D01*
X4857356Y-5877356D01*
X4772000Y-6046000D02*
X4872000Y-6146000D01*
X4872000Y-6046000D02*
X4772000Y-6146000D01*
X4857356Y-6131356D02*
X4857356Y-6060644D01*
X4786644Y-6060644D01*
X4786644Y-6131356D01*
X4857356Y-6131356D01*
X4772000Y-6300000D02*
X4872000Y-6400000D01*
X4872000Y-6300000D02*
X4772000Y-6400000D01*
X4857356Y-6385356D02*
X4857356Y-6314644D01*
X4786644Y-6314644D01*
X4786644Y-6385356D01*
X4857356Y-6385356D01*
X4772000Y-6554000D02*
X4872000Y-6654000D01*
X4872000Y-6554000D02*
X4772000Y-6654000D01*
X4857356Y-6639356D02*
X4857356Y-6568644D01*
X4786644Y-6568644D01*
X4786644Y-6639356D01*
X4857356Y-6639356D01*
X4772000Y-6808000D02*
X4872000Y-6908000D01*
X4872000Y-6808000D02*
X4772000Y-6908000D01*
X4857356Y-6893356D02*
X4857356Y-6822644D01*
X4786644Y-6822644D01*
X4786644Y-6893356D01*
X4857356Y-6893356D01*
X4772000Y-7062000D02*
X4872000Y-7162000D01*
X4872000Y-7062000D02*
X4772000Y-7162000D01*
X4857356Y-7147356D02*
X4857356Y-7076644D01*
X4786644Y-7076644D01*
X4786644Y-7147356D01*
X4857356Y-7147356D01*
X4772000Y-7316000D02*
X4872000Y-7416000D01*
X4872000Y-7316000D02*
X4772000Y-7416000D01*
X4857356Y-7401356D02*
X4857356Y-7330644D01*
X4786644Y-7330644D01*
X4786644Y-7401356D01*
X4857356Y-7401356D01*
X4772000Y-7570000D02*
X4872000Y-7670000D01*
X4872000Y-7570000D02*
X4772000Y-7670000D01*
X4857356Y-7655356D02*
X4857356Y-7584644D01*
X4786644Y-7584644D01*
X4786644Y-7655356D01*
X4857356Y-7655356D01*
X4772000Y-7824000D02*
X4872000Y-7924000D01*
X4872000Y-7824000D02*
X4772000Y-7924000D01*
X4857356Y-7909356D02*
X4857356Y-7838644D01*
X4786644Y-7838644D01*
X4786644Y-7909356D01*
X4857356Y-7909356D01*
X4772000Y-8078000D02*
X4872000Y-8178000D01*
X4872000Y-8078000D02*
X4772000Y-8178000D01*
X4857356Y-8163356D02*
X4857356Y-8092644D01*
X4786644Y-8092644D01*
X4786644Y-8163356D01*
X4857356Y-8163356D01*
X4772000Y-8332000D02*
X4872000Y-8432000D01*
X4872000Y-8332000D02*
X4772000Y-8432000D01*
X4857356Y-8417356D02*
X4857356Y-8346644D01*
X4786644Y-8346644D01*
X4786644Y-8417356D01*
X4857356Y-8417356D01*
X4772000Y-8586000D02*
X4872000Y-8686000D01*
X4872000Y-8586000D02*
X4772000Y-8686000D01*
X4857356Y-8671356D02*
X4857356Y-8600644D01*
X4786644Y-8600644D01*
X4786644Y-8671356D01*
X4857356Y-8671356D01*
X4772000Y-8840000D02*
X4872000Y-8940000D01*
X4872000Y-8840000D02*
X4772000Y-8940000D01*
X4857356Y-8925356D02*
X4857356Y-8854644D01*
X4786644Y-8854644D01*
X4786644Y-8925356D01*
X4857356Y-8925356D01*
X4772000Y-9094000D02*
X4872000Y-9194000D01*
X4872000Y-9094000D02*
X4772000Y-9194000D01*
X4857356Y-9179356D02*
X4857356Y-9108644D01*
X4786644Y-9108644D01*
X4786644Y-9179356D01*
X4857356Y-9179356D01*
X4772000Y-9348000D02*
X4872000Y-9448000D01*
X4872000Y-9348000D02*
X4772000Y-9448000D01*
X4857356Y-9433356D02*
X4857356Y-9362644D01*
X4786644Y-9362644D01*
X4786644Y-9433356D01*
X4857356Y-9433356D01*
X4772000Y-9602000D02*
X4872000Y-9702000D01*
X4872000Y-9602000D02*
X4772000Y-9702000D01*
X4857356Y-9687356D02*
X4857356Y-9616644D01*
X4786644Y-9616644D01*
X4786644Y-9687356D01*
X4857356Y-9687356D01*
X4772000Y-9856000D02*
X4872000Y-9956000D01*
X4872000Y-9856000D02*
X4772000Y-9956000D01*
X4857356Y-9941356D02*
X4857356Y-9870644D01*
X4786644Y-9870644D01*
X4786644Y-9941356D01*
X4857356Y-9941356D01*
X4772000Y-10110000D02*
X4872000Y-10210000D01*
X4872000Y-10110000D02*
X4772000Y-10210000D01*
X4857356Y-10195356D02*
X4857356Y-10124644D01*
X4786644Y-10124644D01*
X4786644Y-10195356D01*
X4857356Y-10195356D01*
X4772000Y-10364000D02*
X4872000Y-10464000D01*
X4872000Y-10364000D02*
X4772000Y-10464000D01*
X4857356Y-10449356D02*
X4857356Y-10378644D01*
X4786644Y-10378644D01*
X4786644Y-10449356D01*
X4857356Y-10449356D01*
X4772000Y-10618000D02*
X4872000Y-10718000D01*
X4872000Y-10618000D02*
X4772000Y-10718000D01*
X4857356Y-10703356D02*
X4857356Y-10632644D01*
X4786644Y-10632644D01*
X4786644Y-10703356D01*
X4857356Y-10703356D01*
X4772000Y-10872000D02*
X4872000Y-10972000D01*
X4872000Y-10872000D02*
X4772000Y-10972000D01*
X4857356Y-10957356D02*
X4857356Y-10886644D01*
X4786644Y-10886644D01*
X4786644Y-10957356D01*
X4857356Y-10957356D01*
X4772000Y-11126000D02*
X4872000Y-11226000D01*
X4872000Y-11126000D02*
X4772000Y-11226000D01*
X4857356Y-11211356D02*
X4857356Y-11140644D01*
X4786644Y-11140644D01*
X4786644Y-11211356D01*
X4857356Y-11211356D01*
X4772000Y-11380000D02*
X4872000Y-11480000D01*
X4872000Y-11380000D02*
X4772000Y-11480000D01*
X4857356Y-11465356D02*
X4857356Y-11394644D01*
X4786644Y-11394644D01*
X4786644Y-11465356D01*
X4857356Y-11465356D01*
X4772000Y-11634000D02*
X4872000Y-11734000D01*
X4872000Y-11634000D02*
X4772000Y-11734000D01*
X4857356Y-11719356D02*
X4857356Y-11648644D01*
X4786644Y-11648644D01*
X4786644Y-11719356D01*
X4857356Y-11719356D01*
X4772000Y-11888000D02*
X4872000Y-11988000D01*
X4872000Y-11888000D02*
X4772000Y-11988000D01*
X4857356Y-11973356D02*
X4857356Y-11902644D01*
X4786644Y-11902644D01*
X4786644Y-11973356D01*
X4857356Y-11973356D01*
X4772000Y-12142000D02*
X4872000Y-12242000D01*
X4872000Y-12142000D02*
X4772000Y-12242000D01*
X4857356Y-12227356D02*
X4857356Y-12156644D01*
X4786644Y-12156644D01*
X4786644Y-12227356D01*
X4857356Y-12227356D01*
X10618000Y-4268000D02*
X10718000Y-4368000D01*
X10718000Y-4268000D02*
X10618000Y-4368000D01*
X10703356Y-4353356D02*
X10703356Y-4282644D01*
X10632644Y-4282644D01*
X10632644Y-4353356D01*
X10703356Y-4353356D01*
X10618000Y-4522000D02*
X10718000Y-4622000D01*
X10718000Y-4522000D02*
X10618000Y-4622000D01*
X10703356Y-4607356D02*
X10703356Y-4536644D01*
X10632644Y-4536644D01*
X10632644Y-4607356D01*
X10703356Y-4607356D01*
X10618000Y-4776000D02*
X10718000Y-4876000D01*
X10718000Y-4776000D02*
X10618000Y-4876000D01*
X10703356Y-4861356D02*
X10703356Y-4790644D01*
X10632644Y-4790644D01*
X10632644Y-4861356D01*
X10703356Y-4861356D01*
X10618000Y-5030000D02*
X10718000Y-5130000D01*
X10718000Y-5030000D02*
X10618000Y-5130000D01*
X10703356Y-5115356D02*
X10703356Y-5044644D01*
X10632644Y-5044644D01*
X10632644Y-5115356D01*
X10703356Y-5115356D01*
X10618000Y-5284000D02*
X10718000Y-5384000D01*
X10718000Y-5284000D02*
X10618000Y-5384000D01*
X10703356Y-5369356D02*
X10703356Y-5298644D01*
X10632644Y-5298644D01*
X10632644Y-5369356D01*
X10703356Y-5369356D01*
X10618000Y-5538000D02*
X10718000Y-5638000D01*
X10718000Y-5538000D02*
X10618000Y-5638000D01*
X10703356Y-5623356D02*
X10703356Y-5552644D01*
X10632644Y-5552644D01*
X10632644Y-5623356D01*
X10703356Y-5623356D01*
X10618000Y-5792000D02*
X10718000Y-5892000D01*
X10718000Y-5792000D02*
X10618000Y-5892000D01*
X10703356Y-5877356D02*
X10703356Y-5806644D01*
X10632644Y-5806644D01*
X10632644Y-5877356D01*
X10703356Y-5877356D01*
X10618000Y-6046000D02*
X10718000Y-6146000D01*
X10718000Y-6046000D02*
X10618000Y-6146000D01*
X10703356Y-6131356D02*
X10703356Y-6060644D01*
X10632644Y-6060644D01*
X10632644Y-6131356D01*
X10703356Y-6131356D01*
X10618000Y-6300000D02*
X10718000Y-6400000D01*
X10718000Y-6300000D02*
X10618000Y-6400000D01*
X10703356Y-6385356D02*
X10703356Y-6314644D01*
X10632644Y-6314644D01*
X10632644Y-6385356D01*
X10703356Y-6385356D01*
X10618000Y-6554000D02*
X10718000Y-6654000D01*
X10718000Y-6554000D02*
X10618000Y-6654000D01*
X10703356Y-6639356D02*
X10703356Y-6568644D01*
X10632644Y-6568644D01*
X10632644Y-6639356D01*
X10703356Y-6639356D01*
X10618000Y-6808000D02*
X10718000Y-6908000D01*
X10718000Y-6808000D02*
X10618000Y-6908000D01*
X10703356Y-6893356D02*
X10703356Y-6822644D01*
X10632644Y-6822644D01*
X10632644Y-6893356D01*
X10703356Y-6893356D01*
X10618000Y-7062000D02*
X10718000Y-7162000D01*
X10718000Y-7062000D02*
X10618000Y-7162000D01*
X10703356Y-7147356D02*
X10703356Y-7076644D01*
X10632644Y-7076644D01*
X10632644Y-7147356D01*
X10703356Y-7147356D01*
X10618000Y-7316000D02*
X10718000Y-7416000D01*
X10718000Y-7316000D02*
X10618000Y-7416000D01*
X10703356Y-7401356D02*
X10703356Y-7330644D01*
X10632644Y-7330644D01*
X10632644Y-7401356D01*
X10703356Y-7401356D01*
X10618000Y-7570000D02*
X10718000Y-7670000D01*
X10718000Y-7570000D02*
X10618000Y-7670000D01*
X10703356Y-7655356D02*
X10703356Y-7584644D01*
X10632644Y-7584644D01*
X10632644Y-7655356D01*
X10703356Y-7655356D01*
X10618000Y-7824000D02*
X10718000Y-7924000D01*
X10718000Y-7824000D02*
X10618000Y-7924000D01*
X10703356Y-7909356D02*
X10703356Y-7838644D01*
X10632644Y-7838644D01*
X10632644Y-7909356D01*
X10703356Y-7909356D01*
X10618000Y-8078000D02*
X10718000Y-8178000D01*
X10718000Y-8078000D02*
X10618000Y-8178000D01*
X10703356Y-8163356D02*
X10703356Y-8092644D01*
X10632644Y-8092644D01*
X10632644Y-8163356D01*
X10703356Y-8163356D01*
X10618000Y-8332000D02*
X10718000Y-8432000D01*
X10718000Y-8332000D02*
X10618000Y-8432000D01*
X10703356Y-8417356D02*
X10703356Y-8346644D01*
X10632644Y-8346644D01*
X10632644Y-8417356D01*
X10703356Y-8417356D01*
X10618000Y-8586000D02*
X10718000Y-8686000D01*
X10718000Y-8586000D02*
X10618000Y-8686000D01*
X10703356Y-8671356D02*
X10703356Y-8600644D01*
X10632644Y-8600644D01*
X10632644Y-8671356D01*
X10703356Y-8671356D01*
X10618000Y-8840000D02*
X10718000Y-8940000D01*
X10718000Y-8840000D02*
X10618000Y-8940000D01*
X10703356Y-8925356D02*
X10703356Y-8854644D01*
X10632644Y-8854644D01*
X10632644Y-8925356D01*
X10703356Y-8925356D01*
X10618000Y-9094000D02*
X10718000Y-9194000D01*
X10718000Y-9094000D02*
X10618000Y-9194000D01*
X10703356Y-9179356D02*
X10703356Y-9108644D01*
X10632644Y-9108644D01*
X10632644Y-9179356D01*
X10703356Y-9179356D01*
X10618000Y-9348000D02*
X10718000Y-9448000D01*
X10718000Y-9348000D02*
X10618000Y-9448000D01*
X10703356Y-9433356D02*
X10703356Y-9362644D01*
X10632644Y-9362644D01*
X10632644Y-9433356D01*
X10703356Y-9433356D01*
X10618000Y-9602000D02*
X10718000Y-9702000D01*
X10718000Y-9602000D02*
X10618000Y-9702000D01*
X10703356Y-9687356D02*
X10703356Y-9616644D01*
X10632644Y-9616644D01*
X10632644Y-9687356D01*
X10703356Y-9687356D01*
X10618000Y-9856000D02*
X10718000Y-9956000D01*
X10718000Y-9856000D02*
X10618000Y-9956000D01*
X10703356Y-9941356D02*
X10703356Y-9870644D01*
X10632644Y-9870644D01*
X10632644Y-9941356D01*
X10703356Y-9941356D01*
X10618000Y-10110000D02*
X10718000Y-10210000D01*
X10718000Y-10110000D02*
X10618000Y-10210000D01*
X10703356Y-10195356D02*
X10703356Y-10124644D01*
X10632644Y-10124644D01*
X10632644Y-10195356D01*
X10703356Y-10195356D01*
X10618000Y-10364000D02*
X10718000Y-10464000D01*
X10718000Y-10364000D02*
X10618000Y-10464000D01*
X10703356Y-10449356D02*
X10703356Y-10378644D01*
X10632644Y-10378644D01*
X10632644Y-10449356D01*
X10703356Y-10449356D01*
X10618000Y-10618000D02*
X10718000Y-10718000D01*
X10718000Y-10618000D02*
X10618000Y-10718000D01*
X10703356Y-10703356D02*
X10703356Y-10632644D01*
X10632644Y-10632644D01*
X10632644Y-10703356D01*
X10703356Y-10703356D01*
X10618000Y-10872000D02*
X10718000Y-10972000D01*
X10718000Y-10872000D02*
X10618000Y-10972000D01*
X10703356Y-10957356D02*
X10703356Y-10886644D01*
X10632644Y-10886644D01*
X10632644Y-10957356D01*
X10703356Y-10957356D01*
X10618000Y-11126000D02*
X10718000Y-11226000D01*
X10718000Y-11126000D02*
X10618000Y-11226000D01*
X10703356Y-11211356D02*
X10703356Y-11140644D01*
X10632644Y-11140644D01*
X10632644Y-11211356D01*
X10703356Y-11211356D01*
X10618000Y-11380000D02*
X10718000Y-11480000D01*
X10718000Y-11380000D02*
X10618000Y-11480000D01*
X10703356Y-11465356D02*
X10703356Y-11394644D01*
X10632644Y-11394644D01*
X10632644Y-11465356D01*
X10703356Y-11465356D01*
X10618000Y-11634000D02*
X10718000Y-11734000D01*
X10718000Y-11634000D02*
X10618000Y-11734000D01*
X10703356Y-11719356D02*
X10703356Y-11648644D01*
X10632644Y-11648644D01*
X10632644Y-11719356D01*
X10703356Y-11719356D01*
X10618000Y-11888000D02*
X10718000Y-11988000D01*
X10718000Y-11888000D02*
X10618000Y-11988000D01*
X10703356Y-11973356D02*
X10703356Y-11902644D01*
X10632644Y-11902644D01*
X10632644Y-11973356D01*
X10703356Y-11973356D01*
X10618000Y-12142000D02*
X10718000Y-12242000D01*
X10718000Y-12142000D02*
X10618000Y-12242000D01*
X10703356Y-12227356D02*
X10703356Y-12156644D01*
X10632644Y-12156644D01*
X10632644Y-12227356D01*
X10703356Y-12227356D01*
X10872000Y-4268000D02*
X10972000Y-4368000D01*
X10972000Y-4268000D02*
X10872000Y-4368000D01*
X10957356Y-4353356D02*
X10957356Y-4282644D01*
X10886644Y-4282644D01*
X10886644Y-4353356D01*
X10957356Y-4353356D01*
X10872000Y-4522000D02*
X10972000Y-4622000D01*
X10972000Y-4522000D02*
X10872000Y-4622000D01*
X10957356Y-4607356D02*
X10957356Y-4536644D01*
X10886644Y-4536644D01*
X10886644Y-4607356D01*
X10957356Y-4607356D01*
X10872000Y-4776000D02*
X10972000Y-4876000D01*
X10972000Y-4776000D02*
X10872000Y-4876000D01*
X10957356Y-4861356D02*
X10957356Y-4790644D01*
X10886644Y-4790644D01*
X10886644Y-4861356D01*
X10957356Y-4861356D01*
X10872000Y-5030000D02*
X10972000Y-5130000D01*
X10972000Y-5030000D02*
X10872000Y-5130000D01*
X10957356Y-5115356D02*
X10957356Y-5044644D01*
X10886644Y-5044644D01*
X10886644Y-5115356D01*
X10957356Y-5115356D01*
X10872000Y-5284000D02*
X10972000Y-5384000D01*
X10972000Y-5284000D02*
X10872000Y-5384000D01*
X10957356Y-5369356D02*
X10957356Y-5298644D01*
X10886644Y-5298644D01*
X10886644Y-5369356D01*
X10957356Y-5369356D01*
X10872000Y-5538000D02*
X10972000Y-5638000D01*
X10972000Y-5538000D02*
X10872000Y-5638000D01*
X10957356Y-5623356D02*
X10957356Y-5552644D01*
X10886644Y-5552644D01*
X10886644Y-5623356D01*
X10957356Y-5623356D01*
X10872000Y-5792000D02*
X10972000Y-5892000D01*
X10972000Y-5792000D02*
X10872000Y-5892000D01*
X10957356Y-5877356D02*
X10957356Y-5806644D01*
X10886644Y-5806644D01*
X10886644Y-5877356D01*
X10957356Y-5877356D01*
X10872000Y-6046000D02*
X10972000Y-6146000D01*
X10972000Y-6046000D02*
X10872000Y-6146000D01*
X10957356Y-6131356D02*
X10957356Y-6060644D01*
X10886644Y-6060644D01*
X10886644Y-6131356D01*
X10957356Y-6131356D01*
X10872000Y-6300000D02*
X10972000Y-6400000D01*
X10972000Y-6300000D02*
X10872000Y-6400000D01*
X10957356Y-6385356D02*
X10957356Y-6314644D01*
X10886644Y-6314644D01*
X10886644Y-6385356D01*
X10957356Y-6385356D01*
X10872000Y-6554000D02*
X10972000Y-6654000D01*
X10972000Y-6554000D02*
X10872000Y-6654000D01*
X10957356Y-6639356D02*
X10957356Y-6568644D01*
X10886644Y-6568644D01*
X10886644Y-6639356D01*
X10957356Y-6639356D01*
X10872000Y-6808000D02*
X10972000Y-6908000D01*
X10972000Y-6808000D02*
X10872000Y-6908000D01*
X10957356Y-6893356D02*
X10957356Y-6822644D01*
X10886644Y-6822644D01*
X10886644Y-6893356D01*
X10957356Y-6893356D01*
X10872000Y-7062000D02*
X10972000Y-7162000D01*
X10972000Y-7062000D02*
X10872000Y-7162000D01*
X10957356Y-7147356D02*
X10957356Y-7076644D01*
X10886644Y-7076644D01*
X10886644Y-7147356D01*
X10957356Y-7147356D01*
X10872000Y-7316000D02*
X10972000Y-7416000D01*
X10972000Y-7316000D02*
X10872000Y-7416000D01*
X10957356Y-7401356D02*
X10957356Y-7330644D01*
X10886644Y-7330644D01*
X10886644Y-7401356D01*
X10957356Y-7401356D01*
X10872000Y-7570000D02*
X10972000Y-7670000D01*
X10972000Y-7570000D02*
X10872000Y-7670000D01*
X10957356Y-7655356D02*
X10957356Y-7584644D01*
X10886644Y-7584644D01*
X10886644Y-7655356D01*
X10957356Y-7655356D01*
X10872000Y-7824000D02*
X10972000Y-7924000D01*
X10972000Y-7824000D02*
X10872000Y-7924000D01*
X10957356Y-7909356D02*
X10957356Y-7838644D01*
X10886644Y-7838644D01*
X10886644Y-7909356D01*
X10957356Y-7909356D01*
X10872000Y-8078000D02*
X10972000Y-8178000D01*
X10972000Y-8078000D02*
X10872000Y-8178000D01*
X10957356Y-8163356D02*
X10957356Y-8092644D01*
X10886644Y-8092644D01*
X10886644Y-8163356D01*
X10957356Y-8163356D01*
X10872000Y-8332000D02*
X10972000Y-8432000D01*
X10972000Y-8332000D02*
X10872000Y-8432000D01*
X10957356Y-8417356D02*
X10957356Y-8346644D01*
X10886644Y-8346644D01*
X10886644Y-8417356D01*
X10957356Y-8417356D01*
X10872000Y-8586000D02*
X10972000Y-8686000D01*
X10972000Y-8586000D02*
X10872000Y-8686000D01*
X10957356Y-8671356D02*
X10957356Y-8600644D01*
X10886644Y-8600644D01*
X10886644Y-8671356D01*
X10957356Y-8671356D01*
X10872000Y-8840000D02*
X10972000Y-8940000D01*
X10972000Y-8840000D02*
X10872000Y-8940000D01*
X10957356Y-8925356D02*
X10957356Y-8854644D01*
X10886644Y-8854644D01*
X10886644Y-8925356D01*
X10957356Y-8925356D01*
X10872000Y-9094000D02*
X10972000Y-9194000D01*
X10972000Y-9094000D02*
X10872000Y-9194000D01*
X10957356Y-9179356D02*
X10957356Y-9108644D01*
X10886644Y-9108644D01*
X10886644Y-9179356D01*
X10957356Y-9179356D01*
X10872000Y-9348000D02*
X10972000Y-9448000D01*
X10972000Y-9348000D02*
X10872000Y-9448000D01*
X10957356Y-9433356D02*
X10957356Y-9362644D01*
X10886644Y-9362644D01*
X10886644Y-9433356D01*
X10957356Y-9433356D01*
X10872000Y-9602000D02*
X10972000Y-9702000D01*
X10972000Y-9602000D02*
X10872000Y-9702000D01*
X10957356Y-9687356D02*
X10957356Y-9616644D01*
X10886644Y-9616644D01*
X10886644Y-9687356D01*
X10957356Y-9687356D01*
X10872000Y-9856000D02*
X10972000Y-9956000D01*
X10972000Y-9856000D02*
X10872000Y-9956000D01*
X10957356Y-9941356D02*
X10957356Y-9870644D01*
X10886644Y-9870644D01*
X10886644Y-9941356D01*
X10957356Y-9941356D01*
X10872000Y-10110000D02*
X10972000Y-10210000D01*
X10972000Y-10110000D02*
X10872000Y-10210000D01*
X10957356Y-10195356D02*
X10957356Y-10124644D01*
X10886644Y-10124644D01*
X10886644Y-10195356D01*
X10957356Y-10195356D01*
X10872000Y-10364000D02*
X10972000Y-10464000D01*
X10972000Y-10364000D02*
X10872000Y-10464000D01*
X10957356Y-10449356D02*
X10957356Y-10378644D01*
X10886644Y-10378644D01*
X10886644Y-10449356D01*
X10957356Y-10449356D01*
X10872000Y-10618000D02*
X10972000Y-10718000D01*
X10972000Y-10618000D02*
X10872000Y-10718000D01*
X10957356Y-10703356D02*
X10957356Y-10632644D01*
X10886644Y-10632644D01*
X10886644Y-10703356D01*
X10957356Y-10703356D01*
X10872000Y-10872000D02*
X10972000Y-10972000D01*
X10972000Y-10872000D02*
X10872000Y-10972000D01*
X10957356Y-10957356D02*
X10957356Y-10886644D01*
X10886644Y-10886644D01*
X10886644Y-10957356D01*
X10957356Y-10957356D01*
X10872000Y-11126000D02*
X10972000Y-11226000D01*
X10972000Y-11126000D02*
X10872000Y-11226000D01*
X10957356Y-11211356D02*
X10957356Y-11140644D01*
X10886644Y-11140644D01*
X10886644Y-11211356D01*
X10957356Y-11211356D01*
X10872000Y-11380000D02*
X10972000Y-11480000D01*
X10972000Y-11380000D02*
X10872000Y-11480000D01*
X10957356Y-11465356D02*
X10957356Y-11394644D01*
X10886644Y-11394644D01*
X10886644Y-11465356D01*
X10957356Y-11465356D01*
X10872000Y-11634000D02*
X10972000Y-11734000D01*
X10972000Y-11634000D02*
X10872000Y-11734000D01*
X10957356Y-11719356D02*
X10957356Y-11648644D01*
X10886644Y-11648644D01*
X10886644Y-11719356D01*
X10957356Y-11719356D01*
X10872000Y-11888000D02*
X10972000Y-11988000D01*
X10972000Y-11888000D02*
X10872000Y-11988000D01*
X10957356Y-11973356D02*
X10957356Y-11902644D01*
X10886644Y-11902644D01*
X10886644Y-11973356D01*
X10957356Y-11973356D01*
X10872000Y-12142000D02*
X10972000Y-12242000D01*
X10972000Y-12142000D02*
X10872000Y-12242000D01*
X10957356Y-12227356D02*
X10957356Y-12156644D01*
X10886644Y-12156644D01*
X10886644Y-12227356D01*
X10957356Y-12227356D01*
X11451120Y-11308880D02*
X11551120Y-11408880D01*
X11551120Y-11308880D02*
X11451120Y-11408880D01*
X11536476Y-11394236D02*
X11536476Y-11323524D01*
X11465764Y-11323524D01*
X11465764Y-11394236D01*
X11536476Y-11394236D01*
X11451120Y-11562880D02*
X11551120Y-11662880D01*
X11551120Y-11562880D02*
X11451120Y-11662880D01*
X11536476Y-11648236D02*
X11536476Y-11577524D01*
X11465764Y-11577524D01*
X11465764Y-11648236D01*
X11536476Y-11648236D01*
X11451120Y-11816880D02*
X11551120Y-11916880D01*
X11551120Y-11816880D02*
X11451120Y-11916880D01*
X11536476Y-11902236D02*
X11536476Y-11831524D01*
X11465764Y-11831524D01*
X11465764Y-11902236D01*
X11536476Y-11902236D01*
X11451120Y-12070880D02*
X11551120Y-12170880D01*
X11551120Y-12070880D02*
X11451120Y-12170880D01*
X11536476Y-12156236D02*
X11536476Y-12085524D01*
X11465764Y-12085524D01*
X11465764Y-12156236D01*
X11536476Y-12156236D01*
D19*
X3044760Y-2330200D02*
X3274760Y-2560200D01*
X3274760Y-2330200D02*
X3044760Y-2560200D01*
X3159760Y-2560200D02*
X3274760Y-2445200D01*
X3159760Y-2330200D01*
X3044760Y-2445200D01*
X3159760Y-2560200D01*
X3044760Y-3644200D02*
X3274760Y-3874200D01*
X3274760Y-3644200D02*
X3044760Y-3874200D01*
X3159760Y-3874200D02*
X3274760Y-3759200D01*
X3159760Y-3644200D01*
X3044760Y-3759200D01*
X3159760Y-3874200D01*
D11*
X2456919Y-13063824D02*
X2456919Y-12863824D01*
X2456919Y-12863824D02*
X2504538Y-12863824D01*
X2504538Y-12863824D02*
X2533110Y-12873348D01*
X2533110Y-12873348D02*
X2552157Y-12892395D01*
X2552157Y-12892395D02*
X2561681Y-12911443D01*
X2561681Y-12911443D02*
X2571205Y-12949538D01*
X2571205Y-12949538D02*
X2571205Y-12978109D01*
X2571205Y-12978109D02*
X2561681Y-13016205D01*
X2561681Y-13016205D02*
X2552157Y-13035252D01*
X2552157Y-13035252D02*
X2533110Y-13054300D01*
X2533110Y-13054300D02*
X2504538Y-13063824D01*
X2504538Y-13063824D02*
X2456919Y-13063824D01*
X2656919Y-13063824D02*
X2656919Y-12930490D01*
X2656919Y-12968586D02*
X2666443Y-12949538D01*
X2666443Y-12949538D02*
X2675967Y-12940014D01*
X2675967Y-12940014D02*
X2695014Y-12930490D01*
X2695014Y-12930490D02*
X2714062Y-12930490D01*
X2780729Y-13063824D02*
X2780729Y-12930490D01*
X2780729Y-12863824D02*
X2771205Y-12873348D01*
X2771205Y-12873348D02*
X2780729Y-12882871D01*
X2780729Y-12882871D02*
X2790252Y-12873348D01*
X2790252Y-12873348D02*
X2780729Y-12863824D01*
X2780729Y-12863824D02*
X2780729Y-12882871D01*
X2904538Y-13063824D02*
X2885490Y-13054300D01*
X2885490Y-13054300D02*
X2875967Y-13035252D01*
X2875967Y-13035252D02*
X2875967Y-12863824D01*
X3009300Y-13063824D02*
X2990252Y-13054300D01*
X2990252Y-13054300D02*
X2980728Y-13035252D01*
X2980728Y-13035252D02*
X2980728Y-12863824D01*
X3237871Y-13063824D02*
X3237871Y-12863824D01*
X3237871Y-12863824D02*
X3304538Y-13006681D01*
X3304538Y-13006681D02*
X3371205Y-12863824D01*
X3371205Y-12863824D02*
X3371205Y-13063824D01*
X3552157Y-13063824D02*
X3552157Y-12959062D01*
X3552157Y-12959062D02*
X3542633Y-12940014D01*
X3542633Y-12940014D02*
X3523586Y-12930490D01*
X3523586Y-12930490D02*
X3485490Y-12930490D01*
X3485490Y-12930490D02*
X3466443Y-12940014D01*
X3552157Y-13054300D02*
X3533109Y-13063824D01*
X3533109Y-13063824D02*
X3485490Y-13063824D01*
X3485490Y-13063824D02*
X3466443Y-13054300D01*
X3466443Y-13054300D02*
X3456919Y-13035252D01*
X3456919Y-13035252D02*
X3456919Y-13016205D01*
X3456919Y-13016205D02*
X3466443Y-12997157D01*
X3466443Y-12997157D02*
X3485490Y-12987633D01*
X3485490Y-12987633D02*
X3533109Y-12987633D01*
X3533109Y-12987633D02*
X3552157Y-12978109D01*
X3647395Y-12930490D02*
X3647395Y-13130490D01*
X3647395Y-12940014D02*
X3666443Y-12930490D01*
X3666443Y-12930490D02*
X3704538Y-12930490D01*
X3704538Y-12930490D02*
X3723586Y-12940014D01*
X3723586Y-12940014D02*
X3733109Y-12949538D01*
X3733109Y-12949538D02*
X3742633Y-12968586D01*
X3742633Y-12968586D02*
X3742633Y-13025728D01*
X3742633Y-13025728D02*
X3733109Y-13044776D01*
X3733109Y-13044776D02*
X3723586Y-13054300D01*
X3723586Y-13054300D02*
X3704538Y-13063824D01*
X3704538Y-13063824D02*
X3666443Y-13063824D01*
X3666443Y-13063824D02*
X3647395Y-13054300D01*
X3828348Y-13044776D02*
X3837871Y-13054300D01*
X3837871Y-13054300D02*
X3828348Y-13063824D01*
X3828348Y-13063824D02*
X3818824Y-13054300D01*
X3818824Y-13054300D02*
X3828348Y-13044776D01*
X3828348Y-13044776D02*
X3828348Y-13063824D01*
X3828348Y-12940014D02*
X3837871Y-12949538D01*
X3837871Y-12949538D02*
X3828348Y-12959062D01*
X3828348Y-12959062D02*
X3818824Y-12949538D01*
X3818824Y-12949538D02*
X3828348Y-12940014D01*
X3828348Y-12940014D02*
X3828348Y-12959062D01*
D12*
X2169300Y-13371300D02*
X2209300Y-13411300D01*
X2209300Y-13371300D02*
X2169300Y-13411300D01*
D11*
X2495014Y-13283824D02*
X2514062Y-13283824D01*
X2514062Y-13283824D02*
X2533110Y-13293348D01*
X2533110Y-13293348D02*
X2542633Y-13302871D01*
X2542633Y-13302871D02*
X2552157Y-13321919D01*
X2552157Y-13321919D02*
X2561681Y-13360014D01*
X2561681Y-13360014D02*
X2561681Y-13407633D01*
X2561681Y-13407633D02*
X2552157Y-13445728D01*
X2552157Y-13445728D02*
X2542633Y-13464776D01*
X2542633Y-13464776D02*
X2533110Y-13474300D01*
X2533110Y-13474300D02*
X2514062Y-13483824D01*
X2514062Y-13483824D02*
X2495014Y-13483824D01*
X2495014Y-13483824D02*
X2475967Y-13474300D01*
X2475967Y-13474300D02*
X2466443Y-13464776D01*
X2466443Y-13464776D02*
X2456919Y-13445728D01*
X2456919Y-13445728D02*
X2447395Y-13407633D01*
X2447395Y-13407633D02*
X2447395Y-13360014D01*
X2447395Y-13360014D02*
X2456919Y-13321919D01*
X2456919Y-13321919D02*
X2466443Y-13302871D01*
X2466443Y-13302871D02*
X2475967Y-13293348D01*
X2475967Y-13293348D02*
X2495014Y-13283824D01*
X2647395Y-13464776D02*
X2656919Y-13474300D01*
X2656919Y-13474300D02*
X2647395Y-13483824D01*
X2647395Y-13483824D02*
X2637871Y-13474300D01*
X2637871Y-13474300D02*
X2647395Y-13464776D01*
X2647395Y-13464776D02*
X2647395Y-13483824D01*
X2828348Y-13350490D02*
X2828348Y-13483824D01*
X2780729Y-13274300D02*
X2733110Y-13417157D01*
X2733110Y-13417157D02*
X2856919Y-13417157D01*
X2971205Y-13283824D02*
X2990252Y-13283824D01*
X2990252Y-13283824D02*
X3009300Y-13293348D01*
X3009300Y-13293348D02*
X3018824Y-13302871D01*
X3018824Y-13302871D02*
X3028348Y-13321919D01*
X3028348Y-13321919D02*
X3037871Y-13360014D01*
X3037871Y-13360014D02*
X3037871Y-13407633D01*
X3037871Y-13407633D02*
X3028348Y-13445728D01*
X3028348Y-13445728D02*
X3018824Y-13464776D01*
X3018824Y-13464776D02*
X3009300Y-13474300D01*
X3009300Y-13474300D02*
X2990252Y-13483824D01*
X2990252Y-13483824D02*
X2971205Y-13483824D01*
X2971205Y-13483824D02*
X2952157Y-13474300D01*
X2952157Y-13474300D02*
X2942633Y-13464776D01*
X2942633Y-13464776D02*
X2933109Y-13445728D01*
X2933109Y-13445728D02*
X2923586Y-13407633D01*
X2923586Y-13407633D02*
X2923586Y-13360014D01*
X2923586Y-13360014D02*
X2933109Y-13321919D01*
X2933109Y-13321919D02*
X2942633Y-13302871D01*
X2942633Y-13302871D02*
X2952157Y-13293348D01*
X2952157Y-13293348D02*
X2971205Y-13283824D01*
X3161681Y-13283824D02*
X3180729Y-13283824D01*
X3180729Y-13283824D02*
X3199776Y-13293348D01*
X3199776Y-13293348D02*
X3209300Y-13302871D01*
X3209300Y-13302871D02*
X3218824Y-13321919D01*
X3218824Y-13321919D02*
X3228348Y-13360014D01*
X3228348Y-13360014D02*
X3228348Y-13407633D01*
X3228348Y-13407633D02*
X3218824Y-13445728D01*
X3218824Y-13445728D02*
X3209300Y-13464776D01*
X3209300Y-13464776D02*
X3199776Y-13474300D01*
X3199776Y-13474300D02*
X3180729Y-13483824D01*
X3180729Y-13483824D02*
X3161681Y-13483824D01*
X3161681Y-13483824D02*
X3142633Y-13474300D01*
X3142633Y-13474300D02*
X3133109Y-13464776D01*
X3133109Y-13464776D02*
X3123586Y-13445728D01*
X3123586Y-13445728D02*
X3114062Y-13407633D01*
X3114062Y-13407633D02*
X3114062Y-13360014D01*
X3114062Y-13360014D02*
X3123586Y-13321919D01*
X3123586Y-13321919D02*
X3133109Y-13302871D01*
X3133109Y-13302871D02*
X3142633Y-13293348D01*
X3142633Y-13293348D02*
X3161681Y-13283824D01*
X3314062Y-13483824D02*
X3314062Y-13350490D01*
X3314062Y-13369538D02*
X3323586Y-13360014D01*
X3323586Y-13360014D02*
X3342633Y-13350490D01*
X3342633Y-13350490D02*
X3371205Y-13350490D01*
X3371205Y-13350490D02*
X3390252Y-13360014D01*
X3390252Y-13360014D02*
X3399776Y-13379062D01*
X3399776Y-13379062D02*
X3399776Y-13483824D01*
X3399776Y-13379062D02*
X3409300Y-13360014D01*
X3409300Y-13360014D02*
X3428348Y-13350490D01*
X3428348Y-13350490D02*
X3456919Y-13350490D01*
X3456919Y-13350490D02*
X3475967Y-13360014D01*
X3475967Y-13360014D02*
X3485490Y-13379062D01*
X3485490Y-13379062D02*
X3485490Y-13483824D01*
X3580729Y-13483824D02*
X3580729Y-13350490D01*
X3580729Y-13369538D02*
X3590252Y-13360014D01*
X3590252Y-13360014D02*
X3609300Y-13350490D01*
X3609300Y-13350490D02*
X3637871Y-13350490D01*
X3637871Y-13350490D02*
X3656919Y-13360014D01*
X3656919Y-13360014D02*
X3666443Y-13379062D01*
X3666443Y-13379062D02*
X3666443Y-13483824D01*
X3666443Y-13379062D02*
X3675967Y-13360014D01*
X3675967Y-13360014D02*
X3695014Y-13350490D01*
X3695014Y-13350490D02*
X3723586Y-13350490D01*
X3723586Y-13350490D02*
X3742633Y-13360014D01*
X3742633Y-13360014D02*
X3752157Y-13379062D01*
X3752157Y-13379062D02*
X3752157Y-13483824D01*
X4142633Y-13274300D02*
X3971205Y-13531443D01*
X4399776Y-13283824D02*
X4418824Y-13283824D01*
X4418824Y-13283824D02*
X4437872Y-13293348D01*
X4437872Y-13293348D02*
X4447395Y-13302871D01*
X4447395Y-13302871D02*
X4456919Y-13321919D01*
X4456919Y-13321919D02*
X4466443Y-13360014D01*
X4466443Y-13360014D02*
X4466443Y-13407633D01*
X4466443Y-13407633D02*
X4456919Y-13445728D01*
X4456919Y-13445728D02*
X4447395Y-13464776D01*
X4447395Y-13464776D02*
X4437872Y-13474300D01*
X4437872Y-13474300D02*
X4418824Y-13483824D01*
X4418824Y-13483824D02*
X4399776Y-13483824D01*
X4399776Y-13483824D02*
X4380729Y-13474300D01*
X4380729Y-13474300D02*
X4371205Y-13464776D01*
X4371205Y-13464776D02*
X4361681Y-13445728D01*
X4361681Y-13445728D02*
X4352157Y-13407633D01*
X4352157Y-13407633D02*
X4352157Y-13360014D01*
X4352157Y-13360014D02*
X4361681Y-13321919D01*
X4361681Y-13321919D02*
X4371205Y-13302871D01*
X4371205Y-13302871D02*
X4380729Y-13293348D01*
X4380729Y-13293348D02*
X4399776Y-13283824D01*
X4552157Y-13464776D02*
X4561681Y-13474300D01*
X4561681Y-13474300D02*
X4552157Y-13483824D01*
X4552157Y-13483824D02*
X4542634Y-13474300D01*
X4542634Y-13474300D02*
X4552157Y-13464776D01*
X4552157Y-13464776D02*
X4552157Y-13483824D01*
X4685491Y-13283824D02*
X4704538Y-13283824D01*
X4704538Y-13283824D02*
X4723586Y-13293348D01*
X4723586Y-13293348D02*
X4733110Y-13302871D01*
X4733110Y-13302871D02*
X4742634Y-13321919D01*
X4742634Y-13321919D02*
X4752157Y-13360014D01*
X4752157Y-13360014D02*
X4752157Y-13407633D01*
X4752157Y-13407633D02*
X4742634Y-13445728D01*
X4742634Y-13445728D02*
X4733110Y-13464776D01*
X4733110Y-13464776D02*
X4723586Y-13474300D01*
X4723586Y-13474300D02*
X4704538Y-13483824D01*
X4704538Y-13483824D02*
X4685491Y-13483824D01*
X4685491Y-13483824D02*
X4666443Y-13474300D01*
X4666443Y-13474300D02*
X4656919Y-13464776D01*
X4656919Y-13464776D02*
X4647395Y-13445728D01*
X4647395Y-13445728D02*
X4637872Y-13407633D01*
X4637872Y-13407633D02*
X4637872Y-13360014D01*
X4637872Y-13360014D02*
X4647395Y-13321919D01*
X4647395Y-13321919D02*
X4656919Y-13302871D01*
X4656919Y-13302871D02*
X4666443Y-13293348D01*
X4666443Y-13293348D02*
X4685491Y-13283824D01*
X4942634Y-13483824D02*
X4828348Y-13483824D01*
X4885491Y-13483824D02*
X4885491Y-13283824D01*
X4885491Y-13283824D02*
X4866443Y-13312395D01*
X4866443Y-13312395D02*
X4847395Y-13331443D01*
X4847395Y-13331443D02*
X4828348Y-13340967D01*
X5123586Y-13283824D02*
X5028348Y-13283824D01*
X5028348Y-13283824D02*
X5018824Y-13379062D01*
X5018824Y-13379062D02*
X5028348Y-13369538D01*
X5028348Y-13369538D02*
X5047395Y-13360014D01*
X5047395Y-13360014D02*
X5095015Y-13360014D01*
X5095015Y-13360014D02*
X5114062Y-13369538D01*
X5114062Y-13369538D02*
X5123586Y-13379062D01*
X5123586Y-13379062D02*
X5133110Y-13398109D01*
X5133110Y-13398109D02*
X5133110Y-13445728D01*
X5133110Y-13445728D02*
X5123586Y-13464776D01*
X5123586Y-13464776D02*
X5114062Y-13474300D01*
X5114062Y-13474300D02*
X5095015Y-13483824D01*
X5095015Y-13483824D02*
X5047395Y-13483824D01*
X5047395Y-13483824D02*
X5028348Y-13474300D01*
X5028348Y-13474300D02*
X5018824Y-13464776D01*
X5199776Y-13283824D02*
X5333110Y-13283824D01*
X5333110Y-13283824D02*
X5247395Y-13483824D01*
X5399776Y-13283824D02*
X5399776Y-13321919D01*
X5475967Y-13283824D02*
X5475967Y-13321919D01*
X5771205Y-13560014D02*
X5761681Y-13550490D01*
X5761681Y-13550490D02*
X5742634Y-13521919D01*
X5742634Y-13521919D02*
X5733110Y-13502871D01*
X5733110Y-13502871D02*
X5723586Y-13474300D01*
X5723586Y-13474300D02*
X5714062Y-13426681D01*
X5714062Y-13426681D02*
X5714062Y-13388586D01*
X5714062Y-13388586D02*
X5723586Y-13340967D01*
X5723586Y-13340967D02*
X5733110Y-13312395D01*
X5733110Y-13312395D02*
X5742634Y-13293348D01*
X5742634Y-13293348D02*
X5761681Y-13264776D01*
X5761681Y-13264776D02*
X5771205Y-13255252D01*
X5828348Y-13283824D02*
X5961681Y-13283824D01*
X5961681Y-13283824D02*
X5875967Y-13483824D01*
X6028348Y-13302871D02*
X6037872Y-13293348D01*
X6037872Y-13293348D02*
X6056919Y-13283824D01*
X6056919Y-13283824D02*
X6104538Y-13283824D01*
X6104538Y-13283824D02*
X6123586Y-13293348D01*
X6123586Y-13293348D02*
X6133110Y-13302871D01*
X6133110Y-13302871D02*
X6142634Y-13321919D01*
X6142634Y-13321919D02*
X6142634Y-13340967D01*
X6142634Y-13340967D02*
X6133110Y-13369538D01*
X6133110Y-13369538D02*
X6018824Y-13483824D01*
X6018824Y-13483824D02*
X6142634Y-13483824D01*
X6380729Y-13483824D02*
X6380729Y-13283824D01*
X6466443Y-13483824D02*
X6466443Y-13379062D01*
X6466443Y-13379062D02*
X6456919Y-13360014D01*
X6456919Y-13360014D02*
X6437872Y-13350490D01*
X6437872Y-13350490D02*
X6409300Y-13350490D01*
X6409300Y-13350490D02*
X6390253Y-13360014D01*
X6390253Y-13360014D02*
X6380729Y-13369538D01*
X6590253Y-13483824D02*
X6571205Y-13474300D01*
X6571205Y-13474300D02*
X6561681Y-13464776D01*
X6561681Y-13464776D02*
X6552157Y-13445728D01*
X6552157Y-13445728D02*
X6552157Y-13388586D01*
X6552157Y-13388586D02*
X6561681Y-13369538D01*
X6561681Y-13369538D02*
X6571205Y-13360014D01*
X6571205Y-13360014D02*
X6590253Y-13350490D01*
X6590253Y-13350490D02*
X6618824Y-13350490D01*
X6618824Y-13350490D02*
X6637872Y-13360014D01*
X6637872Y-13360014D02*
X6647396Y-13369538D01*
X6647396Y-13369538D02*
X6656919Y-13388586D01*
X6656919Y-13388586D02*
X6656919Y-13445728D01*
X6656919Y-13445728D02*
X6647396Y-13464776D01*
X6647396Y-13464776D02*
X6637872Y-13474300D01*
X6637872Y-13474300D02*
X6618824Y-13483824D01*
X6618824Y-13483824D02*
X6590253Y-13483824D01*
X6771205Y-13483824D02*
X6752157Y-13474300D01*
X6752157Y-13474300D02*
X6742634Y-13455252D01*
X6742634Y-13455252D02*
X6742634Y-13283824D01*
X6923586Y-13474300D02*
X6904538Y-13483824D01*
X6904538Y-13483824D02*
X6866443Y-13483824D01*
X6866443Y-13483824D02*
X6847396Y-13474300D01*
X6847396Y-13474300D02*
X6837872Y-13455252D01*
X6837872Y-13455252D02*
X6837872Y-13379062D01*
X6837872Y-13379062D02*
X6847396Y-13360014D01*
X6847396Y-13360014D02*
X6866443Y-13350490D01*
X6866443Y-13350490D02*
X6904538Y-13350490D01*
X6904538Y-13350490D02*
X6923586Y-13360014D01*
X6923586Y-13360014D02*
X6933110Y-13379062D01*
X6933110Y-13379062D02*
X6933110Y-13398109D01*
X6933110Y-13398109D02*
X6837872Y-13417157D01*
X7009300Y-13474300D02*
X7028348Y-13483824D01*
X7028348Y-13483824D02*
X7066443Y-13483824D01*
X7066443Y-13483824D02*
X7085491Y-13474300D01*
X7085491Y-13474300D02*
X7095015Y-13455252D01*
X7095015Y-13455252D02*
X7095015Y-13445728D01*
X7095015Y-13445728D02*
X7085491Y-13426681D01*
X7085491Y-13426681D02*
X7066443Y-13417157D01*
X7066443Y-13417157D02*
X7037872Y-13417157D01*
X7037872Y-13417157D02*
X7018824Y-13407633D01*
X7018824Y-13407633D02*
X7009300Y-13388586D01*
X7009300Y-13388586D02*
X7009300Y-13379062D01*
X7009300Y-13379062D02*
X7018824Y-13360014D01*
X7018824Y-13360014D02*
X7037872Y-13350490D01*
X7037872Y-13350490D02*
X7066443Y-13350490D01*
X7066443Y-13350490D02*
X7085491Y-13360014D01*
X7161681Y-13560014D02*
X7171205Y-13550490D01*
X7171205Y-13550490D02*
X7190253Y-13521919D01*
X7190253Y-13521919D02*
X7199777Y-13502871D01*
X7199777Y-13502871D02*
X7209300Y-13474300D01*
X7209300Y-13474300D02*
X7218824Y-13426681D01*
X7218824Y-13426681D02*
X7218824Y-13388586D01*
X7218824Y-13388586D02*
X7209300Y-13340967D01*
X7209300Y-13340967D02*
X7199777Y-13312395D01*
X7199777Y-13312395D02*
X7190253Y-13293348D01*
X7190253Y-13293348D02*
X7171205Y-13264776D01*
X7171205Y-13264776D02*
X7161681Y-13255252D01*
D12*
X2209300Y-13655300D02*
G75*
G03*
X2209300Y-13655300I-20000J0D01*
G01*
D11*
X2495014Y-13547824D02*
X2514062Y-13547824D01*
X2514062Y-13547824D02*
X2533110Y-13557348D01*
X2533110Y-13557348D02*
X2542633Y-13566871D01*
X2542633Y-13566871D02*
X2552157Y-13585919D01*
X2552157Y-13585919D02*
X2561681Y-13624014D01*
X2561681Y-13624014D02*
X2561681Y-13671633D01*
X2561681Y-13671633D02*
X2552157Y-13709728D01*
X2552157Y-13709728D02*
X2542633Y-13728776D01*
X2542633Y-13728776D02*
X2533110Y-13738300D01*
X2533110Y-13738300D02*
X2514062Y-13747824D01*
X2514062Y-13747824D02*
X2495014Y-13747824D01*
X2495014Y-13747824D02*
X2475967Y-13738300D01*
X2475967Y-13738300D02*
X2466443Y-13728776D01*
X2466443Y-13728776D02*
X2456919Y-13709728D01*
X2456919Y-13709728D02*
X2447395Y-13671633D01*
X2447395Y-13671633D02*
X2447395Y-13624014D01*
X2447395Y-13624014D02*
X2456919Y-13585919D01*
X2456919Y-13585919D02*
X2466443Y-13566871D01*
X2466443Y-13566871D02*
X2475967Y-13557348D01*
X2475967Y-13557348D02*
X2495014Y-13547824D01*
X2647395Y-13728776D02*
X2656919Y-13738300D01*
X2656919Y-13738300D02*
X2647395Y-13747824D01*
X2647395Y-13747824D02*
X2637871Y-13738300D01*
X2637871Y-13738300D02*
X2647395Y-13728776D01*
X2647395Y-13728776D02*
X2647395Y-13747824D01*
X2828348Y-13614490D02*
X2828348Y-13747824D01*
X2780729Y-13538300D02*
X2733110Y-13681157D01*
X2733110Y-13681157D02*
X2856919Y-13681157D01*
X2971205Y-13547824D02*
X2990252Y-13547824D01*
X2990252Y-13547824D02*
X3009300Y-13557348D01*
X3009300Y-13557348D02*
X3018824Y-13566871D01*
X3018824Y-13566871D02*
X3028348Y-13585919D01*
X3028348Y-13585919D02*
X3037871Y-13624014D01*
X3037871Y-13624014D02*
X3037871Y-13671633D01*
X3037871Y-13671633D02*
X3028348Y-13709728D01*
X3028348Y-13709728D02*
X3018824Y-13728776D01*
X3018824Y-13728776D02*
X3009300Y-13738300D01*
X3009300Y-13738300D02*
X2990252Y-13747824D01*
X2990252Y-13747824D02*
X2971205Y-13747824D01*
X2971205Y-13747824D02*
X2952157Y-13738300D01*
X2952157Y-13738300D02*
X2942633Y-13728776D01*
X2942633Y-13728776D02*
X2933109Y-13709728D01*
X2933109Y-13709728D02*
X2923586Y-13671633D01*
X2923586Y-13671633D02*
X2923586Y-13624014D01*
X2923586Y-13624014D02*
X2933109Y-13585919D01*
X2933109Y-13585919D02*
X2942633Y-13566871D01*
X2942633Y-13566871D02*
X2952157Y-13557348D01*
X2952157Y-13557348D02*
X2971205Y-13547824D01*
X3161681Y-13547824D02*
X3180729Y-13547824D01*
X3180729Y-13547824D02*
X3199776Y-13557348D01*
X3199776Y-13557348D02*
X3209300Y-13566871D01*
X3209300Y-13566871D02*
X3218824Y-13585919D01*
X3218824Y-13585919D02*
X3228348Y-13624014D01*
X3228348Y-13624014D02*
X3228348Y-13671633D01*
X3228348Y-13671633D02*
X3218824Y-13709728D01*
X3218824Y-13709728D02*
X3209300Y-13728776D01*
X3209300Y-13728776D02*
X3199776Y-13738300D01*
X3199776Y-13738300D02*
X3180729Y-13747824D01*
X3180729Y-13747824D02*
X3161681Y-13747824D01*
X3161681Y-13747824D02*
X3142633Y-13738300D01*
X3142633Y-13738300D02*
X3133109Y-13728776D01*
X3133109Y-13728776D02*
X3123586Y-13709728D01*
X3123586Y-13709728D02*
X3114062Y-13671633D01*
X3114062Y-13671633D02*
X3114062Y-13624014D01*
X3114062Y-13624014D02*
X3123586Y-13585919D01*
X3123586Y-13585919D02*
X3133109Y-13566871D01*
X3133109Y-13566871D02*
X3142633Y-13557348D01*
X3142633Y-13557348D02*
X3161681Y-13547824D01*
X3314062Y-13747824D02*
X3314062Y-13614490D01*
X3314062Y-13633538D02*
X3323586Y-13624014D01*
X3323586Y-13624014D02*
X3342633Y-13614490D01*
X3342633Y-13614490D02*
X3371205Y-13614490D01*
X3371205Y-13614490D02*
X3390252Y-13624014D01*
X3390252Y-13624014D02*
X3399776Y-13643062D01*
X3399776Y-13643062D02*
X3399776Y-13747824D01*
X3399776Y-13643062D02*
X3409300Y-13624014D01*
X3409300Y-13624014D02*
X3428348Y-13614490D01*
X3428348Y-13614490D02*
X3456919Y-13614490D01*
X3456919Y-13614490D02*
X3475967Y-13624014D01*
X3475967Y-13624014D02*
X3485490Y-13643062D01*
X3485490Y-13643062D02*
X3485490Y-13747824D01*
X3580729Y-13747824D02*
X3580729Y-13614490D01*
X3580729Y-13633538D02*
X3590252Y-13624014D01*
X3590252Y-13624014D02*
X3609300Y-13614490D01*
X3609300Y-13614490D02*
X3637871Y-13614490D01*
X3637871Y-13614490D02*
X3656919Y-13624014D01*
X3656919Y-13624014D02*
X3666443Y-13643062D01*
X3666443Y-13643062D02*
X3666443Y-13747824D01*
X3666443Y-13643062D02*
X3675967Y-13624014D01*
X3675967Y-13624014D02*
X3695014Y-13614490D01*
X3695014Y-13614490D02*
X3723586Y-13614490D01*
X3723586Y-13614490D02*
X3742633Y-13624014D01*
X3742633Y-13624014D02*
X3752157Y-13643062D01*
X3752157Y-13643062D02*
X3752157Y-13747824D01*
X4142633Y-13538300D02*
X3971205Y-13795443D01*
X4399776Y-13547824D02*
X4418824Y-13547824D01*
X4418824Y-13547824D02*
X4437872Y-13557348D01*
X4437872Y-13557348D02*
X4447395Y-13566871D01*
X4447395Y-13566871D02*
X4456919Y-13585919D01*
X4456919Y-13585919D02*
X4466443Y-13624014D01*
X4466443Y-13624014D02*
X4466443Y-13671633D01*
X4466443Y-13671633D02*
X4456919Y-13709728D01*
X4456919Y-13709728D02*
X4447395Y-13728776D01*
X4447395Y-13728776D02*
X4437872Y-13738300D01*
X4437872Y-13738300D02*
X4418824Y-13747824D01*
X4418824Y-13747824D02*
X4399776Y-13747824D01*
X4399776Y-13747824D02*
X4380729Y-13738300D01*
X4380729Y-13738300D02*
X4371205Y-13728776D01*
X4371205Y-13728776D02*
X4361681Y-13709728D01*
X4361681Y-13709728D02*
X4352157Y-13671633D01*
X4352157Y-13671633D02*
X4352157Y-13624014D01*
X4352157Y-13624014D02*
X4361681Y-13585919D01*
X4361681Y-13585919D02*
X4371205Y-13566871D01*
X4371205Y-13566871D02*
X4380729Y-13557348D01*
X4380729Y-13557348D02*
X4399776Y-13547824D01*
X4552157Y-13728776D02*
X4561681Y-13738300D01*
X4561681Y-13738300D02*
X4552157Y-13747824D01*
X4552157Y-13747824D02*
X4542634Y-13738300D01*
X4542634Y-13738300D02*
X4552157Y-13728776D01*
X4552157Y-13728776D02*
X4552157Y-13747824D01*
X4685491Y-13547824D02*
X4704538Y-13547824D01*
X4704538Y-13547824D02*
X4723586Y-13557348D01*
X4723586Y-13557348D02*
X4733110Y-13566871D01*
X4733110Y-13566871D02*
X4742634Y-13585919D01*
X4742634Y-13585919D02*
X4752157Y-13624014D01*
X4752157Y-13624014D02*
X4752157Y-13671633D01*
X4752157Y-13671633D02*
X4742634Y-13709728D01*
X4742634Y-13709728D02*
X4733110Y-13728776D01*
X4733110Y-13728776D02*
X4723586Y-13738300D01*
X4723586Y-13738300D02*
X4704538Y-13747824D01*
X4704538Y-13747824D02*
X4685491Y-13747824D01*
X4685491Y-13747824D02*
X4666443Y-13738300D01*
X4666443Y-13738300D02*
X4656919Y-13728776D01*
X4656919Y-13728776D02*
X4647395Y-13709728D01*
X4647395Y-13709728D02*
X4637872Y-13671633D01*
X4637872Y-13671633D02*
X4637872Y-13624014D01*
X4637872Y-13624014D02*
X4647395Y-13585919D01*
X4647395Y-13585919D02*
X4656919Y-13566871D01*
X4656919Y-13566871D02*
X4666443Y-13557348D01*
X4666443Y-13557348D02*
X4685491Y-13547824D01*
X4942634Y-13747824D02*
X4828348Y-13747824D01*
X4885491Y-13747824D02*
X4885491Y-13547824D01*
X4885491Y-13547824D02*
X4866443Y-13576395D01*
X4866443Y-13576395D02*
X4847395Y-13595443D01*
X4847395Y-13595443D02*
X4828348Y-13604967D01*
X5123586Y-13547824D02*
X5028348Y-13547824D01*
X5028348Y-13547824D02*
X5018824Y-13643062D01*
X5018824Y-13643062D02*
X5028348Y-13633538D01*
X5028348Y-13633538D02*
X5047395Y-13624014D01*
X5047395Y-13624014D02*
X5095015Y-13624014D01*
X5095015Y-13624014D02*
X5114062Y-13633538D01*
X5114062Y-13633538D02*
X5123586Y-13643062D01*
X5123586Y-13643062D02*
X5133110Y-13662109D01*
X5133110Y-13662109D02*
X5133110Y-13709728D01*
X5133110Y-13709728D02*
X5123586Y-13728776D01*
X5123586Y-13728776D02*
X5114062Y-13738300D01*
X5114062Y-13738300D02*
X5095015Y-13747824D01*
X5095015Y-13747824D02*
X5047395Y-13747824D01*
X5047395Y-13747824D02*
X5028348Y-13738300D01*
X5028348Y-13738300D02*
X5018824Y-13728776D01*
X5199776Y-13547824D02*
X5333110Y-13547824D01*
X5333110Y-13547824D02*
X5247395Y-13747824D01*
X5399776Y-13547824D02*
X5399776Y-13585919D01*
X5475967Y-13547824D02*
X5475967Y-13585919D01*
X5771205Y-13824014D02*
X5761681Y-13814490D01*
X5761681Y-13814490D02*
X5742634Y-13785919D01*
X5742634Y-13785919D02*
X5733110Y-13766871D01*
X5733110Y-13766871D02*
X5723586Y-13738300D01*
X5723586Y-13738300D02*
X5714062Y-13690681D01*
X5714062Y-13690681D02*
X5714062Y-13652586D01*
X5714062Y-13652586D02*
X5723586Y-13604967D01*
X5723586Y-13604967D02*
X5733110Y-13576395D01*
X5733110Y-13576395D02*
X5742634Y-13557348D01*
X5742634Y-13557348D02*
X5761681Y-13528776D01*
X5761681Y-13528776D02*
X5771205Y-13519252D01*
X5952157Y-13747824D02*
X5837872Y-13747824D01*
X5895014Y-13747824D02*
X5895014Y-13547824D01*
X5895014Y-13547824D02*
X5875967Y-13576395D01*
X5875967Y-13576395D02*
X5856919Y-13595443D01*
X5856919Y-13595443D02*
X5837872Y-13604967D01*
X6123586Y-13547824D02*
X6085491Y-13547824D01*
X6085491Y-13547824D02*
X6066443Y-13557348D01*
X6066443Y-13557348D02*
X6056919Y-13566871D01*
X6056919Y-13566871D02*
X6037872Y-13595443D01*
X6037872Y-13595443D02*
X6028348Y-13633538D01*
X6028348Y-13633538D02*
X6028348Y-13709728D01*
X6028348Y-13709728D02*
X6037872Y-13728776D01*
X6037872Y-13728776D02*
X6047395Y-13738300D01*
X6047395Y-13738300D02*
X6066443Y-13747824D01*
X6066443Y-13747824D02*
X6104538Y-13747824D01*
X6104538Y-13747824D02*
X6123586Y-13738300D01*
X6123586Y-13738300D02*
X6133110Y-13728776D01*
X6133110Y-13728776D02*
X6142634Y-13709728D01*
X6142634Y-13709728D02*
X6142634Y-13662109D01*
X6142634Y-13662109D02*
X6133110Y-13643062D01*
X6133110Y-13643062D02*
X6123586Y-13633538D01*
X6123586Y-13633538D02*
X6104538Y-13624014D01*
X6104538Y-13624014D02*
X6066443Y-13624014D01*
X6066443Y-13624014D02*
X6047395Y-13633538D01*
X6047395Y-13633538D02*
X6037872Y-13643062D01*
X6037872Y-13643062D02*
X6028348Y-13662109D01*
X6380729Y-13747824D02*
X6380729Y-13547824D01*
X6466443Y-13747824D02*
X6466443Y-13643062D01*
X6466443Y-13643062D02*
X6456919Y-13624014D01*
X6456919Y-13624014D02*
X6437872Y-13614490D01*
X6437872Y-13614490D02*
X6409300Y-13614490D01*
X6409300Y-13614490D02*
X6390253Y-13624014D01*
X6390253Y-13624014D02*
X6380729Y-13633538D01*
X6590253Y-13747824D02*
X6571205Y-13738300D01*
X6571205Y-13738300D02*
X6561681Y-13728776D01*
X6561681Y-13728776D02*
X6552157Y-13709728D01*
X6552157Y-13709728D02*
X6552157Y-13652586D01*
X6552157Y-13652586D02*
X6561681Y-13633538D01*
X6561681Y-13633538D02*
X6571205Y-13624014D01*
X6571205Y-13624014D02*
X6590253Y-13614490D01*
X6590253Y-13614490D02*
X6618824Y-13614490D01*
X6618824Y-13614490D02*
X6637872Y-13624014D01*
X6637872Y-13624014D02*
X6647396Y-13633538D01*
X6647396Y-13633538D02*
X6656919Y-13652586D01*
X6656919Y-13652586D02*
X6656919Y-13709728D01*
X6656919Y-13709728D02*
X6647396Y-13728776D01*
X6647396Y-13728776D02*
X6637872Y-13738300D01*
X6637872Y-13738300D02*
X6618824Y-13747824D01*
X6618824Y-13747824D02*
X6590253Y-13747824D01*
X6771205Y-13747824D02*
X6752157Y-13738300D01*
X6752157Y-13738300D02*
X6742634Y-13719252D01*
X6742634Y-13719252D02*
X6742634Y-13547824D01*
X6923586Y-13738300D02*
X6904538Y-13747824D01*
X6904538Y-13747824D02*
X6866443Y-13747824D01*
X6866443Y-13747824D02*
X6847396Y-13738300D01*
X6847396Y-13738300D02*
X6837872Y-13719252D01*
X6837872Y-13719252D02*
X6837872Y-13643062D01*
X6837872Y-13643062D02*
X6847396Y-13624014D01*
X6847396Y-13624014D02*
X6866443Y-13614490D01*
X6866443Y-13614490D02*
X6904538Y-13614490D01*
X6904538Y-13614490D02*
X6923586Y-13624014D01*
X6923586Y-13624014D02*
X6933110Y-13643062D01*
X6933110Y-13643062D02*
X6933110Y-13662109D01*
X6933110Y-13662109D02*
X6837872Y-13681157D01*
X7009300Y-13738300D02*
X7028348Y-13747824D01*
X7028348Y-13747824D02*
X7066443Y-13747824D01*
X7066443Y-13747824D02*
X7085491Y-13738300D01*
X7085491Y-13738300D02*
X7095015Y-13719252D01*
X7095015Y-13719252D02*
X7095015Y-13709728D01*
X7095015Y-13709728D02*
X7085491Y-13690681D01*
X7085491Y-13690681D02*
X7066443Y-13681157D01*
X7066443Y-13681157D02*
X7037872Y-13681157D01*
X7037872Y-13681157D02*
X7018824Y-13671633D01*
X7018824Y-13671633D02*
X7009300Y-13652586D01*
X7009300Y-13652586D02*
X7009300Y-13643062D01*
X7009300Y-13643062D02*
X7018824Y-13624014D01*
X7018824Y-13624014D02*
X7037872Y-13614490D01*
X7037872Y-13614490D02*
X7066443Y-13614490D01*
X7066443Y-13614490D02*
X7085491Y-13624014D01*
X7161681Y-13824014D02*
X7171205Y-13814490D01*
X7171205Y-13814490D02*
X7190253Y-13785919D01*
X7190253Y-13785919D02*
X7199777Y-13766871D01*
X7199777Y-13766871D02*
X7209300Y-13738300D01*
X7209300Y-13738300D02*
X7218824Y-13690681D01*
X7218824Y-13690681D02*
X7218824Y-13652586D01*
X7218824Y-13652586D02*
X7209300Y-13604967D01*
X7209300Y-13604967D02*
X7199777Y-13576395D01*
X7199777Y-13576395D02*
X7190253Y-13557348D01*
X7190253Y-13557348D02*
X7171205Y-13528776D01*
X7171205Y-13528776D02*
X7161681Y-13519252D01*
D13*
X2184300Y-13894300D02*
X2184300Y-13944300D01*
X2159300Y-13919300D02*
X2209300Y-13919300D01*
D11*
X2495014Y-13811824D02*
X2514062Y-13811824D01*
X2514062Y-13811824D02*
X2533110Y-13821348D01*
X2533110Y-13821348D02*
X2542633Y-13830871D01*
X2542633Y-13830871D02*
X2552157Y-13849919D01*
X2552157Y-13849919D02*
X2561681Y-13888014D01*
X2561681Y-13888014D02*
X2561681Y-13935633D01*
X2561681Y-13935633D02*
X2552157Y-13973728D01*
X2552157Y-13973728D02*
X2542633Y-13992776D01*
X2542633Y-13992776D02*
X2533110Y-14002300D01*
X2533110Y-14002300D02*
X2514062Y-14011824D01*
X2514062Y-14011824D02*
X2495014Y-14011824D01*
X2495014Y-14011824D02*
X2475967Y-14002300D01*
X2475967Y-14002300D02*
X2466443Y-13992776D01*
X2466443Y-13992776D02*
X2456919Y-13973728D01*
X2456919Y-13973728D02*
X2447395Y-13935633D01*
X2447395Y-13935633D02*
X2447395Y-13888014D01*
X2447395Y-13888014D02*
X2456919Y-13849919D01*
X2456919Y-13849919D02*
X2466443Y-13830871D01*
X2466443Y-13830871D02*
X2475967Y-13821348D01*
X2475967Y-13821348D02*
X2495014Y-13811824D01*
X2647395Y-13992776D02*
X2656919Y-14002300D01*
X2656919Y-14002300D02*
X2647395Y-14011824D01*
X2647395Y-14011824D02*
X2637871Y-14002300D01*
X2637871Y-14002300D02*
X2647395Y-13992776D01*
X2647395Y-13992776D02*
X2647395Y-14011824D01*
X2837871Y-13811824D02*
X2742633Y-13811824D01*
X2742633Y-13811824D02*
X2733110Y-13907062D01*
X2733110Y-13907062D02*
X2742633Y-13897538D01*
X2742633Y-13897538D02*
X2761681Y-13888014D01*
X2761681Y-13888014D02*
X2809300Y-13888014D01*
X2809300Y-13888014D02*
X2828348Y-13897538D01*
X2828348Y-13897538D02*
X2837871Y-13907062D01*
X2837871Y-13907062D02*
X2847395Y-13926109D01*
X2847395Y-13926109D02*
X2847395Y-13973728D01*
X2847395Y-13973728D02*
X2837871Y-13992776D01*
X2837871Y-13992776D02*
X2828348Y-14002300D01*
X2828348Y-14002300D02*
X2809300Y-14011824D01*
X2809300Y-14011824D02*
X2761681Y-14011824D01*
X2761681Y-14011824D02*
X2742633Y-14002300D01*
X2742633Y-14002300D02*
X2733110Y-13992776D01*
X2971205Y-13811824D02*
X2990252Y-13811824D01*
X2990252Y-13811824D02*
X3009300Y-13821348D01*
X3009300Y-13821348D02*
X3018824Y-13830871D01*
X3018824Y-13830871D02*
X3028348Y-13849919D01*
X3028348Y-13849919D02*
X3037871Y-13888014D01*
X3037871Y-13888014D02*
X3037871Y-13935633D01*
X3037871Y-13935633D02*
X3028348Y-13973728D01*
X3028348Y-13973728D02*
X3018824Y-13992776D01*
X3018824Y-13992776D02*
X3009300Y-14002300D01*
X3009300Y-14002300D02*
X2990252Y-14011824D01*
X2990252Y-14011824D02*
X2971205Y-14011824D01*
X2971205Y-14011824D02*
X2952157Y-14002300D01*
X2952157Y-14002300D02*
X2942633Y-13992776D01*
X2942633Y-13992776D02*
X2933109Y-13973728D01*
X2933109Y-13973728D02*
X2923586Y-13935633D01*
X2923586Y-13935633D02*
X2923586Y-13888014D01*
X2923586Y-13888014D02*
X2933109Y-13849919D01*
X2933109Y-13849919D02*
X2942633Y-13830871D01*
X2942633Y-13830871D02*
X2952157Y-13821348D01*
X2952157Y-13821348D02*
X2971205Y-13811824D01*
X3161681Y-13811824D02*
X3180729Y-13811824D01*
X3180729Y-13811824D02*
X3199776Y-13821348D01*
X3199776Y-13821348D02*
X3209300Y-13830871D01*
X3209300Y-13830871D02*
X3218824Y-13849919D01*
X3218824Y-13849919D02*
X3228348Y-13888014D01*
X3228348Y-13888014D02*
X3228348Y-13935633D01*
X3228348Y-13935633D02*
X3218824Y-13973728D01*
X3218824Y-13973728D02*
X3209300Y-13992776D01*
X3209300Y-13992776D02*
X3199776Y-14002300D01*
X3199776Y-14002300D02*
X3180729Y-14011824D01*
X3180729Y-14011824D02*
X3161681Y-14011824D01*
X3161681Y-14011824D02*
X3142633Y-14002300D01*
X3142633Y-14002300D02*
X3133109Y-13992776D01*
X3133109Y-13992776D02*
X3123586Y-13973728D01*
X3123586Y-13973728D02*
X3114062Y-13935633D01*
X3114062Y-13935633D02*
X3114062Y-13888014D01*
X3114062Y-13888014D02*
X3123586Y-13849919D01*
X3123586Y-13849919D02*
X3133109Y-13830871D01*
X3133109Y-13830871D02*
X3142633Y-13821348D01*
X3142633Y-13821348D02*
X3161681Y-13811824D01*
X3314062Y-14011824D02*
X3314062Y-13878490D01*
X3314062Y-13897538D02*
X3323586Y-13888014D01*
X3323586Y-13888014D02*
X3342633Y-13878490D01*
X3342633Y-13878490D02*
X3371205Y-13878490D01*
X3371205Y-13878490D02*
X3390252Y-13888014D01*
X3390252Y-13888014D02*
X3399776Y-13907062D01*
X3399776Y-13907062D02*
X3399776Y-14011824D01*
X3399776Y-13907062D02*
X3409300Y-13888014D01*
X3409300Y-13888014D02*
X3428348Y-13878490D01*
X3428348Y-13878490D02*
X3456919Y-13878490D01*
X3456919Y-13878490D02*
X3475967Y-13888014D01*
X3475967Y-13888014D02*
X3485490Y-13907062D01*
X3485490Y-13907062D02*
X3485490Y-14011824D01*
X3580729Y-14011824D02*
X3580729Y-13878490D01*
X3580729Y-13897538D02*
X3590252Y-13888014D01*
X3590252Y-13888014D02*
X3609300Y-13878490D01*
X3609300Y-13878490D02*
X3637871Y-13878490D01*
X3637871Y-13878490D02*
X3656919Y-13888014D01*
X3656919Y-13888014D02*
X3666443Y-13907062D01*
X3666443Y-13907062D02*
X3666443Y-14011824D01*
X3666443Y-13907062D02*
X3675967Y-13888014D01*
X3675967Y-13888014D02*
X3695014Y-13878490D01*
X3695014Y-13878490D02*
X3723586Y-13878490D01*
X3723586Y-13878490D02*
X3742633Y-13888014D01*
X3742633Y-13888014D02*
X3752157Y-13907062D01*
X3752157Y-13907062D02*
X3752157Y-14011824D01*
X4142633Y-13802300D02*
X3971205Y-14059443D01*
X4399776Y-13811824D02*
X4418824Y-13811824D01*
X4418824Y-13811824D02*
X4437872Y-13821348D01*
X4437872Y-13821348D02*
X4447395Y-13830871D01*
X4447395Y-13830871D02*
X4456919Y-13849919D01*
X4456919Y-13849919D02*
X4466443Y-13888014D01*
X4466443Y-13888014D02*
X4466443Y-13935633D01*
X4466443Y-13935633D02*
X4456919Y-13973728D01*
X4456919Y-13973728D02*
X4447395Y-13992776D01*
X4447395Y-13992776D02*
X4437872Y-14002300D01*
X4437872Y-14002300D02*
X4418824Y-14011824D01*
X4418824Y-14011824D02*
X4399776Y-14011824D01*
X4399776Y-14011824D02*
X4380729Y-14002300D01*
X4380729Y-14002300D02*
X4371205Y-13992776D01*
X4371205Y-13992776D02*
X4361681Y-13973728D01*
X4361681Y-13973728D02*
X4352157Y-13935633D01*
X4352157Y-13935633D02*
X4352157Y-13888014D01*
X4352157Y-13888014D02*
X4361681Y-13849919D01*
X4361681Y-13849919D02*
X4371205Y-13830871D01*
X4371205Y-13830871D02*
X4380729Y-13821348D01*
X4380729Y-13821348D02*
X4399776Y-13811824D01*
X4552157Y-13992776D02*
X4561681Y-14002300D01*
X4561681Y-14002300D02*
X4552157Y-14011824D01*
X4552157Y-14011824D02*
X4542634Y-14002300D01*
X4542634Y-14002300D02*
X4552157Y-13992776D01*
X4552157Y-13992776D02*
X4552157Y-14011824D01*
X4685491Y-13811824D02*
X4704538Y-13811824D01*
X4704538Y-13811824D02*
X4723586Y-13821348D01*
X4723586Y-13821348D02*
X4733110Y-13830871D01*
X4733110Y-13830871D02*
X4742634Y-13849919D01*
X4742634Y-13849919D02*
X4752157Y-13888014D01*
X4752157Y-13888014D02*
X4752157Y-13935633D01*
X4752157Y-13935633D02*
X4742634Y-13973728D01*
X4742634Y-13973728D02*
X4733110Y-13992776D01*
X4733110Y-13992776D02*
X4723586Y-14002300D01*
X4723586Y-14002300D02*
X4704538Y-14011824D01*
X4704538Y-14011824D02*
X4685491Y-14011824D01*
X4685491Y-14011824D02*
X4666443Y-14002300D01*
X4666443Y-14002300D02*
X4656919Y-13992776D01*
X4656919Y-13992776D02*
X4647395Y-13973728D01*
X4647395Y-13973728D02*
X4637872Y-13935633D01*
X4637872Y-13935633D02*
X4637872Y-13888014D01*
X4637872Y-13888014D02*
X4647395Y-13849919D01*
X4647395Y-13849919D02*
X4656919Y-13830871D01*
X4656919Y-13830871D02*
X4666443Y-13821348D01*
X4666443Y-13821348D02*
X4685491Y-13811824D01*
X4942634Y-14011824D02*
X4828348Y-14011824D01*
X4885491Y-14011824D02*
X4885491Y-13811824D01*
X4885491Y-13811824D02*
X4866443Y-13840395D01*
X4866443Y-13840395D02*
X4847395Y-13859443D01*
X4847395Y-13859443D02*
X4828348Y-13868967D01*
X5037872Y-14011824D02*
X5075967Y-14011824D01*
X5075967Y-14011824D02*
X5095015Y-14002300D01*
X5095015Y-14002300D02*
X5104538Y-13992776D01*
X5104538Y-13992776D02*
X5123586Y-13964205D01*
X5123586Y-13964205D02*
X5133110Y-13926109D01*
X5133110Y-13926109D02*
X5133110Y-13849919D01*
X5133110Y-13849919D02*
X5123586Y-13830871D01*
X5123586Y-13830871D02*
X5114062Y-13821348D01*
X5114062Y-13821348D02*
X5095015Y-13811824D01*
X5095015Y-13811824D02*
X5056919Y-13811824D01*
X5056919Y-13811824D02*
X5037872Y-13821348D01*
X5037872Y-13821348D02*
X5028348Y-13830871D01*
X5028348Y-13830871D02*
X5018824Y-13849919D01*
X5018824Y-13849919D02*
X5018824Y-13897538D01*
X5018824Y-13897538D02*
X5028348Y-13916586D01*
X5028348Y-13916586D02*
X5037872Y-13926109D01*
X5037872Y-13926109D02*
X5056919Y-13935633D01*
X5056919Y-13935633D02*
X5095015Y-13935633D01*
X5095015Y-13935633D02*
X5114062Y-13926109D01*
X5114062Y-13926109D02*
X5123586Y-13916586D01*
X5123586Y-13916586D02*
X5133110Y-13897538D01*
X5199776Y-13811824D02*
X5333110Y-13811824D01*
X5333110Y-13811824D02*
X5247395Y-14011824D01*
X5399776Y-13811824D02*
X5399776Y-13849919D01*
X5475967Y-13811824D02*
X5475967Y-13849919D01*
X5771205Y-14088014D02*
X5761681Y-14078490D01*
X5761681Y-14078490D02*
X5742634Y-14049919D01*
X5742634Y-14049919D02*
X5733110Y-14030871D01*
X5733110Y-14030871D02*
X5723586Y-14002300D01*
X5723586Y-14002300D02*
X5714062Y-13954681D01*
X5714062Y-13954681D02*
X5714062Y-13916586D01*
X5714062Y-13916586D02*
X5723586Y-13868967D01*
X5723586Y-13868967D02*
X5733110Y-13840395D01*
X5733110Y-13840395D02*
X5742634Y-13821348D01*
X5742634Y-13821348D02*
X5761681Y-13792776D01*
X5761681Y-13792776D02*
X5771205Y-13783252D01*
X5837872Y-13830871D02*
X5847395Y-13821348D01*
X5847395Y-13821348D02*
X5866443Y-13811824D01*
X5866443Y-13811824D02*
X5914062Y-13811824D01*
X5914062Y-13811824D02*
X5933110Y-13821348D01*
X5933110Y-13821348D02*
X5942634Y-13830871D01*
X5942634Y-13830871D02*
X5952157Y-13849919D01*
X5952157Y-13849919D02*
X5952157Y-13868967D01*
X5952157Y-13868967D02*
X5942634Y-13897538D01*
X5942634Y-13897538D02*
X5828348Y-14011824D01*
X5828348Y-14011824D02*
X5952157Y-14011824D01*
X6190253Y-14011824D02*
X6190253Y-13811824D01*
X6275967Y-14011824D02*
X6275967Y-13907062D01*
X6275967Y-13907062D02*
X6266443Y-13888014D01*
X6266443Y-13888014D02*
X6247396Y-13878490D01*
X6247396Y-13878490D02*
X6218824Y-13878490D01*
X6218824Y-13878490D02*
X6199776Y-13888014D01*
X6199776Y-13888014D02*
X6190253Y-13897538D01*
X6399776Y-14011824D02*
X6380729Y-14002300D01*
X6380729Y-14002300D02*
X6371205Y-13992776D01*
X6371205Y-13992776D02*
X6361681Y-13973728D01*
X6361681Y-13973728D02*
X6361681Y-13916586D01*
X6361681Y-13916586D02*
X6371205Y-13897538D01*
X6371205Y-13897538D02*
X6380729Y-13888014D01*
X6380729Y-13888014D02*
X6399776Y-13878490D01*
X6399776Y-13878490D02*
X6428348Y-13878490D01*
X6428348Y-13878490D02*
X6447396Y-13888014D01*
X6447396Y-13888014D02*
X6456919Y-13897538D01*
X6456919Y-13897538D02*
X6466443Y-13916586D01*
X6466443Y-13916586D02*
X6466443Y-13973728D01*
X6466443Y-13973728D02*
X6456919Y-13992776D01*
X6456919Y-13992776D02*
X6447396Y-14002300D01*
X6447396Y-14002300D02*
X6428348Y-14011824D01*
X6428348Y-14011824D02*
X6399776Y-14011824D01*
X6580729Y-14011824D02*
X6561681Y-14002300D01*
X6561681Y-14002300D02*
X6552157Y-13983252D01*
X6552157Y-13983252D02*
X6552157Y-13811824D01*
X6733110Y-14002300D02*
X6714062Y-14011824D01*
X6714062Y-14011824D02*
X6675967Y-14011824D01*
X6675967Y-14011824D02*
X6656919Y-14002300D01*
X6656919Y-14002300D02*
X6647396Y-13983252D01*
X6647396Y-13983252D02*
X6647396Y-13907062D01*
X6647396Y-13907062D02*
X6656919Y-13888014D01*
X6656919Y-13888014D02*
X6675967Y-13878490D01*
X6675967Y-13878490D02*
X6714062Y-13878490D01*
X6714062Y-13878490D02*
X6733110Y-13888014D01*
X6733110Y-13888014D02*
X6742634Y-13907062D01*
X6742634Y-13907062D02*
X6742634Y-13926109D01*
X6742634Y-13926109D02*
X6647396Y-13945157D01*
X6818824Y-14002300D02*
X6837872Y-14011824D01*
X6837872Y-14011824D02*
X6875967Y-14011824D01*
X6875967Y-14011824D02*
X6895015Y-14002300D01*
X6895015Y-14002300D02*
X6904538Y-13983252D01*
X6904538Y-13983252D02*
X6904538Y-13973728D01*
X6904538Y-13973728D02*
X6895015Y-13954681D01*
X6895015Y-13954681D02*
X6875967Y-13945157D01*
X6875967Y-13945157D02*
X6847396Y-13945157D01*
X6847396Y-13945157D02*
X6828348Y-13935633D01*
X6828348Y-13935633D02*
X6818824Y-13916586D01*
X6818824Y-13916586D02*
X6818824Y-13907062D01*
X6818824Y-13907062D02*
X6828348Y-13888014D01*
X6828348Y-13888014D02*
X6847396Y-13878490D01*
X6847396Y-13878490D02*
X6875967Y-13878490D01*
X6875967Y-13878490D02*
X6895015Y-13888014D01*
X6971205Y-14088014D02*
X6980729Y-14078490D01*
X6980729Y-14078490D02*
X6999777Y-14049919D01*
X6999777Y-14049919D02*
X7009300Y-14030871D01*
X7009300Y-14030871D02*
X7018824Y-14002300D01*
X7018824Y-14002300D02*
X7028348Y-13954681D01*
X7028348Y-13954681D02*
X7028348Y-13916586D01*
X7028348Y-13916586D02*
X7018824Y-13868967D01*
X7018824Y-13868967D02*
X7009300Y-13840395D01*
X7009300Y-13840395D02*
X6999777Y-13821348D01*
X6999777Y-13821348D02*
X6980729Y-13792776D01*
X6980729Y-13792776D02*
X6971205Y-13783252D01*
D14*
X2201246Y-14202746D02*
X2201246Y-14163854D01*
X2162354Y-14163854D01*
X2162354Y-14202746D01*
X2201246Y-14202746D01*
D11*
X2495014Y-14075824D02*
X2514062Y-14075824D01*
X2514062Y-14075824D02*
X2533110Y-14085348D01*
X2533110Y-14085348D02*
X2542633Y-14094871D01*
X2542633Y-14094871D02*
X2552157Y-14113919D01*
X2552157Y-14113919D02*
X2561681Y-14152014D01*
X2561681Y-14152014D02*
X2561681Y-14199633D01*
X2561681Y-14199633D02*
X2552157Y-14237728D01*
X2552157Y-14237728D02*
X2542633Y-14256776D01*
X2542633Y-14256776D02*
X2533110Y-14266300D01*
X2533110Y-14266300D02*
X2514062Y-14275824D01*
X2514062Y-14275824D02*
X2495014Y-14275824D01*
X2495014Y-14275824D02*
X2475967Y-14266300D01*
X2475967Y-14266300D02*
X2466443Y-14256776D01*
X2466443Y-14256776D02*
X2456919Y-14237728D01*
X2456919Y-14237728D02*
X2447395Y-14199633D01*
X2447395Y-14199633D02*
X2447395Y-14152014D01*
X2447395Y-14152014D02*
X2456919Y-14113919D01*
X2456919Y-14113919D02*
X2466443Y-14094871D01*
X2466443Y-14094871D02*
X2475967Y-14085348D01*
X2475967Y-14085348D02*
X2495014Y-14075824D01*
X2647395Y-14256776D02*
X2656919Y-14266300D01*
X2656919Y-14266300D02*
X2647395Y-14275824D01*
X2647395Y-14275824D02*
X2637871Y-14266300D01*
X2637871Y-14266300D02*
X2647395Y-14256776D01*
X2647395Y-14256776D02*
X2647395Y-14275824D01*
X2837871Y-14075824D02*
X2742633Y-14075824D01*
X2742633Y-14075824D02*
X2733110Y-14171062D01*
X2733110Y-14171062D02*
X2742633Y-14161538D01*
X2742633Y-14161538D02*
X2761681Y-14152014D01*
X2761681Y-14152014D02*
X2809300Y-14152014D01*
X2809300Y-14152014D02*
X2828348Y-14161538D01*
X2828348Y-14161538D02*
X2837871Y-14171062D01*
X2837871Y-14171062D02*
X2847395Y-14190109D01*
X2847395Y-14190109D02*
X2847395Y-14237728D01*
X2847395Y-14237728D02*
X2837871Y-14256776D01*
X2837871Y-14256776D02*
X2828348Y-14266300D01*
X2828348Y-14266300D02*
X2809300Y-14275824D01*
X2809300Y-14275824D02*
X2761681Y-14275824D01*
X2761681Y-14275824D02*
X2742633Y-14266300D01*
X2742633Y-14266300D02*
X2733110Y-14256776D01*
X3028348Y-14075824D02*
X2933109Y-14075824D01*
X2933109Y-14075824D02*
X2923586Y-14171062D01*
X2923586Y-14171062D02*
X2933109Y-14161538D01*
X2933109Y-14161538D02*
X2952157Y-14152014D01*
X2952157Y-14152014D02*
X2999776Y-14152014D01*
X2999776Y-14152014D02*
X3018824Y-14161538D01*
X3018824Y-14161538D02*
X3028348Y-14171062D01*
X3028348Y-14171062D02*
X3037871Y-14190109D01*
X3037871Y-14190109D02*
X3037871Y-14237728D01*
X3037871Y-14237728D02*
X3028348Y-14256776D01*
X3028348Y-14256776D02*
X3018824Y-14266300D01*
X3018824Y-14266300D02*
X2999776Y-14275824D01*
X2999776Y-14275824D02*
X2952157Y-14275824D01*
X2952157Y-14275824D02*
X2933109Y-14266300D01*
X2933109Y-14266300D02*
X2923586Y-14256776D01*
X3161681Y-14075824D02*
X3180729Y-14075824D01*
X3180729Y-14075824D02*
X3199776Y-14085348D01*
X3199776Y-14085348D02*
X3209300Y-14094871D01*
X3209300Y-14094871D02*
X3218824Y-14113919D01*
X3218824Y-14113919D02*
X3228348Y-14152014D01*
X3228348Y-14152014D02*
X3228348Y-14199633D01*
X3228348Y-14199633D02*
X3218824Y-14237728D01*
X3218824Y-14237728D02*
X3209300Y-14256776D01*
X3209300Y-14256776D02*
X3199776Y-14266300D01*
X3199776Y-14266300D02*
X3180729Y-14275824D01*
X3180729Y-14275824D02*
X3161681Y-14275824D01*
X3161681Y-14275824D02*
X3142633Y-14266300D01*
X3142633Y-14266300D02*
X3133109Y-14256776D01*
X3133109Y-14256776D02*
X3123586Y-14237728D01*
X3123586Y-14237728D02*
X3114062Y-14199633D01*
X3114062Y-14199633D02*
X3114062Y-14152014D01*
X3114062Y-14152014D02*
X3123586Y-14113919D01*
X3123586Y-14113919D02*
X3133109Y-14094871D01*
X3133109Y-14094871D02*
X3142633Y-14085348D01*
X3142633Y-14085348D02*
X3161681Y-14075824D01*
X3314062Y-14275824D02*
X3314062Y-14142490D01*
X3314062Y-14161538D02*
X3323586Y-14152014D01*
X3323586Y-14152014D02*
X3342633Y-14142490D01*
X3342633Y-14142490D02*
X3371205Y-14142490D01*
X3371205Y-14142490D02*
X3390252Y-14152014D01*
X3390252Y-14152014D02*
X3399776Y-14171062D01*
X3399776Y-14171062D02*
X3399776Y-14275824D01*
X3399776Y-14171062D02*
X3409300Y-14152014D01*
X3409300Y-14152014D02*
X3428348Y-14142490D01*
X3428348Y-14142490D02*
X3456919Y-14142490D01*
X3456919Y-14142490D02*
X3475967Y-14152014D01*
X3475967Y-14152014D02*
X3485490Y-14171062D01*
X3485490Y-14171062D02*
X3485490Y-14275824D01*
X3580729Y-14275824D02*
X3580729Y-14142490D01*
X3580729Y-14161538D02*
X3590252Y-14152014D01*
X3590252Y-14152014D02*
X3609300Y-14142490D01*
X3609300Y-14142490D02*
X3637871Y-14142490D01*
X3637871Y-14142490D02*
X3656919Y-14152014D01*
X3656919Y-14152014D02*
X3666443Y-14171062D01*
X3666443Y-14171062D02*
X3666443Y-14275824D01*
X3666443Y-14171062D02*
X3675967Y-14152014D01*
X3675967Y-14152014D02*
X3695014Y-14142490D01*
X3695014Y-14142490D02*
X3723586Y-14142490D01*
X3723586Y-14142490D02*
X3742633Y-14152014D01*
X3742633Y-14152014D02*
X3752157Y-14171062D01*
X3752157Y-14171062D02*
X3752157Y-14275824D01*
X4142633Y-14066300D02*
X3971205Y-14323443D01*
X4399776Y-14075824D02*
X4418824Y-14075824D01*
X4418824Y-14075824D02*
X4437872Y-14085348D01*
X4437872Y-14085348D02*
X4447395Y-14094871D01*
X4447395Y-14094871D02*
X4456919Y-14113919D01*
X4456919Y-14113919D02*
X4466443Y-14152014D01*
X4466443Y-14152014D02*
X4466443Y-14199633D01*
X4466443Y-14199633D02*
X4456919Y-14237728D01*
X4456919Y-14237728D02*
X4447395Y-14256776D01*
X4447395Y-14256776D02*
X4437872Y-14266300D01*
X4437872Y-14266300D02*
X4418824Y-14275824D01*
X4418824Y-14275824D02*
X4399776Y-14275824D01*
X4399776Y-14275824D02*
X4380729Y-14266300D01*
X4380729Y-14266300D02*
X4371205Y-14256776D01*
X4371205Y-14256776D02*
X4361681Y-14237728D01*
X4361681Y-14237728D02*
X4352157Y-14199633D01*
X4352157Y-14199633D02*
X4352157Y-14152014D01*
X4352157Y-14152014D02*
X4361681Y-14113919D01*
X4361681Y-14113919D02*
X4371205Y-14094871D01*
X4371205Y-14094871D02*
X4380729Y-14085348D01*
X4380729Y-14085348D02*
X4399776Y-14075824D01*
X4552157Y-14256776D02*
X4561681Y-14266300D01*
X4561681Y-14266300D02*
X4552157Y-14275824D01*
X4552157Y-14275824D02*
X4542634Y-14266300D01*
X4542634Y-14266300D02*
X4552157Y-14256776D01*
X4552157Y-14256776D02*
X4552157Y-14275824D01*
X4685491Y-14075824D02*
X4704538Y-14075824D01*
X4704538Y-14075824D02*
X4723586Y-14085348D01*
X4723586Y-14085348D02*
X4733110Y-14094871D01*
X4733110Y-14094871D02*
X4742634Y-14113919D01*
X4742634Y-14113919D02*
X4752157Y-14152014D01*
X4752157Y-14152014D02*
X4752157Y-14199633D01*
X4752157Y-14199633D02*
X4742634Y-14237728D01*
X4742634Y-14237728D02*
X4733110Y-14256776D01*
X4733110Y-14256776D02*
X4723586Y-14266300D01*
X4723586Y-14266300D02*
X4704538Y-14275824D01*
X4704538Y-14275824D02*
X4685491Y-14275824D01*
X4685491Y-14275824D02*
X4666443Y-14266300D01*
X4666443Y-14266300D02*
X4656919Y-14256776D01*
X4656919Y-14256776D02*
X4647395Y-14237728D01*
X4647395Y-14237728D02*
X4637872Y-14199633D01*
X4637872Y-14199633D02*
X4637872Y-14152014D01*
X4637872Y-14152014D02*
X4647395Y-14113919D01*
X4647395Y-14113919D02*
X4656919Y-14094871D01*
X4656919Y-14094871D02*
X4666443Y-14085348D01*
X4666443Y-14085348D02*
X4685491Y-14075824D01*
X4828348Y-14094871D02*
X4837872Y-14085348D01*
X4837872Y-14085348D02*
X4856919Y-14075824D01*
X4856919Y-14075824D02*
X4904538Y-14075824D01*
X4904538Y-14075824D02*
X4923586Y-14085348D01*
X4923586Y-14085348D02*
X4933110Y-14094871D01*
X4933110Y-14094871D02*
X4942634Y-14113919D01*
X4942634Y-14113919D02*
X4942634Y-14132967D01*
X4942634Y-14132967D02*
X4933110Y-14161538D01*
X4933110Y-14161538D02*
X4818824Y-14275824D01*
X4818824Y-14275824D02*
X4942634Y-14275824D01*
X5133110Y-14275824D02*
X5018824Y-14275824D01*
X5075967Y-14275824D02*
X5075967Y-14075824D01*
X5075967Y-14075824D02*
X5056919Y-14104395D01*
X5056919Y-14104395D02*
X5037872Y-14123443D01*
X5037872Y-14123443D02*
X5018824Y-14132967D01*
X5199776Y-14075824D02*
X5333110Y-14075824D01*
X5333110Y-14075824D02*
X5247395Y-14275824D01*
X5399776Y-14075824D02*
X5399776Y-14113919D01*
X5475967Y-14075824D02*
X5475967Y-14113919D01*
X5771205Y-14352014D02*
X5761681Y-14342490D01*
X5761681Y-14342490D02*
X5742634Y-14313919D01*
X5742634Y-14313919D02*
X5733110Y-14294871D01*
X5733110Y-14294871D02*
X5723586Y-14266300D01*
X5723586Y-14266300D02*
X5714062Y-14218681D01*
X5714062Y-14218681D02*
X5714062Y-14180586D01*
X5714062Y-14180586D02*
X5723586Y-14132967D01*
X5723586Y-14132967D02*
X5733110Y-14104395D01*
X5733110Y-14104395D02*
X5742634Y-14085348D01*
X5742634Y-14085348D02*
X5761681Y-14056776D01*
X5761681Y-14056776D02*
X5771205Y-14047252D01*
X5952157Y-14275824D02*
X5837872Y-14275824D01*
X5895014Y-14275824D02*
X5895014Y-14075824D01*
X5895014Y-14075824D02*
X5875967Y-14104395D01*
X5875967Y-14104395D02*
X5856919Y-14123443D01*
X5856919Y-14123443D02*
X5837872Y-14132967D01*
X6047395Y-14275824D02*
X6085491Y-14275824D01*
X6085491Y-14275824D02*
X6104538Y-14266300D01*
X6104538Y-14266300D02*
X6114062Y-14256776D01*
X6114062Y-14256776D02*
X6133110Y-14228205D01*
X6133110Y-14228205D02*
X6142634Y-14190109D01*
X6142634Y-14190109D02*
X6142634Y-14113919D01*
X6142634Y-14113919D02*
X6133110Y-14094871D01*
X6133110Y-14094871D02*
X6123586Y-14085348D01*
X6123586Y-14085348D02*
X6104538Y-14075824D01*
X6104538Y-14075824D02*
X6066443Y-14075824D01*
X6066443Y-14075824D02*
X6047395Y-14085348D01*
X6047395Y-14085348D02*
X6037872Y-14094871D01*
X6037872Y-14094871D02*
X6028348Y-14113919D01*
X6028348Y-14113919D02*
X6028348Y-14161538D01*
X6028348Y-14161538D02*
X6037872Y-14180586D01*
X6037872Y-14180586D02*
X6047395Y-14190109D01*
X6047395Y-14190109D02*
X6066443Y-14199633D01*
X6066443Y-14199633D02*
X6104538Y-14199633D01*
X6104538Y-14199633D02*
X6123586Y-14190109D01*
X6123586Y-14190109D02*
X6133110Y-14180586D01*
X6133110Y-14180586D02*
X6142634Y-14161538D01*
X6380729Y-14275824D02*
X6380729Y-14075824D01*
X6466443Y-14275824D02*
X6466443Y-14171062D01*
X6466443Y-14171062D02*
X6456919Y-14152014D01*
X6456919Y-14152014D02*
X6437872Y-14142490D01*
X6437872Y-14142490D02*
X6409300Y-14142490D01*
X6409300Y-14142490D02*
X6390253Y-14152014D01*
X6390253Y-14152014D02*
X6380729Y-14161538D01*
X6590253Y-14275824D02*
X6571205Y-14266300D01*
X6571205Y-14266300D02*
X6561681Y-14256776D01*
X6561681Y-14256776D02*
X6552157Y-14237728D01*
X6552157Y-14237728D02*
X6552157Y-14180586D01*
X6552157Y-14180586D02*
X6561681Y-14161538D01*
X6561681Y-14161538D02*
X6571205Y-14152014D01*
X6571205Y-14152014D02*
X6590253Y-14142490D01*
X6590253Y-14142490D02*
X6618824Y-14142490D01*
X6618824Y-14142490D02*
X6637872Y-14152014D01*
X6637872Y-14152014D02*
X6647396Y-14161538D01*
X6647396Y-14161538D02*
X6656919Y-14180586D01*
X6656919Y-14180586D02*
X6656919Y-14237728D01*
X6656919Y-14237728D02*
X6647396Y-14256776D01*
X6647396Y-14256776D02*
X6637872Y-14266300D01*
X6637872Y-14266300D02*
X6618824Y-14275824D01*
X6618824Y-14275824D02*
X6590253Y-14275824D01*
X6771205Y-14275824D02*
X6752157Y-14266300D01*
X6752157Y-14266300D02*
X6742634Y-14247252D01*
X6742634Y-14247252D02*
X6742634Y-14075824D01*
X6923586Y-14266300D02*
X6904538Y-14275824D01*
X6904538Y-14275824D02*
X6866443Y-14275824D01*
X6866443Y-14275824D02*
X6847396Y-14266300D01*
X6847396Y-14266300D02*
X6837872Y-14247252D01*
X6837872Y-14247252D02*
X6837872Y-14171062D01*
X6837872Y-14171062D02*
X6847396Y-14152014D01*
X6847396Y-14152014D02*
X6866443Y-14142490D01*
X6866443Y-14142490D02*
X6904538Y-14142490D01*
X6904538Y-14142490D02*
X6923586Y-14152014D01*
X6923586Y-14152014D02*
X6933110Y-14171062D01*
X6933110Y-14171062D02*
X6933110Y-14190109D01*
X6933110Y-14190109D02*
X6837872Y-14209157D01*
X7009300Y-14266300D02*
X7028348Y-14275824D01*
X7028348Y-14275824D02*
X7066443Y-14275824D01*
X7066443Y-14275824D02*
X7085491Y-14266300D01*
X7085491Y-14266300D02*
X7095015Y-14247252D01*
X7095015Y-14247252D02*
X7095015Y-14237728D01*
X7095015Y-14237728D02*
X7085491Y-14218681D01*
X7085491Y-14218681D02*
X7066443Y-14209157D01*
X7066443Y-14209157D02*
X7037872Y-14209157D01*
X7037872Y-14209157D02*
X7018824Y-14199633D01*
X7018824Y-14199633D02*
X7009300Y-14180586D01*
X7009300Y-14180586D02*
X7009300Y-14171062D01*
X7009300Y-14171062D02*
X7018824Y-14152014D01*
X7018824Y-14152014D02*
X7037872Y-14142490D01*
X7037872Y-14142490D02*
X7066443Y-14142490D01*
X7066443Y-14142490D02*
X7085491Y-14152014D01*
X7161681Y-14352014D02*
X7171205Y-14342490D01*
X7171205Y-14342490D02*
X7190253Y-14313919D01*
X7190253Y-14313919D02*
X7199777Y-14294871D01*
X7199777Y-14294871D02*
X7209300Y-14266300D01*
X7209300Y-14266300D02*
X7218824Y-14218681D01*
X7218824Y-14218681D02*
X7218824Y-14180586D01*
X7218824Y-14180586D02*
X7209300Y-14132967D01*
X7209300Y-14132967D02*
X7199777Y-14104395D01*
X7199777Y-14104395D02*
X7190253Y-14085348D01*
X7190253Y-14085348D02*
X7171205Y-14056776D01*
X7171205Y-14056776D02*
X7161681Y-14047252D01*
D15*
X2179300Y-14477300D02*
X2209300Y-14447300D01*
X2179300Y-14417300D01*
X2149300Y-14447300D01*
X2179300Y-14477300D01*
D11*
X2495014Y-14339824D02*
X2514062Y-14339824D01*
X2514062Y-14339824D02*
X2533110Y-14349348D01*
X2533110Y-14349348D02*
X2542633Y-14358871D01*
X2542633Y-14358871D02*
X2552157Y-14377919D01*
X2552157Y-14377919D02*
X2561681Y-14416014D01*
X2561681Y-14416014D02*
X2561681Y-14463633D01*
X2561681Y-14463633D02*
X2552157Y-14501728D01*
X2552157Y-14501728D02*
X2542633Y-14520776D01*
X2542633Y-14520776D02*
X2533110Y-14530300D01*
X2533110Y-14530300D02*
X2514062Y-14539824D01*
X2514062Y-14539824D02*
X2495014Y-14539824D01*
X2495014Y-14539824D02*
X2475967Y-14530300D01*
X2475967Y-14530300D02*
X2466443Y-14520776D01*
X2466443Y-14520776D02*
X2456919Y-14501728D01*
X2456919Y-14501728D02*
X2447395Y-14463633D01*
X2447395Y-14463633D02*
X2447395Y-14416014D01*
X2447395Y-14416014D02*
X2456919Y-14377919D01*
X2456919Y-14377919D02*
X2466443Y-14358871D01*
X2466443Y-14358871D02*
X2475967Y-14349348D01*
X2475967Y-14349348D02*
X2495014Y-14339824D01*
X2647395Y-14520776D02*
X2656919Y-14530300D01*
X2656919Y-14530300D02*
X2647395Y-14539824D01*
X2647395Y-14539824D02*
X2637871Y-14530300D01*
X2637871Y-14530300D02*
X2647395Y-14520776D01*
X2647395Y-14520776D02*
X2647395Y-14539824D01*
X2828348Y-14339824D02*
X2790252Y-14339824D01*
X2790252Y-14339824D02*
X2771205Y-14349348D01*
X2771205Y-14349348D02*
X2761681Y-14358871D01*
X2761681Y-14358871D02*
X2742633Y-14387443D01*
X2742633Y-14387443D02*
X2733110Y-14425538D01*
X2733110Y-14425538D02*
X2733110Y-14501728D01*
X2733110Y-14501728D02*
X2742633Y-14520776D01*
X2742633Y-14520776D02*
X2752157Y-14530300D01*
X2752157Y-14530300D02*
X2771205Y-14539824D01*
X2771205Y-14539824D02*
X2809300Y-14539824D01*
X2809300Y-14539824D02*
X2828348Y-14530300D01*
X2828348Y-14530300D02*
X2837871Y-14520776D01*
X2837871Y-14520776D02*
X2847395Y-14501728D01*
X2847395Y-14501728D02*
X2847395Y-14454109D01*
X2847395Y-14454109D02*
X2837871Y-14435062D01*
X2837871Y-14435062D02*
X2828348Y-14425538D01*
X2828348Y-14425538D02*
X2809300Y-14416014D01*
X2809300Y-14416014D02*
X2771205Y-14416014D01*
X2771205Y-14416014D02*
X2752157Y-14425538D01*
X2752157Y-14425538D02*
X2742633Y-14435062D01*
X2742633Y-14435062D02*
X2733110Y-14454109D01*
X2971205Y-14339824D02*
X2990252Y-14339824D01*
X2990252Y-14339824D02*
X3009300Y-14349348D01*
X3009300Y-14349348D02*
X3018824Y-14358871D01*
X3018824Y-14358871D02*
X3028348Y-14377919D01*
X3028348Y-14377919D02*
X3037871Y-14416014D01*
X3037871Y-14416014D02*
X3037871Y-14463633D01*
X3037871Y-14463633D02*
X3028348Y-14501728D01*
X3028348Y-14501728D02*
X3018824Y-14520776D01*
X3018824Y-14520776D02*
X3009300Y-14530300D01*
X3009300Y-14530300D02*
X2990252Y-14539824D01*
X2990252Y-14539824D02*
X2971205Y-14539824D01*
X2971205Y-14539824D02*
X2952157Y-14530300D01*
X2952157Y-14530300D02*
X2942633Y-14520776D01*
X2942633Y-14520776D02*
X2933109Y-14501728D01*
X2933109Y-14501728D02*
X2923586Y-14463633D01*
X2923586Y-14463633D02*
X2923586Y-14416014D01*
X2923586Y-14416014D02*
X2933109Y-14377919D01*
X2933109Y-14377919D02*
X2942633Y-14358871D01*
X2942633Y-14358871D02*
X2952157Y-14349348D01*
X2952157Y-14349348D02*
X2971205Y-14339824D01*
X3161681Y-14339824D02*
X3180729Y-14339824D01*
X3180729Y-14339824D02*
X3199776Y-14349348D01*
X3199776Y-14349348D02*
X3209300Y-14358871D01*
X3209300Y-14358871D02*
X3218824Y-14377919D01*
X3218824Y-14377919D02*
X3228348Y-14416014D01*
X3228348Y-14416014D02*
X3228348Y-14463633D01*
X3228348Y-14463633D02*
X3218824Y-14501728D01*
X3218824Y-14501728D02*
X3209300Y-14520776D01*
X3209300Y-14520776D02*
X3199776Y-14530300D01*
X3199776Y-14530300D02*
X3180729Y-14539824D01*
X3180729Y-14539824D02*
X3161681Y-14539824D01*
X3161681Y-14539824D02*
X3142633Y-14530300D01*
X3142633Y-14530300D02*
X3133109Y-14520776D01*
X3133109Y-14520776D02*
X3123586Y-14501728D01*
X3123586Y-14501728D02*
X3114062Y-14463633D01*
X3114062Y-14463633D02*
X3114062Y-14416014D01*
X3114062Y-14416014D02*
X3123586Y-14377919D01*
X3123586Y-14377919D02*
X3133109Y-14358871D01*
X3133109Y-14358871D02*
X3142633Y-14349348D01*
X3142633Y-14349348D02*
X3161681Y-14339824D01*
X3314062Y-14539824D02*
X3314062Y-14406490D01*
X3314062Y-14425538D02*
X3323586Y-14416014D01*
X3323586Y-14416014D02*
X3342633Y-14406490D01*
X3342633Y-14406490D02*
X3371205Y-14406490D01*
X3371205Y-14406490D02*
X3390252Y-14416014D01*
X3390252Y-14416014D02*
X3399776Y-14435062D01*
X3399776Y-14435062D02*
X3399776Y-14539824D01*
X3399776Y-14435062D02*
X3409300Y-14416014D01*
X3409300Y-14416014D02*
X3428348Y-14406490D01*
X3428348Y-14406490D02*
X3456919Y-14406490D01*
X3456919Y-14406490D02*
X3475967Y-14416014D01*
X3475967Y-14416014D02*
X3485490Y-14435062D01*
X3485490Y-14435062D02*
X3485490Y-14539824D01*
X3580729Y-14539824D02*
X3580729Y-14406490D01*
X3580729Y-14425538D02*
X3590252Y-14416014D01*
X3590252Y-14416014D02*
X3609300Y-14406490D01*
X3609300Y-14406490D02*
X3637871Y-14406490D01*
X3637871Y-14406490D02*
X3656919Y-14416014D01*
X3656919Y-14416014D02*
X3666443Y-14435062D01*
X3666443Y-14435062D02*
X3666443Y-14539824D01*
X3666443Y-14435062D02*
X3675967Y-14416014D01*
X3675967Y-14416014D02*
X3695014Y-14406490D01*
X3695014Y-14406490D02*
X3723586Y-14406490D01*
X3723586Y-14406490D02*
X3742633Y-14416014D01*
X3742633Y-14416014D02*
X3752157Y-14435062D01*
X3752157Y-14435062D02*
X3752157Y-14539824D01*
X4142633Y-14330300D02*
X3971205Y-14587443D01*
X4399776Y-14339824D02*
X4418824Y-14339824D01*
X4418824Y-14339824D02*
X4437872Y-14349348D01*
X4437872Y-14349348D02*
X4447395Y-14358871D01*
X4447395Y-14358871D02*
X4456919Y-14377919D01*
X4456919Y-14377919D02*
X4466443Y-14416014D01*
X4466443Y-14416014D02*
X4466443Y-14463633D01*
X4466443Y-14463633D02*
X4456919Y-14501728D01*
X4456919Y-14501728D02*
X4447395Y-14520776D01*
X4447395Y-14520776D02*
X4437872Y-14530300D01*
X4437872Y-14530300D02*
X4418824Y-14539824D01*
X4418824Y-14539824D02*
X4399776Y-14539824D01*
X4399776Y-14539824D02*
X4380729Y-14530300D01*
X4380729Y-14530300D02*
X4371205Y-14520776D01*
X4371205Y-14520776D02*
X4361681Y-14501728D01*
X4361681Y-14501728D02*
X4352157Y-14463633D01*
X4352157Y-14463633D02*
X4352157Y-14416014D01*
X4352157Y-14416014D02*
X4361681Y-14377919D01*
X4361681Y-14377919D02*
X4371205Y-14358871D01*
X4371205Y-14358871D02*
X4380729Y-14349348D01*
X4380729Y-14349348D02*
X4399776Y-14339824D01*
X4552157Y-14520776D02*
X4561681Y-14530300D01*
X4561681Y-14530300D02*
X4552157Y-14539824D01*
X4552157Y-14539824D02*
X4542634Y-14530300D01*
X4542634Y-14530300D02*
X4552157Y-14520776D01*
X4552157Y-14520776D02*
X4552157Y-14539824D01*
X4685491Y-14339824D02*
X4704538Y-14339824D01*
X4704538Y-14339824D02*
X4723586Y-14349348D01*
X4723586Y-14349348D02*
X4733110Y-14358871D01*
X4733110Y-14358871D02*
X4742634Y-14377919D01*
X4742634Y-14377919D02*
X4752157Y-14416014D01*
X4752157Y-14416014D02*
X4752157Y-14463633D01*
X4752157Y-14463633D02*
X4742634Y-14501728D01*
X4742634Y-14501728D02*
X4733110Y-14520776D01*
X4733110Y-14520776D02*
X4723586Y-14530300D01*
X4723586Y-14530300D02*
X4704538Y-14539824D01*
X4704538Y-14539824D02*
X4685491Y-14539824D01*
X4685491Y-14539824D02*
X4666443Y-14530300D01*
X4666443Y-14530300D02*
X4656919Y-14520776D01*
X4656919Y-14520776D02*
X4647395Y-14501728D01*
X4647395Y-14501728D02*
X4637872Y-14463633D01*
X4637872Y-14463633D02*
X4637872Y-14416014D01*
X4637872Y-14416014D02*
X4647395Y-14377919D01*
X4647395Y-14377919D02*
X4656919Y-14358871D01*
X4656919Y-14358871D02*
X4666443Y-14349348D01*
X4666443Y-14349348D02*
X4685491Y-14339824D01*
X4828348Y-14358871D02*
X4837872Y-14349348D01*
X4837872Y-14349348D02*
X4856919Y-14339824D01*
X4856919Y-14339824D02*
X4904538Y-14339824D01*
X4904538Y-14339824D02*
X4923586Y-14349348D01*
X4923586Y-14349348D02*
X4933110Y-14358871D01*
X4933110Y-14358871D02*
X4942634Y-14377919D01*
X4942634Y-14377919D02*
X4942634Y-14396967D01*
X4942634Y-14396967D02*
X4933110Y-14425538D01*
X4933110Y-14425538D02*
X4818824Y-14539824D01*
X4818824Y-14539824D02*
X4942634Y-14539824D01*
X5009300Y-14339824D02*
X5133110Y-14339824D01*
X5133110Y-14339824D02*
X5066443Y-14416014D01*
X5066443Y-14416014D02*
X5095015Y-14416014D01*
X5095015Y-14416014D02*
X5114062Y-14425538D01*
X5114062Y-14425538D02*
X5123586Y-14435062D01*
X5123586Y-14435062D02*
X5133110Y-14454109D01*
X5133110Y-14454109D02*
X5133110Y-14501728D01*
X5133110Y-14501728D02*
X5123586Y-14520776D01*
X5123586Y-14520776D02*
X5114062Y-14530300D01*
X5114062Y-14530300D02*
X5095015Y-14539824D01*
X5095015Y-14539824D02*
X5037872Y-14539824D01*
X5037872Y-14539824D02*
X5018824Y-14530300D01*
X5018824Y-14530300D02*
X5009300Y-14520776D01*
X5304538Y-14339824D02*
X5266443Y-14339824D01*
X5266443Y-14339824D02*
X5247395Y-14349348D01*
X5247395Y-14349348D02*
X5237872Y-14358871D01*
X5237872Y-14358871D02*
X5218824Y-14387443D01*
X5218824Y-14387443D02*
X5209300Y-14425538D01*
X5209300Y-14425538D02*
X5209300Y-14501728D01*
X5209300Y-14501728D02*
X5218824Y-14520776D01*
X5218824Y-14520776D02*
X5228348Y-14530300D01*
X5228348Y-14530300D02*
X5247395Y-14539824D01*
X5247395Y-14539824D02*
X5285491Y-14539824D01*
X5285491Y-14539824D02*
X5304538Y-14530300D01*
X5304538Y-14530300D02*
X5314062Y-14520776D01*
X5314062Y-14520776D02*
X5323586Y-14501728D01*
X5323586Y-14501728D02*
X5323586Y-14454109D01*
X5323586Y-14454109D02*
X5314062Y-14435062D01*
X5314062Y-14435062D02*
X5304538Y-14425538D01*
X5304538Y-14425538D02*
X5285491Y-14416014D01*
X5285491Y-14416014D02*
X5247395Y-14416014D01*
X5247395Y-14416014D02*
X5228348Y-14425538D01*
X5228348Y-14425538D02*
X5218824Y-14435062D01*
X5218824Y-14435062D02*
X5209300Y-14454109D01*
X5399776Y-14339824D02*
X5399776Y-14377919D01*
X5475967Y-14339824D02*
X5475967Y-14377919D01*
X5771205Y-14616014D02*
X5761681Y-14606490D01*
X5761681Y-14606490D02*
X5742634Y-14577919D01*
X5742634Y-14577919D02*
X5733110Y-14558871D01*
X5733110Y-14558871D02*
X5723586Y-14530300D01*
X5723586Y-14530300D02*
X5714062Y-14482681D01*
X5714062Y-14482681D02*
X5714062Y-14444586D01*
X5714062Y-14444586D02*
X5723586Y-14396967D01*
X5723586Y-14396967D02*
X5733110Y-14368395D01*
X5733110Y-14368395D02*
X5742634Y-14349348D01*
X5742634Y-14349348D02*
X5761681Y-14320776D01*
X5761681Y-14320776D02*
X5771205Y-14311252D01*
X5885491Y-14339824D02*
X5904538Y-14339824D01*
X5904538Y-14339824D02*
X5923586Y-14349348D01*
X5923586Y-14349348D02*
X5933110Y-14358871D01*
X5933110Y-14358871D02*
X5942634Y-14377919D01*
X5942634Y-14377919D02*
X5952157Y-14416014D01*
X5952157Y-14416014D02*
X5952157Y-14463633D01*
X5952157Y-14463633D02*
X5942634Y-14501728D01*
X5942634Y-14501728D02*
X5933110Y-14520776D01*
X5933110Y-14520776D02*
X5923586Y-14530300D01*
X5923586Y-14530300D02*
X5904538Y-14539824D01*
X5904538Y-14539824D02*
X5885491Y-14539824D01*
X5885491Y-14539824D02*
X5866443Y-14530300D01*
X5866443Y-14530300D02*
X5856919Y-14520776D01*
X5856919Y-14520776D02*
X5847395Y-14501728D01*
X5847395Y-14501728D02*
X5837872Y-14463633D01*
X5837872Y-14463633D02*
X5837872Y-14416014D01*
X5837872Y-14416014D02*
X5847395Y-14377919D01*
X5847395Y-14377919D02*
X5856919Y-14358871D01*
X5856919Y-14358871D02*
X5866443Y-14349348D01*
X5866443Y-14349348D02*
X5885491Y-14339824D01*
X6190253Y-14539824D02*
X6190253Y-14339824D01*
X6275967Y-14539824D02*
X6275967Y-14435062D01*
X6275967Y-14435062D02*
X6266443Y-14416014D01*
X6266443Y-14416014D02*
X6247396Y-14406490D01*
X6247396Y-14406490D02*
X6218824Y-14406490D01*
X6218824Y-14406490D02*
X6199776Y-14416014D01*
X6199776Y-14416014D02*
X6190253Y-14425538D01*
X6399776Y-14539824D02*
X6380729Y-14530300D01*
X6380729Y-14530300D02*
X6371205Y-14520776D01*
X6371205Y-14520776D02*
X6361681Y-14501728D01*
X6361681Y-14501728D02*
X6361681Y-14444586D01*
X6361681Y-14444586D02*
X6371205Y-14425538D01*
X6371205Y-14425538D02*
X6380729Y-14416014D01*
X6380729Y-14416014D02*
X6399776Y-14406490D01*
X6399776Y-14406490D02*
X6428348Y-14406490D01*
X6428348Y-14406490D02*
X6447396Y-14416014D01*
X6447396Y-14416014D02*
X6456919Y-14425538D01*
X6456919Y-14425538D02*
X6466443Y-14444586D01*
X6466443Y-14444586D02*
X6466443Y-14501728D01*
X6466443Y-14501728D02*
X6456919Y-14520776D01*
X6456919Y-14520776D02*
X6447396Y-14530300D01*
X6447396Y-14530300D02*
X6428348Y-14539824D01*
X6428348Y-14539824D02*
X6399776Y-14539824D01*
X6580729Y-14539824D02*
X6561681Y-14530300D01*
X6561681Y-14530300D02*
X6552157Y-14511252D01*
X6552157Y-14511252D02*
X6552157Y-14339824D01*
X6733110Y-14530300D02*
X6714062Y-14539824D01*
X6714062Y-14539824D02*
X6675967Y-14539824D01*
X6675967Y-14539824D02*
X6656919Y-14530300D01*
X6656919Y-14530300D02*
X6647396Y-14511252D01*
X6647396Y-14511252D02*
X6647396Y-14435062D01*
X6647396Y-14435062D02*
X6656919Y-14416014D01*
X6656919Y-14416014D02*
X6675967Y-14406490D01*
X6675967Y-14406490D02*
X6714062Y-14406490D01*
X6714062Y-14406490D02*
X6733110Y-14416014D01*
X6733110Y-14416014D02*
X6742634Y-14435062D01*
X6742634Y-14435062D02*
X6742634Y-14454109D01*
X6742634Y-14454109D02*
X6647396Y-14473157D01*
X6818824Y-14530300D02*
X6837872Y-14539824D01*
X6837872Y-14539824D02*
X6875967Y-14539824D01*
X6875967Y-14539824D02*
X6895015Y-14530300D01*
X6895015Y-14530300D02*
X6904538Y-14511252D01*
X6904538Y-14511252D02*
X6904538Y-14501728D01*
X6904538Y-14501728D02*
X6895015Y-14482681D01*
X6895015Y-14482681D02*
X6875967Y-14473157D01*
X6875967Y-14473157D02*
X6847396Y-14473157D01*
X6847396Y-14473157D02*
X6828348Y-14463633D01*
X6828348Y-14463633D02*
X6818824Y-14444586D01*
X6818824Y-14444586D02*
X6818824Y-14435062D01*
X6818824Y-14435062D02*
X6828348Y-14416014D01*
X6828348Y-14416014D02*
X6847396Y-14406490D01*
X6847396Y-14406490D02*
X6875967Y-14406490D01*
X6875967Y-14406490D02*
X6895015Y-14416014D01*
X7142634Y-14463633D02*
X7295015Y-14463633D01*
X7218824Y-14539824D02*
X7218824Y-14387443D01*
X7628348Y-14406490D02*
X7628348Y-14539824D01*
X7580729Y-14330300D02*
X7533110Y-14473157D01*
X7533110Y-14473157D02*
X7656919Y-14473157D01*
X7875967Y-14530300D02*
X7895015Y-14539824D01*
X7895015Y-14539824D02*
X7933110Y-14539824D01*
X7933110Y-14539824D02*
X7952158Y-14530300D01*
X7952158Y-14530300D02*
X7961681Y-14511252D01*
X7961681Y-14511252D02*
X7961681Y-14501728D01*
X7961681Y-14501728D02*
X7952158Y-14482681D01*
X7952158Y-14482681D02*
X7933110Y-14473157D01*
X7933110Y-14473157D02*
X7904539Y-14473157D01*
X7904539Y-14473157D02*
X7885491Y-14463633D01*
X7885491Y-14463633D02*
X7875967Y-14444586D01*
X7875967Y-14444586D02*
X7875967Y-14435062D01*
X7875967Y-14435062D02*
X7885491Y-14416014D01*
X7885491Y-14416014D02*
X7904539Y-14406490D01*
X7904539Y-14406490D02*
X7933110Y-14406490D01*
X7933110Y-14406490D02*
X7952158Y-14416014D01*
X8075967Y-14539824D02*
X8056920Y-14530300D01*
X8056920Y-14530300D02*
X8047396Y-14511252D01*
X8047396Y-14511252D02*
X8047396Y-14339824D01*
X8180729Y-14539824D02*
X8161681Y-14530300D01*
X8161681Y-14530300D02*
X8152158Y-14520776D01*
X8152158Y-14520776D02*
X8142634Y-14501728D01*
X8142634Y-14501728D02*
X8142634Y-14444586D01*
X8142634Y-14444586D02*
X8152158Y-14425538D01*
X8152158Y-14425538D02*
X8161681Y-14416014D01*
X8161681Y-14416014D02*
X8180729Y-14406490D01*
X8180729Y-14406490D02*
X8209301Y-14406490D01*
X8209301Y-14406490D02*
X8228348Y-14416014D01*
X8228348Y-14416014D02*
X8237872Y-14425538D01*
X8237872Y-14425538D02*
X8247396Y-14444586D01*
X8247396Y-14444586D02*
X8247396Y-14501728D01*
X8247396Y-14501728D02*
X8237872Y-14520776D01*
X8237872Y-14520776D02*
X8228348Y-14530300D01*
X8228348Y-14530300D02*
X8209301Y-14539824D01*
X8209301Y-14539824D02*
X8180729Y-14539824D01*
X8304539Y-14406490D02*
X8380729Y-14406490D01*
X8333110Y-14339824D02*
X8333110Y-14511252D01*
X8333110Y-14511252D02*
X8342634Y-14530300D01*
X8342634Y-14530300D02*
X8361681Y-14539824D01*
X8361681Y-14539824D02*
X8380729Y-14539824D01*
X8437872Y-14530300D02*
X8456920Y-14539824D01*
X8456920Y-14539824D02*
X8495015Y-14539824D01*
X8495015Y-14539824D02*
X8514063Y-14530300D01*
X8514063Y-14530300D02*
X8523586Y-14511252D01*
X8523586Y-14511252D02*
X8523586Y-14501728D01*
X8523586Y-14501728D02*
X8514063Y-14482681D01*
X8514063Y-14482681D02*
X8495015Y-14473157D01*
X8495015Y-14473157D02*
X8466443Y-14473157D01*
X8466443Y-14473157D02*
X8447396Y-14463633D01*
X8447396Y-14463633D02*
X8437872Y-14444586D01*
X8437872Y-14444586D02*
X8437872Y-14435062D01*
X8437872Y-14435062D02*
X8447396Y-14416014D01*
X8447396Y-14416014D02*
X8466443Y-14406490D01*
X8466443Y-14406490D02*
X8495015Y-14406490D01*
X8495015Y-14406490D02*
X8514063Y-14416014D01*
X8590253Y-14616014D02*
X8599777Y-14606490D01*
X8599777Y-14606490D02*
X8618824Y-14577919D01*
X8618824Y-14577919D02*
X8628348Y-14558871D01*
X8628348Y-14558871D02*
X8637872Y-14530300D01*
X8637872Y-14530300D02*
X8647396Y-14482681D01*
X8647396Y-14482681D02*
X8647396Y-14444586D01*
X8647396Y-14444586D02*
X8637872Y-14396967D01*
X8637872Y-14396967D02*
X8628348Y-14368395D01*
X8628348Y-14368395D02*
X8618824Y-14349348D01*
X8618824Y-14349348D02*
X8599777Y-14320776D01*
X8599777Y-14320776D02*
X8590253Y-14311252D01*
D16*
X2129300Y-14671300D02*
X2209300Y-14751300D01*
X2209300Y-14671300D02*
X2129300Y-14751300D01*
X2209300Y-14711300D02*
G75*
G03*
X2209300Y-14711300I-40000J0D01*
G01*
D11*
X2495014Y-14603824D02*
X2514062Y-14603824D01*
X2514062Y-14603824D02*
X2533110Y-14613348D01*
X2533110Y-14613348D02*
X2542633Y-14622871D01*
X2542633Y-14622871D02*
X2552157Y-14641919D01*
X2552157Y-14641919D02*
X2561681Y-14680014D01*
X2561681Y-14680014D02*
X2561681Y-14727633D01*
X2561681Y-14727633D02*
X2552157Y-14765728D01*
X2552157Y-14765728D02*
X2542633Y-14784776D01*
X2542633Y-14784776D02*
X2533110Y-14794300D01*
X2533110Y-14794300D02*
X2514062Y-14803824D01*
X2514062Y-14803824D02*
X2495014Y-14803824D01*
X2495014Y-14803824D02*
X2475967Y-14794300D01*
X2475967Y-14794300D02*
X2466443Y-14784776D01*
X2466443Y-14784776D02*
X2456919Y-14765728D01*
X2456919Y-14765728D02*
X2447395Y-14727633D01*
X2447395Y-14727633D02*
X2447395Y-14680014D01*
X2447395Y-14680014D02*
X2456919Y-14641919D01*
X2456919Y-14641919D02*
X2466443Y-14622871D01*
X2466443Y-14622871D02*
X2475967Y-14613348D01*
X2475967Y-14613348D02*
X2495014Y-14603824D01*
X2647395Y-14784776D02*
X2656919Y-14794300D01*
X2656919Y-14794300D02*
X2647395Y-14803824D01*
X2647395Y-14803824D02*
X2637871Y-14794300D01*
X2637871Y-14794300D02*
X2647395Y-14784776D01*
X2647395Y-14784776D02*
X2647395Y-14803824D01*
X2771205Y-14689538D02*
X2752157Y-14680014D01*
X2752157Y-14680014D02*
X2742633Y-14670490D01*
X2742633Y-14670490D02*
X2733110Y-14651443D01*
X2733110Y-14651443D02*
X2733110Y-14641919D01*
X2733110Y-14641919D02*
X2742633Y-14622871D01*
X2742633Y-14622871D02*
X2752157Y-14613348D01*
X2752157Y-14613348D02*
X2771205Y-14603824D01*
X2771205Y-14603824D02*
X2809300Y-14603824D01*
X2809300Y-14603824D02*
X2828348Y-14613348D01*
X2828348Y-14613348D02*
X2837871Y-14622871D01*
X2837871Y-14622871D02*
X2847395Y-14641919D01*
X2847395Y-14641919D02*
X2847395Y-14651443D01*
X2847395Y-14651443D02*
X2837871Y-14670490D01*
X2837871Y-14670490D02*
X2828348Y-14680014D01*
X2828348Y-14680014D02*
X2809300Y-14689538D01*
X2809300Y-14689538D02*
X2771205Y-14689538D01*
X2771205Y-14689538D02*
X2752157Y-14699062D01*
X2752157Y-14699062D02*
X2742633Y-14708586D01*
X2742633Y-14708586D02*
X2733110Y-14727633D01*
X2733110Y-14727633D02*
X2733110Y-14765728D01*
X2733110Y-14765728D02*
X2742633Y-14784776D01*
X2742633Y-14784776D02*
X2752157Y-14794300D01*
X2752157Y-14794300D02*
X2771205Y-14803824D01*
X2771205Y-14803824D02*
X2809300Y-14803824D01*
X2809300Y-14803824D02*
X2828348Y-14794300D01*
X2828348Y-14794300D02*
X2837871Y-14784776D01*
X2837871Y-14784776D02*
X2847395Y-14765728D01*
X2847395Y-14765728D02*
X2847395Y-14727633D01*
X2847395Y-14727633D02*
X2837871Y-14708586D01*
X2837871Y-14708586D02*
X2828348Y-14699062D01*
X2828348Y-14699062D02*
X2809300Y-14689538D01*
X2971205Y-14603824D02*
X2990252Y-14603824D01*
X2990252Y-14603824D02*
X3009300Y-14613348D01*
X3009300Y-14613348D02*
X3018824Y-14622871D01*
X3018824Y-14622871D02*
X3028348Y-14641919D01*
X3028348Y-14641919D02*
X3037871Y-14680014D01*
X3037871Y-14680014D02*
X3037871Y-14727633D01*
X3037871Y-14727633D02*
X3028348Y-14765728D01*
X3028348Y-14765728D02*
X3018824Y-14784776D01*
X3018824Y-14784776D02*
X3009300Y-14794300D01*
X3009300Y-14794300D02*
X2990252Y-14803824D01*
X2990252Y-14803824D02*
X2971205Y-14803824D01*
X2971205Y-14803824D02*
X2952157Y-14794300D01*
X2952157Y-14794300D02*
X2942633Y-14784776D01*
X2942633Y-14784776D02*
X2933109Y-14765728D01*
X2933109Y-14765728D02*
X2923586Y-14727633D01*
X2923586Y-14727633D02*
X2923586Y-14680014D01*
X2923586Y-14680014D02*
X2933109Y-14641919D01*
X2933109Y-14641919D02*
X2942633Y-14622871D01*
X2942633Y-14622871D02*
X2952157Y-14613348D01*
X2952157Y-14613348D02*
X2971205Y-14603824D01*
X3161681Y-14603824D02*
X3180729Y-14603824D01*
X3180729Y-14603824D02*
X3199776Y-14613348D01*
X3199776Y-14613348D02*
X3209300Y-14622871D01*
X3209300Y-14622871D02*
X3218824Y-14641919D01*
X3218824Y-14641919D02*
X3228348Y-14680014D01*
X3228348Y-14680014D02*
X3228348Y-14727633D01*
X3228348Y-14727633D02*
X3218824Y-14765728D01*
X3218824Y-14765728D02*
X3209300Y-14784776D01*
X3209300Y-14784776D02*
X3199776Y-14794300D01*
X3199776Y-14794300D02*
X3180729Y-14803824D01*
X3180729Y-14803824D02*
X3161681Y-14803824D01*
X3161681Y-14803824D02*
X3142633Y-14794300D01*
X3142633Y-14794300D02*
X3133109Y-14784776D01*
X3133109Y-14784776D02*
X3123586Y-14765728D01*
X3123586Y-14765728D02*
X3114062Y-14727633D01*
X3114062Y-14727633D02*
X3114062Y-14680014D01*
X3114062Y-14680014D02*
X3123586Y-14641919D01*
X3123586Y-14641919D02*
X3133109Y-14622871D01*
X3133109Y-14622871D02*
X3142633Y-14613348D01*
X3142633Y-14613348D02*
X3161681Y-14603824D01*
X3314062Y-14803824D02*
X3314062Y-14670490D01*
X3314062Y-14689538D02*
X3323586Y-14680014D01*
X3323586Y-14680014D02*
X3342633Y-14670490D01*
X3342633Y-14670490D02*
X3371205Y-14670490D01*
X3371205Y-14670490D02*
X3390252Y-14680014D01*
X3390252Y-14680014D02*
X3399776Y-14699062D01*
X3399776Y-14699062D02*
X3399776Y-14803824D01*
X3399776Y-14699062D02*
X3409300Y-14680014D01*
X3409300Y-14680014D02*
X3428348Y-14670490D01*
X3428348Y-14670490D02*
X3456919Y-14670490D01*
X3456919Y-14670490D02*
X3475967Y-14680014D01*
X3475967Y-14680014D02*
X3485490Y-14699062D01*
X3485490Y-14699062D02*
X3485490Y-14803824D01*
X3580729Y-14803824D02*
X3580729Y-14670490D01*
X3580729Y-14689538D02*
X3590252Y-14680014D01*
X3590252Y-14680014D02*
X3609300Y-14670490D01*
X3609300Y-14670490D02*
X3637871Y-14670490D01*
X3637871Y-14670490D02*
X3656919Y-14680014D01*
X3656919Y-14680014D02*
X3666443Y-14699062D01*
X3666443Y-14699062D02*
X3666443Y-14803824D01*
X3666443Y-14699062D02*
X3675967Y-14680014D01*
X3675967Y-14680014D02*
X3695014Y-14670490D01*
X3695014Y-14670490D02*
X3723586Y-14670490D01*
X3723586Y-14670490D02*
X3742633Y-14680014D01*
X3742633Y-14680014D02*
X3752157Y-14699062D01*
X3752157Y-14699062D02*
X3752157Y-14803824D01*
X4142633Y-14594300D02*
X3971205Y-14851443D01*
X4399776Y-14603824D02*
X4418824Y-14603824D01*
X4418824Y-14603824D02*
X4437872Y-14613348D01*
X4437872Y-14613348D02*
X4447395Y-14622871D01*
X4447395Y-14622871D02*
X4456919Y-14641919D01*
X4456919Y-14641919D02*
X4466443Y-14680014D01*
X4466443Y-14680014D02*
X4466443Y-14727633D01*
X4466443Y-14727633D02*
X4456919Y-14765728D01*
X4456919Y-14765728D02*
X4447395Y-14784776D01*
X4447395Y-14784776D02*
X4437872Y-14794300D01*
X4437872Y-14794300D02*
X4418824Y-14803824D01*
X4418824Y-14803824D02*
X4399776Y-14803824D01*
X4399776Y-14803824D02*
X4380729Y-14794300D01*
X4380729Y-14794300D02*
X4371205Y-14784776D01*
X4371205Y-14784776D02*
X4361681Y-14765728D01*
X4361681Y-14765728D02*
X4352157Y-14727633D01*
X4352157Y-14727633D02*
X4352157Y-14680014D01*
X4352157Y-14680014D02*
X4361681Y-14641919D01*
X4361681Y-14641919D02*
X4371205Y-14622871D01*
X4371205Y-14622871D02*
X4380729Y-14613348D01*
X4380729Y-14613348D02*
X4399776Y-14603824D01*
X4552157Y-14784776D02*
X4561681Y-14794300D01*
X4561681Y-14794300D02*
X4552157Y-14803824D01*
X4552157Y-14803824D02*
X4542634Y-14794300D01*
X4542634Y-14794300D02*
X4552157Y-14784776D01*
X4552157Y-14784776D02*
X4552157Y-14803824D01*
X4685491Y-14603824D02*
X4704538Y-14603824D01*
X4704538Y-14603824D02*
X4723586Y-14613348D01*
X4723586Y-14613348D02*
X4733110Y-14622871D01*
X4733110Y-14622871D02*
X4742634Y-14641919D01*
X4742634Y-14641919D02*
X4752157Y-14680014D01*
X4752157Y-14680014D02*
X4752157Y-14727633D01*
X4752157Y-14727633D02*
X4742634Y-14765728D01*
X4742634Y-14765728D02*
X4733110Y-14784776D01*
X4733110Y-14784776D02*
X4723586Y-14794300D01*
X4723586Y-14794300D02*
X4704538Y-14803824D01*
X4704538Y-14803824D02*
X4685491Y-14803824D01*
X4685491Y-14803824D02*
X4666443Y-14794300D01*
X4666443Y-14794300D02*
X4656919Y-14784776D01*
X4656919Y-14784776D02*
X4647395Y-14765728D01*
X4647395Y-14765728D02*
X4637872Y-14727633D01*
X4637872Y-14727633D02*
X4637872Y-14680014D01*
X4637872Y-14680014D02*
X4647395Y-14641919D01*
X4647395Y-14641919D02*
X4656919Y-14622871D01*
X4656919Y-14622871D02*
X4666443Y-14613348D01*
X4666443Y-14613348D02*
X4685491Y-14603824D01*
X4818824Y-14603824D02*
X4942634Y-14603824D01*
X4942634Y-14603824D02*
X4875967Y-14680014D01*
X4875967Y-14680014D02*
X4904538Y-14680014D01*
X4904538Y-14680014D02*
X4923586Y-14689538D01*
X4923586Y-14689538D02*
X4933110Y-14699062D01*
X4933110Y-14699062D02*
X4942634Y-14718109D01*
X4942634Y-14718109D02*
X4942634Y-14765728D01*
X4942634Y-14765728D02*
X4933110Y-14784776D01*
X4933110Y-14784776D02*
X4923586Y-14794300D01*
X4923586Y-14794300D02*
X4904538Y-14803824D01*
X4904538Y-14803824D02*
X4847395Y-14803824D01*
X4847395Y-14803824D02*
X4828348Y-14794300D01*
X4828348Y-14794300D02*
X4818824Y-14784776D01*
X5133110Y-14803824D02*
X5018824Y-14803824D01*
X5075967Y-14803824D02*
X5075967Y-14603824D01*
X5075967Y-14603824D02*
X5056919Y-14632395D01*
X5056919Y-14632395D02*
X5037872Y-14651443D01*
X5037872Y-14651443D02*
X5018824Y-14660967D01*
X5314062Y-14603824D02*
X5218824Y-14603824D01*
X5218824Y-14603824D02*
X5209300Y-14699062D01*
X5209300Y-14699062D02*
X5218824Y-14689538D01*
X5218824Y-14689538D02*
X5237872Y-14680014D01*
X5237872Y-14680014D02*
X5285491Y-14680014D01*
X5285491Y-14680014D02*
X5304538Y-14689538D01*
X5304538Y-14689538D02*
X5314062Y-14699062D01*
X5314062Y-14699062D02*
X5323586Y-14718109D01*
X5323586Y-14718109D02*
X5323586Y-14765728D01*
X5323586Y-14765728D02*
X5314062Y-14784776D01*
X5314062Y-14784776D02*
X5304538Y-14794300D01*
X5304538Y-14794300D02*
X5285491Y-14803824D01*
X5285491Y-14803824D02*
X5237872Y-14803824D01*
X5237872Y-14803824D02*
X5218824Y-14794300D01*
X5218824Y-14794300D02*
X5209300Y-14784776D01*
X5399776Y-14603824D02*
X5399776Y-14641919D01*
X5475967Y-14603824D02*
X5475967Y-14641919D01*
X5771205Y-14880014D02*
X5761681Y-14870490D01*
X5761681Y-14870490D02*
X5742634Y-14841919D01*
X5742634Y-14841919D02*
X5733110Y-14822871D01*
X5733110Y-14822871D02*
X5723586Y-14794300D01*
X5723586Y-14794300D02*
X5714062Y-14746681D01*
X5714062Y-14746681D02*
X5714062Y-14708586D01*
X5714062Y-14708586D02*
X5723586Y-14660967D01*
X5723586Y-14660967D02*
X5733110Y-14632395D01*
X5733110Y-14632395D02*
X5742634Y-14613348D01*
X5742634Y-14613348D02*
X5761681Y-14584776D01*
X5761681Y-14584776D02*
X5771205Y-14575252D01*
X5885491Y-14603824D02*
X5904538Y-14603824D01*
X5904538Y-14603824D02*
X5923586Y-14613348D01*
X5923586Y-14613348D02*
X5933110Y-14622871D01*
X5933110Y-14622871D02*
X5942634Y-14641919D01*
X5942634Y-14641919D02*
X5952157Y-14680014D01*
X5952157Y-14680014D02*
X5952157Y-14727633D01*
X5952157Y-14727633D02*
X5942634Y-14765728D01*
X5942634Y-14765728D02*
X5933110Y-14784776D01*
X5933110Y-14784776D02*
X5923586Y-14794300D01*
X5923586Y-14794300D02*
X5904538Y-14803824D01*
X5904538Y-14803824D02*
X5885491Y-14803824D01*
X5885491Y-14803824D02*
X5866443Y-14794300D01*
X5866443Y-14794300D02*
X5856919Y-14784776D01*
X5856919Y-14784776D02*
X5847395Y-14765728D01*
X5847395Y-14765728D02*
X5837872Y-14727633D01*
X5837872Y-14727633D02*
X5837872Y-14680014D01*
X5837872Y-14680014D02*
X5847395Y-14641919D01*
X5847395Y-14641919D02*
X5856919Y-14622871D01*
X5856919Y-14622871D02*
X5866443Y-14613348D01*
X5866443Y-14613348D02*
X5885491Y-14603824D01*
X6190253Y-14803824D02*
X6190253Y-14603824D01*
X6275967Y-14803824D02*
X6275967Y-14699062D01*
X6275967Y-14699062D02*
X6266443Y-14680014D01*
X6266443Y-14680014D02*
X6247396Y-14670490D01*
X6247396Y-14670490D02*
X6218824Y-14670490D01*
X6218824Y-14670490D02*
X6199776Y-14680014D01*
X6199776Y-14680014D02*
X6190253Y-14689538D01*
X6399776Y-14803824D02*
X6380729Y-14794300D01*
X6380729Y-14794300D02*
X6371205Y-14784776D01*
X6371205Y-14784776D02*
X6361681Y-14765728D01*
X6361681Y-14765728D02*
X6361681Y-14708586D01*
X6361681Y-14708586D02*
X6371205Y-14689538D01*
X6371205Y-14689538D02*
X6380729Y-14680014D01*
X6380729Y-14680014D02*
X6399776Y-14670490D01*
X6399776Y-14670490D02*
X6428348Y-14670490D01*
X6428348Y-14670490D02*
X6447396Y-14680014D01*
X6447396Y-14680014D02*
X6456919Y-14689538D01*
X6456919Y-14689538D02*
X6466443Y-14708586D01*
X6466443Y-14708586D02*
X6466443Y-14765728D01*
X6466443Y-14765728D02*
X6456919Y-14784776D01*
X6456919Y-14784776D02*
X6447396Y-14794300D01*
X6447396Y-14794300D02*
X6428348Y-14803824D01*
X6428348Y-14803824D02*
X6399776Y-14803824D01*
X6580729Y-14803824D02*
X6561681Y-14794300D01*
X6561681Y-14794300D02*
X6552157Y-14775252D01*
X6552157Y-14775252D02*
X6552157Y-14603824D01*
X6733110Y-14794300D02*
X6714062Y-14803824D01*
X6714062Y-14803824D02*
X6675967Y-14803824D01*
X6675967Y-14803824D02*
X6656919Y-14794300D01*
X6656919Y-14794300D02*
X6647396Y-14775252D01*
X6647396Y-14775252D02*
X6647396Y-14699062D01*
X6647396Y-14699062D02*
X6656919Y-14680014D01*
X6656919Y-14680014D02*
X6675967Y-14670490D01*
X6675967Y-14670490D02*
X6714062Y-14670490D01*
X6714062Y-14670490D02*
X6733110Y-14680014D01*
X6733110Y-14680014D02*
X6742634Y-14699062D01*
X6742634Y-14699062D02*
X6742634Y-14718109D01*
X6742634Y-14718109D02*
X6647396Y-14737157D01*
X6818824Y-14794300D02*
X6837872Y-14803824D01*
X6837872Y-14803824D02*
X6875967Y-14803824D01*
X6875967Y-14803824D02*
X6895015Y-14794300D01*
X6895015Y-14794300D02*
X6904538Y-14775252D01*
X6904538Y-14775252D02*
X6904538Y-14765728D01*
X6904538Y-14765728D02*
X6895015Y-14746681D01*
X6895015Y-14746681D02*
X6875967Y-14737157D01*
X6875967Y-14737157D02*
X6847396Y-14737157D01*
X6847396Y-14737157D02*
X6828348Y-14727633D01*
X6828348Y-14727633D02*
X6818824Y-14708586D01*
X6818824Y-14708586D02*
X6818824Y-14699062D01*
X6818824Y-14699062D02*
X6828348Y-14680014D01*
X6828348Y-14680014D02*
X6847396Y-14670490D01*
X6847396Y-14670490D02*
X6875967Y-14670490D01*
X6875967Y-14670490D02*
X6895015Y-14680014D01*
X7142634Y-14727633D02*
X7295015Y-14727633D01*
X7218824Y-14803824D02*
X7218824Y-14651443D01*
X7628348Y-14670490D02*
X7628348Y-14803824D01*
X7580729Y-14594300D02*
X7533110Y-14737157D01*
X7533110Y-14737157D02*
X7656919Y-14737157D01*
X7875967Y-14794300D02*
X7895015Y-14803824D01*
X7895015Y-14803824D02*
X7933110Y-14803824D01*
X7933110Y-14803824D02*
X7952158Y-14794300D01*
X7952158Y-14794300D02*
X7961681Y-14775252D01*
X7961681Y-14775252D02*
X7961681Y-14765728D01*
X7961681Y-14765728D02*
X7952158Y-14746681D01*
X7952158Y-14746681D02*
X7933110Y-14737157D01*
X7933110Y-14737157D02*
X7904539Y-14737157D01*
X7904539Y-14737157D02*
X7885491Y-14727633D01*
X7885491Y-14727633D02*
X7875967Y-14708586D01*
X7875967Y-14708586D02*
X7875967Y-14699062D01*
X7875967Y-14699062D02*
X7885491Y-14680014D01*
X7885491Y-14680014D02*
X7904539Y-14670490D01*
X7904539Y-14670490D02*
X7933110Y-14670490D01*
X7933110Y-14670490D02*
X7952158Y-14680014D01*
X8075967Y-14803824D02*
X8056920Y-14794300D01*
X8056920Y-14794300D02*
X8047396Y-14775252D01*
X8047396Y-14775252D02*
X8047396Y-14603824D01*
X8180729Y-14803824D02*
X8161681Y-14794300D01*
X8161681Y-14794300D02*
X8152158Y-14784776D01*
X8152158Y-14784776D02*
X8142634Y-14765728D01*
X8142634Y-14765728D02*
X8142634Y-14708586D01*
X8142634Y-14708586D02*
X8152158Y-14689538D01*
X8152158Y-14689538D02*
X8161681Y-14680014D01*
X8161681Y-14680014D02*
X8180729Y-14670490D01*
X8180729Y-14670490D02*
X8209301Y-14670490D01*
X8209301Y-14670490D02*
X8228348Y-14680014D01*
X8228348Y-14680014D02*
X8237872Y-14689538D01*
X8237872Y-14689538D02*
X8247396Y-14708586D01*
X8247396Y-14708586D02*
X8247396Y-14765728D01*
X8247396Y-14765728D02*
X8237872Y-14784776D01*
X8237872Y-14784776D02*
X8228348Y-14794300D01*
X8228348Y-14794300D02*
X8209301Y-14803824D01*
X8209301Y-14803824D02*
X8180729Y-14803824D01*
X8304539Y-14670490D02*
X8380729Y-14670490D01*
X8333110Y-14603824D02*
X8333110Y-14775252D01*
X8333110Y-14775252D02*
X8342634Y-14794300D01*
X8342634Y-14794300D02*
X8361681Y-14803824D01*
X8361681Y-14803824D02*
X8380729Y-14803824D01*
X8437872Y-14794300D02*
X8456920Y-14803824D01*
X8456920Y-14803824D02*
X8495015Y-14803824D01*
X8495015Y-14803824D02*
X8514063Y-14794300D01*
X8514063Y-14794300D02*
X8523586Y-14775252D01*
X8523586Y-14775252D02*
X8523586Y-14765728D01*
X8523586Y-14765728D02*
X8514063Y-14746681D01*
X8514063Y-14746681D02*
X8495015Y-14737157D01*
X8495015Y-14737157D02*
X8466443Y-14737157D01*
X8466443Y-14737157D02*
X8447396Y-14727633D01*
X8447396Y-14727633D02*
X8437872Y-14708586D01*
X8437872Y-14708586D02*
X8437872Y-14699062D01*
X8437872Y-14699062D02*
X8447396Y-14680014D01*
X8447396Y-14680014D02*
X8466443Y-14670490D01*
X8466443Y-14670490D02*
X8495015Y-14670490D01*
X8495015Y-14670490D02*
X8514063Y-14680014D01*
X8590253Y-14880014D02*
X8599777Y-14870490D01*
X8599777Y-14870490D02*
X8618824Y-14841919D01*
X8618824Y-14841919D02*
X8628348Y-14822871D01*
X8628348Y-14822871D02*
X8637872Y-14794300D01*
X8637872Y-14794300D02*
X8647396Y-14746681D01*
X8647396Y-14746681D02*
X8647396Y-14708586D01*
X8647396Y-14708586D02*
X8637872Y-14660967D01*
X8637872Y-14660967D02*
X8628348Y-14632395D01*
X8628348Y-14632395D02*
X8618824Y-14613348D01*
X8618824Y-14613348D02*
X8599777Y-14584776D01*
X8599777Y-14584776D02*
X8590253Y-14575252D01*
D17*
X2114300Y-14927800D02*
X2209300Y-15022800D01*
X2209300Y-14927800D02*
X2114300Y-15022800D01*
X2161800Y-14927800D02*
X2161800Y-15022800D01*
X2114300Y-14975300D02*
X2209300Y-14975300D01*
D11*
X2495014Y-14867824D02*
X2514062Y-14867824D01*
X2514062Y-14867824D02*
X2533110Y-14877348D01*
X2533110Y-14877348D02*
X2542633Y-14886871D01*
X2542633Y-14886871D02*
X2552157Y-14905919D01*
X2552157Y-14905919D02*
X2561681Y-14944014D01*
X2561681Y-14944014D02*
X2561681Y-14991633D01*
X2561681Y-14991633D02*
X2552157Y-15029728D01*
X2552157Y-15029728D02*
X2542633Y-15048776D01*
X2542633Y-15048776D02*
X2533110Y-15058300D01*
X2533110Y-15058300D02*
X2514062Y-15067824D01*
X2514062Y-15067824D02*
X2495014Y-15067824D01*
X2495014Y-15067824D02*
X2475967Y-15058300D01*
X2475967Y-15058300D02*
X2466443Y-15048776D01*
X2466443Y-15048776D02*
X2456919Y-15029728D01*
X2456919Y-15029728D02*
X2447395Y-14991633D01*
X2447395Y-14991633D02*
X2447395Y-14944014D01*
X2447395Y-14944014D02*
X2456919Y-14905919D01*
X2456919Y-14905919D02*
X2466443Y-14886871D01*
X2466443Y-14886871D02*
X2475967Y-14877348D01*
X2475967Y-14877348D02*
X2495014Y-14867824D01*
X2647395Y-15048776D02*
X2656919Y-15058300D01*
X2656919Y-15058300D02*
X2647395Y-15067824D01*
X2647395Y-15067824D02*
X2637871Y-15058300D01*
X2637871Y-15058300D02*
X2647395Y-15048776D01*
X2647395Y-15048776D02*
X2647395Y-15067824D01*
X2752157Y-15067824D02*
X2790252Y-15067824D01*
X2790252Y-15067824D02*
X2809300Y-15058300D01*
X2809300Y-15058300D02*
X2818824Y-15048776D01*
X2818824Y-15048776D02*
X2837871Y-15020205D01*
X2837871Y-15020205D02*
X2847395Y-14982109D01*
X2847395Y-14982109D02*
X2847395Y-14905919D01*
X2847395Y-14905919D02*
X2837871Y-14886871D01*
X2837871Y-14886871D02*
X2828348Y-14877348D01*
X2828348Y-14877348D02*
X2809300Y-14867824D01*
X2809300Y-14867824D02*
X2771205Y-14867824D01*
X2771205Y-14867824D02*
X2752157Y-14877348D01*
X2752157Y-14877348D02*
X2742633Y-14886871D01*
X2742633Y-14886871D02*
X2733110Y-14905919D01*
X2733110Y-14905919D02*
X2733110Y-14953538D01*
X2733110Y-14953538D02*
X2742633Y-14972586D01*
X2742633Y-14972586D02*
X2752157Y-14982109D01*
X2752157Y-14982109D02*
X2771205Y-14991633D01*
X2771205Y-14991633D02*
X2809300Y-14991633D01*
X2809300Y-14991633D02*
X2828348Y-14982109D01*
X2828348Y-14982109D02*
X2837871Y-14972586D01*
X2837871Y-14972586D02*
X2847395Y-14953538D01*
X3028348Y-14867824D02*
X2933109Y-14867824D01*
X2933109Y-14867824D02*
X2923586Y-14963062D01*
X2923586Y-14963062D02*
X2933109Y-14953538D01*
X2933109Y-14953538D02*
X2952157Y-14944014D01*
X2952157Y-14944014D02*
X2999776Y-14944014D01*
X2999776Y-14944014D02*
X3018824Y-14953538D01*
X3018824Y-14953538D02*
X3028348Y-14963062D01*
X3028348Y-14963062D02*
X3037871Y-14982109D01*
X3037871Y-14982109D02*
X3037871Y-15029728D01*
X3037871Y-15029728D02*
X3028348Y-15048776D01*
X3028348Y-15048776D02*
X3018824Y-15058300D01*
X3018824Y-15058300D02*
X2999776Y-15067824D01*
X2999776Y-15067824D02*
X2952157Y-15067824D01*
X2952157Y-15067824D02*
X2933109Y-15058300D01*
X2933109Y-15058300D02*
X2923586Y-15048776D01*
X3161681Y-14867824D02*
X3180729Y-14867824D01*
X3180729Y-14867824D02*
X3199776Y-14877348D01*
X3199776Y-14877348D02*
X3209300Y-14886871D01*
X3209300Y-14886871D02*
X3218824Y-14905919D01*
X3218824Y-14905919D02*
X3228348Y-14944014D01*
X3228348Y-14944014D02*
X3228348Y-14991633D01*
X3228348Y-14991633D02*
X3218824Y-15029728D01*
X3218824Y-15029728D02*
X3209300Y-15048776D01*
X3209300Y-15048776D02*
X3199776Y-15058300D01*
X3199776Y-15058300D02*
X3180729Y-15067824D01*
X3180729Y-15067824D02*
X3161681Y-15067824D01*
X3161681Y-15067824D02*
X3142633Y-15058300D01*
X3142633Y-15058300D02*
X3133109Y-15048776D01*
X3133109Y-15048776D02*
X3123586Y-15029728D01*
X3123586Y-15029728D02*
X3114062Y-14991633D01*
X3114062Y-14991633D02*
X3114062Y-14944014D01*
X3114062Y-14944014D02*
X3123586Y-14905919D01*
X3123586Y-14905919D02*
X3133109Y-14886871D01*
X3133109Y-14886871D02*
X3142633Y-14877348D01*
X3142633Y-14877348D02*
X3161681Y-14867824D01*
X3314062Y-15067824D02*
X3314062Y-14934490D01*
X3314062Y-14953538D02*
X3323586Y-14944014D01*
X3323586Y-14944014D02*
X3342633Y-14934490D01*
X3342633Y-14934490D02*
X3371205Y-14934490D01*
X3371205Y-14934490D02*
X3390252Y-14944014D01*
X3390252Y-14944014D02*
X3399776Y-14963062D01*
X3399776Y-14963062D02*
X3399776Y-15067824D01*
X3399776Y-14963062D02*
X3409300Y-14944014D01*
X3409300Y-14944014D02*
X3428348Y-14934490D01*
X3428348Y-14934490D02*
X3456919Y-14934490D01*
X3456919Y-14934490D02*
X3475967Y-14944014D01*
X3475967Y-14944014D02*
X3485490Y-14963062D01*
X3485490Y-14963062D02*
X3485490Y-15067824D01*
X3580729Y-15067824D02*
X3580729Y-14934490D01*
X3580729Y-14953538D02*
X3590252Y-14944014D01*
X3590252Y-14944014D02*
X3609300Y-14934490D01*
X3609300Y-14934490D02*
X3637871Y-14934490D01*
X3637871Y-14934490D02*
X3656919Y-14944014D01*
X3656919Y-14944014D02*
X3666443Y-14963062D01*
X3666443Y-14963062D02*
X3666443Y-15067824D01*
X3666443Y-14963062D02*
X3675967Y-14944014D01*
X3675967Y-14944014D02*
X3695014Y-14934490D01*
X3695014Y-14934490D02*
X3723586Y-14934490D01*
X3723586Y-14934490D02*
X3742633Y-14944014D01*
X3742633Y-14944014D02*
X3752157Y-14963062D01*
X3752157Y-14963062D02*
X3752157Y-15067824D01*
X4142633Y-14858300D02*
X3971205Y-15115443D01*
X4399776Y-14867824D02*
X4418824Y-14867824D01*
X4418824Y-14867824D02*
X4437872Y-14877348D01*
X4437872Y-14877348D02*
X4447395Y-14886871D01*
X4447395Y-14886871D02*
X4456919Y-14905919D01*
X4456919Y-14905919D02*
X4466443Y-14944014D01*
X4466443Y-14944014D02*
X4466443Y-14991633D01*
X4466443Y-14991633D02*
X4456919Y-15029728D01*
X4456919Y-15029728D02*
X4447395Y-15048776D01*
X4447395Y-15048776D02*
X4437872Y-15058300D01*
X4437872Y-15058300D02*
X4418824Y-15067824D01*
X4418824Y-15067824D02*
X4399776Y-15067824D01*
X4399776Y-15067824D02*
X4380729Y-15058300D01*
X4380729Y-15058300D02*
X4371205Y-15048776D01*
X4371205Y-15048776D02*
X4361681Y-15029728D01*
X4361681Y-15029728D02*
X4352157Y-14991633D01*
X4352157Y-14991633D02*
X4352157Y-14944014D01*
X4352157Y-14944014D02*
X4361681Y-14905919D01*
X4361681Y-14905919D02*
X4371205Y-14886871D01*
X4371205Y-14886871D02*
X4380729Y-14877348D01*
X4380729Y-14877348D02*
X4399776Y-14867824D01*
X4552157Y-15048776D02*
X4561681Y-15058300D01*
X4561681Y-15058300D02*
X4552157Y-15067824D01*
X4552157Y-15067824D02*
X4542634Y-15058300D01*
X4542634Y-15058300D02*
X4552157Y-15048776D01*
X4552157Y-15048776D02*
X4552157Y-15067824D01*
X4685491Y-14867824D02*
X4704538Y-14867824D01*
X4704538Y-14867824D02*
X4723586Y-14877348D01*
X4723586Y-14877348D02*
X4733110Y-14886871D01*
X4733110Y-14886871D02*
X4742634Y-14905919D01*
X4742634Y-14905919D02*
X4752157Y-14944014D01*
X4752157Y-14944014D02*
X4752157Y-14991633D01*
X4752157Y-14991633D02*
X4742634Y-15029728D01*
X4742634Y-15029728D02*
X4733110Y-15048776D01*
X4733110Y-15048776D02*
X4723586Y-15058300D01*
X4723586Y-15058300D02*
X4704538Y-15067824D01*
X4704538Y-15067824D02*
X4685491Y-15067824D01*
X4685491Y-15067824D02*
X4666443Y-15058300D01*
X4666443Y-15058300D02*
X4656919Y-15048776D01*
X4656919Y-15048776D02*
X4647395Y-15029728D01*
X4647395Y-15029728D02*
X4637872Y-14991633D01*
X4637872Y-14991633D02*
X4637872Y-14944014D01*
X4637872Y-14944014D02*
X4647395Y-14905919D01*
X4647395Y-14905919D02*
X4656919Y-14886871D01*
X4656919Y-14886871D02*
X4666443Y-14877348D01*
X4666443Y-14877348D02*
X4685491Y-14867824D01*
X4818824Y-14867824D02*
X4942634Y-14867824D01*
X4942634Y-14867824D02*
X4875967Y-14944014D01*
X4875967Y-14944014D02*
X4904538Y-14944014D01*
X4904538Y-14944014D02*
X4923586Y-14953538D01*
X4923586Y-14953538D02*
X4933110Y-14963062D01*
X4933110Y-14963062D02*
X4942634Y-14982109D01*
X4942634Y-14982109D02*
X4942634Y-15029728D01*
X4942634Y-15029728D02*
X4933110Y-15048776D01*
X4933110Y-15048776D02*
X4923586Y-15058300D01*
X4923586Y-15058300D02*
X4904538Y-15067824D01*
X4904538Y-15067824D02*
X4847395Y-15067824D01*
X4847395Y-15067824D02*
X4828348Y-15058300D01*
X4828348Y-15058300D02*
X4818824Y-15048776D01*
X5009300Y-14867824D02*
X5142634Y-14867824D01*
X5142634Y-14867824D02*
X5056919Y-15067824D01*
X5304538Y-14934490D02*
X5304538Y-15067824D01*
X5256919Y-14858300D02*
X5209300Y-15001157D01*
X5209300Y-15001157D02*
X5333110Y-15001157D01*
X5399776Y-14867824D02*
X5399776Y-14905919D01*
X5475967Y-14867824D02*
X5475967Y-14905919D01*
X5771205Y-15144014D02*
X5761681Y-15134490D01*
X5761681Y-15134490D02*
X5742634Y-15105919D01*
X5742634Y-15105919D02*
X5733110Y-15086871D01*
X5733110Y-15086871D02*
X5723586Y-15058300D01*
X5723586Y-15058300D02*
X5714062Y-15010681D01*
X5714062Y-15010681D02*
X5714062Y-14972586D01*
X5714062Y-14972586D02*
X5723586Y-14924967D01*
X5723586Y-14924967D02*
X5733110Y-14896395D01*
X5733110Y-14896395D02*
X5742634Y-14877348D01*
X5742634Y-14877348D02*
X5761681Y-14848776D01*
X5761681Y-14848776D02*
X5771205Y-14839252D01*
X5933110Y-14934490D02*
X5933110Y-15067824D01*
X5885491Y-14858300D02*
X5837872Y-15001157D01*
X5837872Y-15001157D02*
X5961681Y-15001157D01*
X6190253Y-15067824D02*
X6190253Y-14867824D01*
X6275967Y-15067824D02*
X6275967Y-14963062D01*
X6275967Y-14963062D02*
X6266443Y-14944014D01*
X6266443Y-14944014D02*
X6247396Y-14934490D01*
X6247396Y-14934490D02*
X6218824Y-14934490D01*
X6218824Y-14934490D02*
X6199776Y-14944014D01*
X6199776Y-14944014D02*
X6190253Y-14953538D01*
X6399776Y-15067824D02*
X6380729Y-15058300D01*
X6380729Y-15058300D02*
X6371205Y-15048776D01*
X6371205Y-15048776D02*
X6361681Y-15029728D01*
X6361681Y-15029728D02*
X6361681Y-14972586D01*
X6361681Y-14972586D02*
X6371205Y-14953538D01*
X6371205Y-14953538D02*
X6380729Y-14944014D01*
X6380729Y-14944014D02*
X6399776Y-14934490D01*
X6399776Y-14934490D02*
X6428348Y-14934490D01*
X6428348Y-14934490D02*
X6447396Y-14944014D01*
X6447396Y-14944014D02*
X6456919Y-14953538D01*
X6456919Y-14953538D02*
X6466443Y-14972586D01*
X6466443Y-14972586D02*
X6466443Y-15029728D01*
X6466443Y-15029728D02*
X6456919Y-15048776D01*
X6456919Y-15048776D02*
X6447396Y-15058300D01*
X6447396Y-15058300D02*
X6428348Y-15067824D01*
X6428348Y-15067824D02*
X6399776Y-15067824D01*
X6580729Y-15067824D02*
X6561681Y-15058300D01*
X6561681Y-15058300D02*
X6552157Y-15039252D01*
X6552157Y-15039252D02*
X6552157Y-14867824D01*
X6733110Y-15058300D02*
X6714062Y-15067824D01*
X6714062Y-15067824D02*
X6675967Y-15067824D01*
X6675967Y-15067824D02*
X6656919Y-15058300D01*
X6656919Y-15058300D02*
X6647396Y-15039252D01*
X6647396Y-15039252D02*
X6647396Y-14963062D01*
X6647396Y-14963062D02*
X6656919Y-14944014D01*
X6656919Y-14944014D02*
X6675967Y-14934490D01*
X6675967Y-14934490D02*
X6714062Y-14934490D01*
X6714062Y-14934490D02*
X6733110Y-14944014D01*
X6733110Y-14944014D02*
X6742634Y-14963062D01*
X6742634Y-14963062D02*
X6742634Y-14982109D01*
X6742634Y-14982109D02*
X6647396Y-15001157D01*
X6818824Y-15058300D02*
X6837872Y-15067824D01*
X6837872Y-15067824D02*
X6875967Y-15067824D01*
X6875967Y-15067824D02*
X6895015Y-15058300D01*
X6895015Y-15058300D02*
X6904538Y-15039252D01*
X6904538Y-15039252D02*
X6904538Y-15029728D01*
X6904538Y-15029728D02*
X6895015Y-15010681D01*
X6895015Y-15010681D02*
X6875967Y-15001157D01*
X6875967Y-15001157D02*
X6847396Y-15001157D01*
X6847396Y-15001157D02*
X6828348Y-14991633D01*
X6828348Y-14991633D02*
X6818824Y-14972586D01*
X6818824Y-14972586D02*
X6818824Y-14963062D01*
X6818824Y-14963062D02*
X6828348Y-14944014D01*
X6828348Y-14944014D02*
X6847396Y-14934490D01*
X6847396Y-14934490D02*
X6875967Y-14934490D01*
X6875967Y-14934490D02*
X6895015Y-14944014D01*
X6971205Y-15144014D02*
X6980729Y-15134490D01*
X6980729Y-15134490D02*
X6999777Y-15105919D01*
X6999777Y-15105919D02*
X7009300Y-15086871D01*
X7009300Y-15086871D02*
X7018824Y-15058300D01*
X7018824Y-15058300D02*
X7028348Y-15010681D01*
X7028348Y-15010681D02*
X7028348Y-14972586D01*
X7028348Y-14972586D02*
X7018824Y-14924967D01*
X7018824Y-14924967D02*
X7009300Y-14896395D01*
X7009300Y-14896395D02*
X6999777Y-14877348D01*
X6999777Y-14877348D02*
X6980729Y-14848776D01*
X6980729Y-14848776D02*
X6971205Y-14839252D01*
D18*
X2109300Y-15189300D02*
X2209300Y-15289300D01*
X2209300Y-15189300D02*
X2109300Y-15289300D01*
X2194656Y-15274656D02*
X2194656Y-15203944D01*
X2123944Y-15203944D01*
X2123944Y-15274656D01*
X2194656Y-15274656D01*
D11*
X2561681Y-15331824D02*
X2447395Y-15331824D01*
X2504538Y-15331824D02*
X2504538Y-15131824D01*
X2504538Y-15131824D02*
X2485490Y-15160395D01*
X2485490Y-15160395D02*
X2466443Y-15179443D01*
X2466443Y-15179443D02*
X2447395Y-15188967D01*
X2647395Y-15312776D02*
X2656919Y-15322300D01*
X2656919Y-15322300D02*
X2647395Y-15331824D01*
X2647395Y-15331824D02*
X2637871Y-15322300D01*
X2637871Y-15322300D02*
X2647395Y-15312776D01*
X2647395Y-15312776D02*
X2647395Y-15331824D01*
X2780729Y-15131824D02*
X2799776Y-15131824D01*
X2799776Y-15131824D02*
X2818824Y-15141348D01*
X2818824Y-15141348D02*
X2828348Y-15150871D01*
X2828348Y-15150871D02*
X2837871Y-15169919D01*
X2837871Y-15169919D02*
X2847395Y-15208014D01*
X2847395Y-15208014D02*
X2847395Y-15255633D01*
X2847395Y-15255633D02*
X2837871Y-15293728D01*
X2837871Y-15293728D02*
X2828348Y-15312776D01*
X2828348Y-15312776D02*
X2818824Y-15322300D01*
X2818824Y-15322300D02*
X2799776Y-15331824D01*
X2799776Y-15331824D02*
X2780729Y-15331824D01*
X2780729Y-15331824D02*
X2761681Y-15322300D01*
X2761681Y-15322300D02*
X2752157Y-15312776D01*
X2752157Y-15312776D02*
X2742633Y-15293728D01*
X2742633Y-15293728D02*
X2733110Y-15255633D01*
X2733110Y-15255633D02*
X2733110Y-15208014D01*
X2733110Y-15208014D02*
X2742633Y-15169919D01*
X2742633Y-15169919D02*
X2752157Y-15150871D01*
X2752157Y-15150871D02*
X2761681Y-15141348D01*
X2761681Y-15141348D02*
X2780729Y-15131824D01*
X2971205Y-15131824D02*
X2990252Y-15131824D01*
X2990252Y-15131824D02*
X3009300Y-15141348D01*
X3009300Y-15141348D02*
X3018824Y-15150871D01*
X3018824Y-15150871D02*
X3028348Y-15169919D01*
X3028348Y-15169919D02*
X3037871Y-15208014D01*
X3037871Y-15208014D02*
X3037871Y-15255633D01*
X3037871Y-15255633D02*
X3028348Y-15293728D01*
X3028348Y-15293728D02*
X3018824Y-15312776D01*
X3018824Y-15312776D02*
X3009300Y-15322300D01*
X3009300Y-15322300D02*
X2990252Y-15331824D01*
X2990252Y-15331824D02*
X2971205Y-15331824D01*
X2971205Y-15331824D02*
X2952157Y-15322300D01*
X2952157Y-15322300D02*
X2942633Y-15312776D01*
X2942633Y-15312776D02*
X2933109Y-15293728D01*
X2933109Y-15293728D02*
X2923586Y-15255633D01*
X2923586Y-15255633D02*
X2923586Y-15208014D01*
X2923586Y-15208014D02*
X2933109Y-15169919D01*
X2933109Y-15169919D02*
X2942633Y-15150871D01*
X2942633Y-15150871D02*
X2952157Y-15141348D01*
X2952157Y-15141348D02*
X2971205Y-15131824D01*
X3161681Y-15131824D02*
X3180729Y-15131824D01*
X3180729Y-15131824D02*
X3199776Y-15141348D01*
X3199776Y-15141348D02*
X3209300Y-15150871D01*
X3209300Y-15150871D02*
X3218824Y-15169919D01*
X3218824Y-15169919D02*
X3228348Y-15208014D01*
X3228348Y-15208014D02*
X3228348Y-15255633D01*
X3228348Y-15255633D02*
X3218824Y-15293728D01*
X3218824Y-15293728D02*
X3209300Y-15312776D01*
X3209300Y-15312776D02*
X3199776Y-15322300D01*
X3199776Y-15322300D02*
X3180729Y-15331824D01*
X3180729Y-15331824D02*
X3161681Y-15331824D01*
X3161681Y-15331824D02*
X3142633Y-15322300D01*
X3142633Y-15322300D02*
X3133109Y-15312776D01*
X3133109Y-15312776D02*
X3123586Y-15293728D01*
X3123586Y-15293728D02*
X3114062Y-15255633D01*
X3114062Y-15255633D02*
X3114062Y-15208014D01*
X3114062Y-15208014D02*
X3123586Y-15169919D01*
X3123586Y-15169919D02*
X3133109Y-15150871D01*
X3133109Y-15150871D02*
X3142633Y-15141348D01*
X3142633Y-15141348D02*
X3161681Y-15131824D01*
X3314062Y-15331824D02*
X3314062Y-15198490D01*
X3314062Y-15217538D02*
X3323586Y-15208014D01*
X3323586Y-15208014D02*
X3342633Y-15198490D01*
X3342633Y-15198490D02*
X3371205Y-15198490D01*
X3371205Y-15198490D02*
X3390252Y-15208014D01*
X3390252Y-15208014D02*
X3399776Y-15227062D01*
X3399776Y-15227062D02*
X3399776Y-15331824D01*
X3399776Y-15227062D02*
X3409300Y-15208014D01*
X3409300Y-15208014D02*
X3428348Y-15198490D01*
X3428348Y-15198490D02*
X3456919Y-15198490D01*
X3456919Y-15198490D02*
X3475967Y-15208014D01*
X3475967Y-15208014D02*
X3485490Y-15227062D01*
X3485490Y-15227062D02*
X3485490Y-15331824D01*
X3580729Y-15331824D02*
X3580729Y-15198490D01*
X3580729Y-15217538D02*
X3590252Y-15208014D01*
X3590252Y-15208014D02*
X3609300Y-15198490D01*
X3609300Y-15198490D02*
X3637871Y-15198490D01*
X3637871Y-15198490D02*
X3656919Y-15208014D01*
X3656919Y-15208014D02*
X3666443Y-15227062D01*
X3666443Y-15227062D02*
X3666443Y-15331824D01*
X3666443Y-15227062D02*
X3675967Y-15208014D01*
X3675967Y-15208014D02*
X3695014Y-15198490D01*
X3695014Y-15198490D02*
X3723586Y-15198490D01*
X3723586Y-15198490D02*
X3742633Y-15208014D01*
X3742633Y-15208014D02*
X3752157Y-15227062D01*
X3752157Y-15227062D02*
X3752157Y-15331824D01*
X4142633Y-15122300D02*
X3971205Y-15379443D01*
X4399776Y-15131824D02*
X4418824Y-15131824D01*
X4418824Y-15131824D02*
X4437872Y-15141348D01*
X4437872Y-15141348D02*
X4447395Y-15150871D01*
X4447395Y-15150871D02*
X4456919Y-15169919D01*
X4456919Y-15169919D02*
X4466443Y-15208014D01*
X4466443Y-15208014D02*
X4466443Y-15255633D01*
X4466443Y-15255633D02*
X4456919Y-15293728D01*
X4456919Y-15293728D02*
X4447395Y-15312776D01*
X4447395Y-15312776D02*
X4437872Y-15322300D01*
X4437872Y-15322300D02*
X4418824Y-15331824D01*
X4418824Y-15331824D02*
X4399776Y-15331824D01*
X4399776Y-15331824D02*
X4380729Y-15322300D01*
X4380729Y-15322300D02*
X4371205Y-15312776D01*
X4371205Y-15312776D02*
X4361681Y-15293728D01*
X4361681Y-15293728D02*
X4352157Y-15255633D01*
X4352157Y-15255633D02*
X4352157Y-15208014D01*
X4352157Y-15208014D02*
X4361681Y-15169919D01*
X4361681Y-15169919D02*
X4371205Y-15150871D01*
X4371205Y-15150871D02*
X4380729Y-15141348D01*
X4380729Y-15141348D02*
X4399776Y-15131824D01*
X4552157Y-15312776D02*
X4561681Y-15322300D01*
X4561681Y-15322300D02*
X4552157Y-15331824D01*
X4552157Y-15331824D02*
X4542634Y-15322300D01*
X4542634Y-15322300D02*
X4552157Y-15312776D01*
X4552157Y-15312776D02*
X4552157Y-15331824D01*
X4685491Y-15131824D02*
X4704538Y-15131824D01*
X4704538Y-15131824D02*
X4723586Y-15141348D01*
X4723586Y-15141348D02*
X4733110Y-15150871D01*
X4733110Y-15150871D02*
X4742634Y-15169919D01*
X4742634Y-15169919D02*
X4752157Y-15208014D01*
X4752157Y-15208014D02*
X4752157Y-15255633D01*
X4752157Y-15255633D02*
X4742634Y-15293728D01*
X4742634Y-15293728D02*
X4733110Y-15312776D01*
X4733110Y-15312776D02*
X4723586Y-15322300D01*
X4723586Y-15322300D02*
X4704538Y-15331824D01*
X4704538Y-15331824D02*
X4685491Y-15331824D01*
X4685491Y-15331824D02*
X4666443Y-15322300D01*
X4666443Y-15322300D02*
X4656919Y-15312776D01*
X4656919Y-15312776D02*
X4647395Y-15293728D01*
X4647395Y-15293728D02*
X4637872Y-15255633D01*
X4637872Y-15255633D02*
X4637872Y-15208014D01*
X4637872Y-15208014D02*
X4647395Y-15169919D01*
X4647395Y-15169919D02*
X4656919Y-15150871D01*
X4656919Y-15150871D02*
X4666443Y-15141348D01*
X4666443Y-15141348D02*
X4685491Y-15131824D01*
X4818824Y-15131824D02*
X4942634Y-15131824D01*
X4942634Y-15131824D02*
X4875967Y-15208014D01*
X4875967Y-15208014D02*
X4904538Y-15208014D01*
X4904538Y-15208014D02*
X4923586Y-15217538D01*
X4923586Y-15217538D02*
X4933110Y-15227062D01*
X4933110Y-15227062D02*
X4942634Y-15246109D01*
X4942634Y-15246109D02*
X4942634Y-15293728D01*
X4942634Y-15293728D02*
X4933110Y-15312776D01*
X4933110Y-15312776D02*
X4923586Y-15322300D01*
X4923586Y-15322300D02*
X4904538Y-15331824D01*
X4904538Y-15331824D02*
X4847395Y-15331824D01*
X4847395Y-15331824D02*
X4828348Y-15322300D01*
X4828348Y-15322300D02*
X4818824Y-15312776D01*
X5037872Y-15331824D02*
X5075967Y-15331824D01*
X5075967Y-15331824D02*
X5095015Y-15322300D01*
X5095015Y-15322300D02*
X5104538Y-15312776D01*
X5104538Y-15312776D02*
X5123586Y-15284205D01*
X5123586Y-15284205D02*
X5133110Y-15246109D01*
X5133110Y-15246109D02*
X5133110Y-15169919D01*
X5133110Y-15169919D02*
X5123586Y-15150871D01*
X5123586Y-15150871D02*
X5114062Y-15141348D01*
X5114062Y-15141348D02*
X5095015Y-15131824D01*
X5095015Y-15131824D02*
X5056919Y-15131824D01*
X5056919Y-15131824D02*
X5037872Y-15141348D01*
X5037872Y-15141348D02*
X5028348Y-15150871D01*
X5028348Y-15150871D02*
X5018824Y-15169919D01*
X5018824Y-15169919D02*
X5018824Y-15217538D01*
X5018824Y-15217538D02*
X5028348Y-15236586D01*
X5028348Y-15236586D02*
X5037872Y-15246109D01*
X5037872Y-15246109D02*
X5056919Y-15255633D01*
X5056919Y-15255633D02*
X5095015Y-15255633D01*
X5095015Y-15255633D02*
X5114062Y-15246109D01*
X5114062Y-15246109D02*
X5123586Y-15236586D01*
X5123586Y-15236586D02*
X5133110Y-15217538D01*
X5304538Y-15198490D02*
X5304538Y-15331824D01*
X5256919Y-15122300D02*
X5209300Y-15265157D01*
X5209300Y-15265157D02*
X5333110Y-15265157D01*
X5399776Y-15131824D02*
X5399776Y-15169919D01*
X5475967Y-15131824D02*
X5475967Y-15169919D01*
X5771205Y-15408014D02*
X5761681Y-15398490D01*
X5761681Y-15398490D02*
X5742634Y-15369919D01*
X5742634Y-15369919D02*
X5733110Y-15350871D01*
X5733110Y-15350871D02*
X5723586Y-15322300D01*
X5723586Y-15322300D02*
X5714062Y-15274681D01*
X5714062Y-15274681D02*
X5714062Y-15236586D01*
X5714062Y-15236586D02*
X5723586Y-15188967D01*
X5723586Y-15188967D02*
X5733110Y-15160395D01*
X5733110Y-15160395D02*
X5742634Y-15141348D01*
X5742634Y-15141348D02*
X5761681Y-15112776D01*
X5761681Y-15112776D02*
X5771205Y-15103252D01*
X5952157Y-15331824D02*
X5837872Y-15331824D01*
X5895014Y-15331824D02*
X5895014Y-15131824D01*
X5895014Y-15131824D02*
X5875967Y-15160395D01*
X5875967Y-15160395D02*
X5856919Y-15179443D01*
X5856919Y-15179443D02*
X5837872Y-15188967D01*
X6123586Y-15198490D02*
X6123586Y-15331824D01*
X6075967Y-15122300D02*
X6028348Y-15265157D01*
X6028348Y-15265157D02*
X6152157Y-15265157D01*
X6218824Y-15150871D02*
X6228348Y-15141348D01*
X6228348Y-15141348D02*
X6247395Y-15131824D01*
X6247395Y-15131824D02*
X6295015Y-15131824D01*
X6295015Y-15131824D02*
X6314062Y-15141348D01*
X6314062Y-15141348D02*
X6323586Y-15150871D01*
X6323586Y-15150871D02*
X6333110Y-15169919D01*
X6333110Y-15169919D02*
X6333110Y-15188967D01*
X6333110Y-15188967D02*
X6323586Y-15217538D01*
X6323586Y-15217538D02*
X6209300Y-15331824D01*
X6209300Y-15331824D02*
X6333110Y-15331824D01*
X6571205Y-15331824D02*
X6571205Y-15131824D01*
X6656919Y-15331824D02*
X6656919Y-15227062D01*
X6656919Y-15227062D02*
X6647396Y-15208014D01*
X6647396Y-15208014D02*
X6628348Y-15198490D01*
X6628348Y-15198490D02*
X6599776Y-15198490D01*
X6599776Y-15198490D02*
X6580729Y-15208014D01*
X6580729Y-15208014D02*
X6571205Y-15217538D01*
X6780729Y-15331824D02*
X6761681Y-15322300D01*
X6761681Y-15322300D02*
X6752157Y-15312776D01*
X6752157Y-15312776D02*
X6742634Y-15293728D01*
X6742634Y-15293728D02*
X6742634Y-15236586D01*
X6742634Y-15236586D02*
X6752157Y-15217538D01*
X6752157Y-15217538D02*
X6761681Y-15208014D01*
X6761681Y-15208014D02*
X6780729Y-15198490D01*
X6780729Y-15198490D02*
X6809300Y-15198490D01*
X6809300Y-15198490D02*
X6828348Y-15208014D01*
X6828348Y-15208014D02*
X6837872Y-15217538D01*
X6837872Y-15217538D02*
X6847396Y-15236586D01*
X6847396Y-15236586D02*
X6847396Y-15293728D01*
X6847396Y-15293728D02*
X6837872Y-15312776D01*
X6837872Y-15312776D02*
X6828348Y-15322300D01*
X6828348Y-15322300D02*
X6809300Y-15331824D01*
X6809300Y-15331824D02*
X6780729Y-15331824D01*
X6961681Y-15331824D02*
X6942634Y-15322300D01*
X6942634Y-15322300D02*
X6933110Y-15303252D01*
X6933110Y-15303252D02*
X6933110Y-15131824D01*
X7114062Y-15322300D02*
X7095015Y-15331824D01*
X7095015Y-15331824D02*
X7056919Y-15331824D01*
X7056919Y-15331824D02*
X7037872Y-15322300D01*
X7037872Y-15322300D02*
X7028348Y-15303252D01*
X7028348Y-15303252D02*
X7028348Y-15227062D01*
X7028348Y-15227062D02*
X7037872Y-15208014D01*
X7037872Y-15208014D02*
X7056919Y-15198490D01*
X7056919Y-15198490D02*
X7095015Y-15198490D01*
X7095015Y-15198490D02*
X7114062Y-15208014D01*
X7114062Y-15208014D02*
X7123586Y-15227062D01*
X7123586Y-15227062D02*
X7123586Y-15246109D01*
X7123586Y-15246109D02*
X7028348Y-15265157D01*
X7199777Y-15322300D02*
X7218824Y-15331824D01*
X7218824Y-15331824D02*
X7256919Y-15331824D01*
X7256919Y-15331824D02*
X7275967Y-15322300D01*
X7275967Y-15322300D02*
X7285491Y-15303252D01*
X7285491Y-15303252D02*
X7285491Y-15293728D01*
X7285491Y-15293728D02*
X7275967Y-15274681D01*
X7275967Y-15274681D02*
X7256919Y-15265157D01*
X7256919Y-15265157D02*
X7228348Y-15265157D01*
X7228348Y-15265157D02*
X7209300Y-15255633D01*
X7209300Y-15255633D02*
X7199777Y-15236586D01*
X7199777Y-15236586D02*
X7199777Y-15227062D01*
X7199777Y-15227062D02*
X7209300Y-15208014D01*
X7209300Y-15208014D02*
X7228348Y-15198490D01*
X7228348Y-15198490D02*
X7256919Y-15198490D01*
X7256919Y-15198490D02*
X7275967Y-15208014D01*
X7352158Y-15408014D02*
X7361681Y-15398490D01*
X7361681Y-15398490D02*
X7380729Y-15369919D01*
X7380729Y-15369919D02*
X7390253Y-15350871D01*
X7390253Y-15350871D02*
X7399777Y-15322300D01*
X7399777Y-15322300D02*
X7409300Y-15274681D01*
X7409300Y-15274681D02*
X7409300Y-15236586D01*
X7409300Y-15236586D02*
X7399777Y-15188967D01*
X7399777Y-15188967D02*
X7390253Y-15160395D01*
X7390253Y-15160395D02*
X7380729Y-15141348D01*
X7380729Y-15141348D02*
X7361681Y-15112776D01*
X7361681Y-15112776D02*
X7352158Y-15103252D01*
X2009300Y-15403300D02*
X2209300Y-15603300D01*
X2209300Y-15403300D02*
X2009300Y-15603300D01*
X2109300Y-15603300D02*
X2209300Y-15503300D01*
X2109300Y-15403300D01*
X2009300Y-15503300D01*
X2109300Y-15603300D01*
X2447395Y-15414871D02*
X2456919Y-15405348D01*
X2456919Y-15405348D02*
X2475967Y-15395824D01*
X2475967Y-15395824D02*
X2523586Y-15395824D01*
X2523586Y-15395824D02*
X2542633Y-15405348D01*
X2542633Y-15405348D02*
X2552157Y-15414871D01*
X2552157Y-15414871D02*
X2561681Y-15433919D01*
X2561681Y-15433919D02*
X2561681Y-15452967D01*
X2561681Y-15452967D02*
X2552157Y-15481538D01*
X2552157Y-15481538D02*
X2437871Y-15595824D01*
X2437871Y-15595824D02*
X2561681Y-15595824D01*
X2647395Y-15576776D02*
X2656919Y-15586300D01*
X2656919Y-15586300D02*
X2647395Y-15595824D01*
X2647395Y-15595824D02*
X2637871Y-15586300D01*
X2637871Y-15586300D02*
X2647395Y-15576776D01*
X2647395Y-15576776D02*
X2647395Y-15595824D01*
X2723586Y-15395824D02*
X2847395Y-15395824D01*
X2847395Y-15395824D02*
X2780729Y-15472014D01*
X2780729Y-15472014D02*
X2809300Y-15472014D01*
X2809300Y-15472014D02*
X2828348Y-15481538D01*
X2828348Y-15481538D02*
X2837871Y-15491062D01*
X2837871Y-15491062D02*
X2847395Y-15510109D01*
X2847395Y-15510109D02*
X2847395Y-15557728D01*
X2847395Y-15557728D02*
X2837871Y-15576776D01*
X2837871Y-15576776D02*
X2828348Y-15586300D01*
X2828348Y-15586300D02*
X2809300Y-15595824D01*
X2809300Y-15595824D02*
X2752157Y-15595824D01*
X2752157Y-15595824D02*
X2733110Y-15586300D01*
X2733110Y-15586300D02*
X2723586Y-15576776D01*
X2971205Y-15395824D02*
X2990252Y-15395824D01*
X2990252Y-15395824D02*
X3009300Y-15405348D01*
X3009300Y-15405348D02*
X3018824Y-15414871D01*
X3018824Y-15414871D02*
X3028348Y-15433919D01*
X3028348Y-15433919D02*
X3037871Y-15472014D01*
X3037871Y-15472014D02*
X3037871Y-15519633D01*
X3037871Y-15519633D02*
X3028348Y-15557728D01*
X3028348Y-15557728D02*
X3018824Y-15576776D01*
X3018824Y-15576776D02*
X3009300Y-15586300D01*
X3009300Y-15586300D02*
X2990252Y-15595824D01*
X2990252Y-15595824D02*
X2971205Y-15595824D01*
X2971205Y-15595824D02*
X2952157Y-15586300D01*
X2952157Y-15586300D02*
X2942633Y-15576776D01*
X2942633Y-15576776D02*
X2933109Y-15557728D01*
X2933109Y-15557728D02*
X2923586Y-15519633D01*
X2923586Y-15519633D02*
X2923586Y-15472014D01*
X2923586Y-15472014D02*
X2933109Y-15433919D01*
X2933109Y-15433919D02*
X2942633Y-15414871D01*
X2942633Y-15414871D02*
X2952157Y-15405348D01*
X2952157Y-15405348D02*
X2971205Y-15395824D01*
X3161681Y-15395824D02*
X3180729Y-15395824D01*
X3180729Y-15395824D02*
X3199776Y-15405348D01*
X3199776Y-15405348D02*
X3209300Y-15414871D01*
X3209300Y-15414871D02*
X3218824Y-15433919D01*
X3218824Y-15433919D02*
X3228348Y-15472014D01*
X3228348Y-15472014D02*
X3228348Y-15519633D01*
X3228348Y-15519633D02*
X3218824Y-15557728D01*
X3218824Y-15557728D02*
X3209300Y-15576776D01*
X3209300Y-15576776D02*
X3199776Y-15586300D01*
X3199776Y-15586300D02*
X3180729Y-15595824D01*
X3180729Y-15595824D02*
X3161681Y-15595824D01*
X3161681Y-15595824D02*
X3142633Y-15586300D01*
X3142633Y-15586300D02*
X3133109Y-15576776D01*
X3133109Y-15576776D02*
X3123586Y-15557728D01*
X3123586Y-15557728D02*
X3114062Y-15519633D01*
X3114062Y-15519633D02*
X3114062Y-15472014D01*
X3114062Y-15472014D02*
X3123586Y-15433919D01*
X3123586Y-15433919D02*
X3133109Y-15414871D01*
X3133109Y-15414871D02*
X3142633Y-15405348D01*
X3142633Y-15405348D02*
X3161681Y-15395824D01*
X3314062Y-15595824D02*
X3314062Y-15462490D01*
X3314062Y-15481538D02*
X3323586Y-15472014D01*
X3323586Y-15472014D02*
X3342633Y-15462490D01*
X3342633Y-15462490D02*
X3371205Y-15462490D01*
X3371205Y-15462490D02*
X3390252Y-15472014D01*
X3390252Y-15472014D02*
X3399776Y-15491062D01*
X3399776Y-15491062D02*
X3399776Y-15595824D01*
X3399776Y-15491062D02*
X3409300Y-15472014D01*
X3409300Y-15472014D02*
X3428348Y-15462490D01*
X3428348Y-15462490D02*
X3456919Y-15462490D01*
X3456919Y-15462490D02*
X3475967Y-15472014D01*
X3475967Y-15472014D02*
X3485490Y-15491062D01*
X3485490Y-15491062D02*
X3485490Y-15595824D01*
X3580729Y-15595824D02*
X3580729Y-15462490D01*
X3580729Y-15481538D02*
X3590252Y-15472014D01*
X3590252Y-15472014D02*
X3609300Y-15462490D01*
X3609300Y-15462490D02*
X3637871Y-15462490D01*
X3637871Y-15462490D02*
X3656919Y-15472014D01*
X3656919Y-15472014D02*
X3666443Y-15491062D01*
X3666443Y-15491062D02*
X3666443Y-15595824D01*
X3666443Y-15491062D02*
X3675967Y-15472014D01*
X3675967Y-15472014D02*
X3695014Y-15462490D01*
X3695014Y-15462490D02*
X3723586Y-15462490D01*
X3723586Y-15462490D02*
X3742633Y-15472014D01*
X3742633Y-15472014D02*
X3752157Y-15491062D01*
X3752157Y-15491062D02*
X3752157Y-15595824D01*
X4142633Y-15386300D02*
X3971205Y-15643443D01*
X4399776Y-15395824D02*
X4418824Y-15395824D01*
X4418824Y-15395824D02*
X4437872Y-15405348D01*
X4437872Y-15405348D02*
X4447395Y-15414871D01*
X4447395Y-15414871D02*
X4456919Y-15433919D01*
X4456919Y-15433919D02*
X4466443Y-15472014D01*
X4466443Y-15472014D02*
X4466443Y-15519633D01*
X4466443Y-15519633D02*
X4456919Y-15557728D01*
X4456919Y-15557728D02*
X4447395Y-15576776D01*
X4447395Y-15576776D02*
X4437872Y-15586300D01*
X4437872Y-15586300D02*
X4418824Y-15595824D01*
X4418824Y-15595824D02*
X4399776Y-15595824D01*
X4399776Y-15595824D02*
X4380729Y-15586300D01*
X4380729Y-15586300D02*
X4371205Y-15576776D01*
X4371205Y-15576776D02*
X4361681Y-15557728D01*
X4361681Y-15557728D02*
X4352157Y-15519633D01*
X4352157Y-15519633D02*
X4352157Y-15472014D01*
X4352157Y-15472014D02*
X4361681Y-15433919D01*
X4361681Y-15433919D02*
X4371205Y-15414871D01*
X4371205Y-15414871D02*
X4380729Y-15405348D01*
X4380729Y-15405348D02*
X4399776Y-15395824D01*
X4552157Y-15576776D02*
X4561681Y-15586300D01*
X4561681Y-15586300D02*
X4552157Y-15595824D01*
X4552157Y-15595824D02*
X4542634Y-15586300D01*
X4542634Y-15586300D02*
X4552157Y-15576776D01*
X4552157Y-15576776D02*
X4552157Y-15595824D01*
X4685491Y-15395824D02*
X4704538Y-15395824D01*
X4704538Y-15395824D02*
X4723586Y-15405348D01*
X4723586Y-15405348D02*
X4733110Y-15414871D01*
X4733110Y-15414871D02*
X4742634Y-15433919D01*
X4742634Y-15433919D02*
X4752157Y-15472014D01*
X4752157Y-15472014D02*
X4752157Y-15519633D01*
X4752157Y-15519633D02*
X4742634Y-15557728D01*
X4742634Y-15557728D02*
X4733110Y-15576776D01*
X4733110Y-15576776D02*
X4723586Y-15586300D01*
X4723586Y-15586300D02*
X4704538Y-15595824D01*
X4704538Y-15595824D02*
X4685491Y-15595824D01*
X4685491Y-15595824D02*
X4666443Y-15586300D01*
X4666443Y-15586300D02*
X4656919Y-15576776D01*
X4656919Y-15576776D02*
X4647395Y-15557728D01*
X4647395Y-15557728D02*
X4637872Y-15519633D01*
X4637872Y-15519633D02*
X4637872Y-15472014D01*
X4637872Y-15472014D02*
X4647395Y-15433919D01*
X4647395Y-15433919D02*
X4656919Y-15414871D01*
X4656919Y-15414871D02*
X4666443Y-15405348D01*
X4666443Y-15405348D02*
X4685491Y-15395824D01*
X4847395Y-15595824D02*
X4885491Y-15595824D01*
X4885491Y-15595824D02*
X4904538Y-15586300D01*
X4904538Y-15586300D02*
X4914062Y-15576776D01*
X4914062Y-15576776D02*
X4933110Y-15548205D01*
X4933110Y-15548205D02*
X4942634Y-15510109D01*
X4942634Y-15510109D02*
X4942634Y-15433919D01*
X4942634Y-15433919D02*
X4933110Y-15414871D01*
X4933110Y-15414871D02*
X4923586Y-15405348D01*
X4923586Y-15405348D02*
X4904538Y-15395824D01*
X4904538Y-15395824D02*
X4866443Y-15395824D01*
X4866443Y-15395824D02*
X4847395Y-15405348D01*
X4847395Y-15405348D02*
X4837872Y-15414871D01*
X4837872Y-15414871D02*
X4828348Y-15433919D01*
X4828348Y-15433919D02*
X4828348Y-15481538D01*
X4828348Y-15481538D02*
X4837872Y-15500586D01*
X4837872Y-15500586D02*
X4847395Y-15510109D01*
X4847395Y-15510109D02*
X4866443Y-15519633D01*
X4866443Y-15519633D02*
X4904538Y-15519633D01*
X4904538Y-15519633D02*
X4923586Y-15510109D01*
X4923586Y-15510109D02*
X4933110Y-15500586D01*
X4933110Y-15500586D02*
X4942634Y-15481538D01*
X5066443Y-15395824D02*
X5085491Y-15395824D01*
X5085491Y-15395824D02*
X5104538Y-15405348D01*
X5104538Y-15405348D02*
X5114062Y-15414871D01*
X5114062Y-15414871D02*
X5123586Y-15433919D01*
X5123586Y-15433919D02*
X5133110Y-15472014D01*
X5133110Y-15472014D02*
X5133110Y-15519633D01*
X5133110Y-15519633D02*
X5123586Y-15557728D01*
X5123586Y-15557728D02*
X5114062Y-15576776D01*
X5114062Y-15576776D02*
X5104538Y-15586300D01*
X5104538Y-15586300D02*
X5085491Y-15595824D01*
X5085491Y-15595824D02*
X5066443Y-15595824D01*
X5066443Y-15595824D02*
X5047395Y-15586300D01*
X5047395Y-15586300D02*
X5037872Y-15576776D01*
X5037872Y-15576776D02*
X5028348Y-15557728D01*
X5028348Y-15557728D02*
X5018824Y-15519633D01*
X5018824Y-15519633D02*
X5018824Y-15472014D01*
X5018824Y-15472014D02*
X5028348Y-15433919D01*
X5028348Y-15433919D02*
X5037872Y-15414871D01*
X5037872Y-15414871D02*
X5047395Y-15405348D01*
X5047395Y-15405348D02*
X5066443Y-15395824D01*
X5304538Y-15395824D02*
X5266443Y-15395824D01*
X5266443Y-15395824D02*
X5247395Y-15405348D01*
X5247395Y-15405348D02*
X5237872Y-15414871D01*
X5237872Y-15414871D02*
X5218824Y-15443443D01*
X5218824Y-15443443D02*
X5209300Y-15481538D01*
X5209300Y-15481538D02*
X5209300Y-15557728D01*
X5209300Y-15557728D02*
X5218824Y-15576776D01*
X5218824Y-15576776D02*
X5228348Y-15586300D01*
X5228348Y-15586300D02*
X5247395Y-15595824D01*
X5247395Y-15595824D02*
X5285491Y-15595824D01*
X5285491Y-15595824D02*
X5304538Y-15586300D01*
X5304538Y-15586300D02*
X5314062Y-15576776D01*
X5314062Y-15576776D02*
X5323586Y-15557728D01*
X5323586Y-15557728D02*
X5323586Y-15510109D01*
X5323586Y-15510109D02*
X5314062Y-15491062D01*
X5314062Y-15491062D02*
X5304538Y-15481538D01*
X5304538Y-15481538D02*
X5285491Y-15472014D01*
X5285491Y-15472014D02*
X5247395Y-15472014D01*
X5247395Y-15472014D02*
X5228348Y-15481538D01*
X5228348Y-15481538D02*
X5218824Y-15491062D01*
X5218824Y-15491062D02*
X5209300Y-15510109D01*
X5399776Y-15395824D02*
X5399776Y-15433919D01*
X5475967Y-15395824D02*
X5475967Y-15433919D01*
X5771205Y-15672014D02*
X5761681Y-15662490D01*
X5761681Y-15662490D02*
X5742634Y-15633919D01*
X5742634Y-15633919D02*
X5733110Y-15614871D01*
X5733110Y-15614871D02*
X5723586Y-15586300D01*
X5723586Y-15586300D02*
X5714062Y-15538681D01*
X5714062Y-15538681D02*
X5714062Y-15500586D01*
X5714062Y-15500586D02*
X5723586Y-15452967D01*
X5723586Y-15452967D02*
X5733110Y-15424395D01*
X5733110Y-15424395D02*
X5742634Y-15405348D01*
X5742634Y-15405348D02*
X5761681Y-15376776D01*
X5761681Y-15376776D02*
X5771205Y-15367252D01*
X5837872Y-15414871D02*
X5847395Y-15405348D01*
X5847395Y-15405348D02*
X5866443Y-15395824D01*
X5866443Y-15395824D02*
X5914062Y-15395824D01*
X5914062Y-15395824D02*
X5933110Y-15405348D01*
X5933110Y-15405348D02*
X5942634Y-15414871D01*
X5942634Y-15414871D02*
X5952157Y-15433919D01*
X5952157Y-15433919D02*
X5952157Y-15452967D01*
X5952157Y-15452967D02*
X5942634Y-15481538D01*
X5942634Y-15481538D02*
X5828348Y-15595824D01*
X5828348Y-15595824D02*
X5952157Y-15595824D01*
X6190253Y-15595824D02*
X6190253Y-15395824D01*
X6275967Y-15595824D02*
X6275967Y-15491062D01*
X6275967Y-15491062D02*
X6266443Y-15472014D01*
X6266443Y-15472014D02*
X6247396Y-15462490D01*
X6247396Y-15462490D02*
X6218824Y-15462490D01*
X6218824Y-15462490D02*
X6199776Y-15472014D01*
X6199776Y-15472014D02*
X6190253Y-15481538D01*
X6399776Y-15595824D02*
X6380729Y-15586300D01*
X6380729Y-15586300D02*
X6371205Y-15576776D01*
X6371205Y-15576776D02*
X6361681Y-15557728D01*
X6361681Y-15557728D02*
X6361681Y-15500586D01*
X6361681Y-15500586D02*
X6371205Y-15481538D01*
X6371205Y-15481538D02*
X6380729Y-15472014D01*
X6380729Y-15472014D02*
X6399776Y-15462490D01*
X6399776Y-15462490D02*
X6428348Y-15462490D01*
X6428348Y-15462490D02*
X6447396Y-15472014D01*
X6447396Y-15472014D02*
X6456919Y-15481538D01*
X6456919Y-15481538D02*
X6466443Y-15500586D01*
X6466443Y-15500586D02*
X6466443Y-15557728D01*
X6466443Y-15557728D02*
X6456919Y-15576776D01*
X6456919Y-15576776D02*
X6447396Y-15586300D01*
X6447396Y-15586300D02*
X6428348Y-15595824D01*
X6428348Y-15595824D02*
X6399776Y-15595824D01*
X6580729Y-15595824D02*
X6561681Y-15586300D01*
X6561681Y-15586300D02*
X6552157Y-15567252D01*
X6552157Y-15567252D02*
X6552157Y-15395824D01*
X6733110Y-15586300D02*
X6714062Y-15595824D01*
X6714062Y-15595824D02*
X6675967Y-15595824D01*
X6675967Y-15595824D02*
X6656919Y-15586300D01*
X6656919Y-15586300D02*
X6647396Y-15567252D01*
X6647396Y-15567252D02*
X6647396Y-15491062D01*
X6647396Y-15491062D02*
X6656919Y-15472014D01*
X6656919Y-15472014D02*
X6675967Y-15462490D01*
X6675967Y-15462490D02*
X6714062Y-15462490D01*
X6714062Y-15462490D02*
X6733110Y-15472014D01*
X6733110Y-15472014D02*
X6742634Y-15491062D01*
X6742634Y-15491062D02*
X6742634Y-15510109D01*
X6742634Y-15510109D02*
X6647396Y-15529157D01*
X6818824Y-15586300D02*
X6837872Y-15595824D01*
X6837872Y-15595824D02*
X6875967Y-15595824D01*
X6875967Y-15595824D02*
X6895015Y-15586300D01*
X6895015Y-15586300D02*
X6904538Y-15567252D01*
X6904538Y-15567252D02*
X6904538Y-15557728D01*
X6904538Y-15557728D02*
X6895015Y-15538681D01*
X6895015Y-15538681D02*
X6875967Y-15529157D01*
X6875967Y-15529157D02*
X6847396Y-15529157D01*
X6847396Y-15529157D02*
X6828348Y-15519633D01*
X6828348Y-15519633D02*
X6818824Y-15500586D01*
X6818824Y-15500586D02*
X6818824Y-15491062D01*
X6818824Y-15491062D02*
X6828348Y-15472014D01*
X6828348Y-15472014D02*
X6847396Y-15462490D01*
X6847396Y-15462490D02*
X6875967Y-15462490D01*
X6875967Y-15462490D02*
X6895015Y-15472014D01*
X6971205Y-15672014D02*
X6980729Y-15662490D01*
X6980729Y-15662490D02*
X6999777Y-15633919D01*
X6999777Y-15633919D02*
X7009300Y-15614871D01*
X7009300Y-15614871D02*
X7018824Y-15586300D01*
X7018824Y-15586300D02*
X7028348Y-15538681D01*
X7028348Y-15538681D02*
X7028348Y-15500586D01*
X7028348Y-15500586D02*
X7018824Y-15452967D01*
X7018824Y-15452967D02*
X7009300Y-15424395D01*
X7009300Y-15424395D02*
X6999777Y-15405348D01*
X6999777Y-15405348D02*
X6980729Y-15376776D01*
X6980729Y-15376776D02*
X6971205Y-15367252D01*
M02*
