%TF.GenerationSoftware,KiCad,Pcbnew,7.0.1-3b83917a11~172~ubuntu22.10.1*%
%TF.CreationDate,2023-03-30T23:28:48-07:00*%
%TF.ProjectId,expansionboardA,65787061-6e73-4696-9f6e-626f61726441,3*%
%TF.SameCoordinates,Original*%
%TF.FileFunction,Soldermask,Bot*%
%TF.FilePolarity,Negative*%
%FSLAX46Y46*%
G04 Gerber Fmt 4.6, Leading zero omitted, Abs format (unit mm)*
G04 Created by KiCad (PCBNEW 7.0.1-3b83917a11~172~ubuntu22.10.1) date 2023-03-30 23:28:48*
%MOMM*%
%LPD*%
G01*
G04 APERTURE LIST*
%ADD10C,1.700000*%
%ADD11R,1.700000X1.700000*%
%ADD12O,1.700000X1.700000*%
%ADD13R,1.500000X1.600000*%
%ADD14C,1.600000*%
%ADD15C,3.000000*%
%ADD16C,1.000000*%
%ADD17C,0.650000*%
%ADD18O,1.700000X0.900000*%
%ADD19O,2.400000X0.900000*%
%ADD20R,0.800000X0.800000*%
%ADD21C,0.800000*%
%ADD22O,2.800000X1.700000*%
G04 APERTURE END LIST*
D10*
%TO.C,AU1*%
X129202000Y-44086000D03*
X122202000Y-44086000D03*
%TD*%
D11*
%TO.C,J1*%
X115011200Y-113588800D03*
D12*
X115011200Y-116128800D03*
X115011200Y-118668800D03*
X115011200Y-121208800D03*
%TD*%
D11*
%TO.C,ADC1*%
X35052000Y-93566000D03*
D12*
X32512000Y-93566000D03*
X35052000Y-96106000D03*
X32512000Y-96106000D03*
X35052000Y-98646000D03*
X32512000Y-98646000D03*
X35052000Y-101186000D03*
X32512000Y-101186000D03*
X35052000Y-103726000D03*
X32512000Y-103726000D03*
%TD*%
D13*
%TO.C,J2*%
X34307600Y-27522000D03*
D14*
X34307600Y-30022000D03*
X34307600Y-32022000D03*
X34307600Y-34522000D03*
D15*
X31597600Y-24452000D03*
X31597600Y-37592000D03*
%TD*%
D10*
%TO.C,AU2*%
X129202000Y-30988000D03*
X122202000Y-30988000D03*
%TD*%
D16*
%TO.C,Y1*%
X83293949Y-90188051D03*
X85090000Y-88392000D03*
%TD*%
D11*
%TO.C,U2*%
X48220000Y-121920000D03*
D12*
X45680000Y-121920000D03*
X48220000Y-119380000D03*
X45680000Y-119380000D03*
X48220000Y-116840000D03*
X45680000Y-116840000D03*
X48220000Y-114300000D03*
X45680000Y-114300000D03*
X48220000Y-111760000D03*
X45680000Y-111760000D03*
X48220000Y-109220000D03*
X45680000Y-109220000D03*
X48220000Y-106680000D03*
X45680000Y-106680000D03*
X48220000Y-104140000D03*
X45680000Y-104140000D03*
X48220000Y-101600000D03*
X45680000Y-101600000D03*
X48220000Y-99060000D03*
X45680000Y-99060000D03*
X48220000Y-96520000D03*
X45680000Y-96520000D03*
X48220000Y-93980000D03*
X45680000Y-93980000D03*
X48220000Y-91440000D03*
X45680000Y-91440000D03*
X48220000Y-88900000D03*
X45680000Y-88900000D03*
X48220000Y-86360000D03*
X45680000Y-86360000D03*
X48220000Y-83820000D03*
X45680000Y-83820000D03*
X48220000Y-81280000D03*
X45680000Y-81280000D03*
X48220000Y-78740000D03*
X45680000Y-78740000D03*
X48220000Y-76200000D03*
X45680000Y-76200000D03*
X48220000Y-73660000D03*
X45680000Y-73660000D03*
X48220000Y-71120000D03*
X45680000Y-71120000D03*
X48220000Y-68580000D03*
X45680000Y-68580000D03*
X48220000Y-66040000D03*
X45680000Y-66040000D03*
X48220000Y-63500000D03*
X45680000Y-63500000D03*
X48220000Y-60960000D03*
X45680000Y-60960000D03*
X48220000Y-58420000D03*
X45680000Y-58420000D03*
X48220000Y-55880000D03*
X45680000Y-55880000D03*
X48220000Y-53340000D03*
X45680000Y-53340000D03*
X48220000Y-50800000D03*
X45680000Y-50800000D03*
X48220000Y-48260000D03*
X45680000Y-48260000D03*
X48220000Y-45720000D03*
X45680000Y-45720000D03*
X48220000Y-43180000D03*
X45680000Y-43180000D03*
%TD*%
D11*
%TO.C,U4*%
X109220000Y-121920000D03*
D12*
X106680000Y-121920000D03*
X109220000Y-119380000D03*
X106680000Y-119380000D03*
X109220000Y-116840000D03*
X106680000Y-116840000D03*
X109220000Y-114300000D03*
X106680000Y-114300000D03*
X109220000Y-111760000D03*
X106680000Y-111760000D03*
X109220000Y-109220000D03*
X106680000Y-109220000D03*
X109220000Y-106680000D03*
X106680000Y-106680000D03*
X109220000Y-104140000D03*
X106680000Y-104140000D03*
X109220000Y-101600000D03*
X106680000Y-101600000D03*
X109220000Y-99060000D03*
X106680000Y-99060000D03*
X109220000Y-96520000D03*
X106680000Y-96520000D03*
X109220000Y-93980000D03*
X106680000Y-93980000D03*
X109220000Y-91440000D03*
X106680000Y-91440000D03*
X109220000Y-88900000D03*
X106680000Y-88900000D03*
X109220000Y-86360000D03*
X106680000Y-86360000D03*
X109220000Y-83820000D03*
X106680000Y-83820000D03*
X109220000Y-81280000D03*
X106680000Y-81280000D03*
X109220000Y-78740000D03*
X106680000Y-78740000D03*
X109220000Y-76200000D03*
X106680000Y-76200000D03*
X109220000Y-73660000D03*
X106680000Y-73660000D03*
X109220000Y-71120000D03*
X106680000Y-71120000D03*
X109220000Y-68580000D03*
X106680000Y-68580000D03*
X109220000Y-66040000D03*
X106680000Y-66040000D03*
X109220000Y-63500000D03*
X106680000Y-63500000D03*
X109220000Y-60960000D03*
X106680000Y-60960000D03*
X109220000Y-58420000D03*
X106680000Y-58420000D03*
X109220000Y-55880000D03*
X106680000Y-55880000D03*
X109220000Y-53340000D03*
X106680000Y-53340000D03*
X109220000Y-50800000D03*
X106680000Y-50800000D03*
X109220000Y-48260000D03*
X106680000Y-48260000D03*
X109220000Y-45720000D03*
X106680000Y-45720000D03*
X109220000Y-43180000D03*
X106680000Y-43180000D03*
%TD*%
D17*
%TO.C,P1*%
X126907200Y-93552000D03*
X126907200Y-94402000D03*
X126907200Y-95252000D03*
X126907200Y-96102000D03*
X126907200Y-96952000D03*
X126907200Y-97802000D03*
X126907200Y-98652000D03*
X126907200Y-99502000D03*
X128257200Y-99502000D03*
X128257200Y-98652000D03*
X128257200Y-97802000D03*
X128257200Y-96952000D03*
X128257200Y-96102000D03*
X128257200Y-95252000D03*
X128257200Y-94402000D03*
X128257200Y-93552000D03*
D18*
X131267200Y-92202000D03*
X131267200Y-100852000D03*
D19*
X127887200Y-92202000D03*
X127887200Y-100852000D03*
%TD*%
D20*
%TO.C,J3*%
X124922000Y-65832600D03*
D21*
X123372000Y-66332600D03*
X124922000Y-66832600D03*
X123372000Y-67332600D03*
X124922000Y-67832600D03*
X123372000Y-68332600D03*
X124922000Y-68832600D03*
X123372000Y-69332600D03*
X124922000Y-69832600D03*
X123372000Y-70332600D03*
X124922000Y-70832600D03*
X123372000Y-71332600D03*
X124922000Y-71832600D03*
X123372000Y-72332600D03*
X124922000Y-72832600D03*
X123372000Y-73332600D03*
X124922000Y-73832600D03*
X123372000Y-74332600D03*
X124922000Y-74832600D03*
D22*
X123202000Y-79482600D03*
X123202000Y-61182600D03*
X130302000Y-61182600D03*
X130302000Y-79482600D03*
%TD*%
M02*
