%TF.GenerationSoftware,KiCad,Pcbnew,7.0.1-3b83917a11~172~ubuntu22.10.1*%
%TF.CreationDate,2023-03-30T21:17:30-07:00*%
%TF.ProjectId,expansionboardA,65787061-6e73-4696-9f6e-626f61726441,3*%
%TF.SameCoordinates,Original*%
%TF.FileFunction,Soldermask,Top*%
%TF.FilePolarity,Negative*%
%FSLAX46Y46*%
G04 Gerber Fmt 4.6, Leading zero omitted, Abs format (unit mm)*
G04 Created by KiCad (PCBNEW 7.0.1-3b83917a11~172~ubuntu22.10.1) date 2023-03-30 21:17:30*
%MOMM*%
%LPD*%
G01*
G04 APERTURE LIST*
G04 Aperture macros list*
%AMRoundRect*
0 Rectangle with rounded corners*
0 $1 Rounding radius*
0 $2 $3 $4 $5 $6 $7 $8 $9 X,Y pos of 4 corners*
0 Add a 4 corners polygon primitive as box body*
4,1,4,$2,$3,$4,$5,$6,$7,$8,$9,$2,$3,0*
0 Add four circle primitives for the rounded corners*
1,1,$1+$1,$2,$3*
1,1,$1+$1,$4,$5*
1,1,$1+$1,$6,$7*
1,1,$1+$1,$8,$9*
0 Add four rect primitives between the rounded corners*
20,1,$1+$1,$2,$3,$4,$5,0*
20,1,$1+$1,$4,$5,$6,$7,0*
20,1,$1+$1,$6,$7,$8,$9,0*
20,1,$1+$1,$8,$9,$2,$3,0*%
%AMRotRect*
0 Rectangle, with rotation*
0 The origin of the aperture is its center*
0 $1 length*
0 $2 width*
0 $3 Rotation angle, in degrees counterclockwise*
0 Add horizontal line*
21,1,$1,$2,0,0,$3*%
%AMFreePoly0*
4,1,9,3.862500,-0.866500,0.737500,-0.866500,0.737500,-0.450000,-0.737500,-0.450000,-0.737500,0.450000,0.737500,0.450000,0.737500,0.866500,3.862500,0.866500,3.862500,-0.866500,3.862500,-0.866500,$1*%
G04 Aperture macros list end*
%ADD10RoundRect,0.200000X0.200000X0.275000X-0.200000X0.275000X-0.200000X-0.275000X0.200000X-0.275000X0*%
%ADD11RoundRect,0.225000X-0.225000X-0.250000X0.225000X-0.250000X0.225000X0.250000X-0.225000X0.250000X0*%
%ADD12R,1.000000X1.500000*%
%ADD13RoundRect,0.200000X-0.275000X0.200000X-0.275000X-0.200000X0.275000X-0.200000X0.275000X0.200000X0*%
%ADD14RoundRect,0.200000X0.275000X-0.200000X0.275000X0.200000X-0.275000X0.200000X-0.275000X-0.200000X0*%
%ADD15RoundRect,0.225000X0.017678X-0.335876X0.335876X-0.017678X-0.017678X0.335876X-0.335876X0.017678X0*%
%ADD16C,1.700000*%
%ADD17R,2.200000X2.800000*%
%ADD18R,2.800000X2.800000*%
%ADD19R,1.700000X1.700000*%
%ADD20O,1.700000X1.700000*%
%ADD21RoundRect,0.200000X-0.053033X0.335876X-0.335876X0.053033X0.053033X-0.335876X0.335876X-0.053033X0*%
%ADD22RoundRect,0.250001X-0.624999X0.462499X-0.624999X-0.462499X0.624999X-0.462499X0.624999X0.462499X0*%
%ADD23R,1.200000X0.700000*%
%ADD24R,1.200000X1.000000*%
%ADD25R,2.800000X1.000000*%
%ADD26R,1.900000X1.300000*%
%ADD27R,0.800000X1.000000*%
%ADD28RoundRect,0.225000X-0.250000X0.225000X-0.250000X-0.225000X0.250000X-0.225000X0.250000X0.225000X0*%
%ADD29RoundRect,0.250000X-0.475000X0.337500X-0.475000X-0.337500X0.475000X-0.337500X0.475000X0.337500X0*%
%ADD30RoundRect,0.225000X-0.017678X0.335876X-0.335876X0.017678X0.017678X-0.335876X0.335876X-0.017678X0*%
%ADD31RoundRect,0.250001X-0.462499X-0.624999X0.462499X-0.624999X0.462499X0.624999X-0.462499X0.624999X0*%
%ADD32RoundRect,0.038500X-0.332340X-0.666802X0.666802X0.332340X0.332340X0.666802X-0.666802X-0.332340X0*%
%ADD33RoundRect,0.038500X0.666802X-0.332340X-0.332340X0.666802X-0.666802X0.332340X0.332340X-0.666802X0*%
%ADD34R,1.300000X0.900000*%
%ADD35FreePoly0,0.000000*%
%ADD36RotRect,1.981200X0.558800X45.000000*%
%ADD37RoundRect,0.020500X0.764500X0.184500X-0.764500X0.184500X-0.764500X-0.184500X0.764500X-0.184500X0*%
%ADD38C,1.000000*%
%ADD39C,0.650000*%
%ADD40O,1.700000X0.900000*%
%ADD41O,2.400000X0.900000*%
%ADD42R,0.800000X0.800000*%
%ADD43C,0.800000*%
%ADD44O,2.800000X1.700000*%
G04 APERTURE END LIST*
D10*
%TO.C,R10*%
X121221000Y-95250000D03*
X119571000Y-95250000D03*
%TD*%
D11*
%TO.C,C2*%
X82143600Y-102692200D03*
X83693600Y-102692200D03*
%TD*%
D12*
%TO.C,JP6*%
X80518000Y-117856000D03*
X81818000Y-117856000D03*
%TD*%
D13*
%TO.C,R1*%
X102362000Y-114554000D03*
X102362000Y-116204000D03*
%TD*%
D14*
%TO.C,R7*%
X80010000Y-30860000D03*
X80010000Y-29210000D03*
%TD*%
D15*
%TO.C,C4*%
X80183984Y-93298016D03*
X81280000Y-92202000D03*
%TD*%
D16*
%TO.C,AU1*%
X129202000Y-44086000D03*
X122202000Y-44086000D03*
D17*
X130302000Y-40386000D03*
D18*
X120902000Y-40386000D03*
D17*
X128302000Y-47786000D03*
%TD*%
D19*
%TO.C,USBHOST1*%
X65106000Y-26924000D03*
D20*
X65106000Y-29464000D03*
X65106000Y-32004000D03*
X65106000Y-34544000D03*
%TD*%
D19*
%TO.C,J1*%
X115011200Y-113588800D03*
D20*
X115011200Y-116128800D03*
X115011200Y-118668800D03*
X115011200Y-121208800D03*
%TD*%
D21*
%TO.C,R2*%
X95103375Y-89274952D03*
X93936649Y-90441678D03*
%TD*%
D19*
%TO.C,ADC1*%
X35052000Y-93566000D03*
D20*
X32512000Y-93566000D03*
X35052000Y-96106000D03*
X32512000Y-96106000D03*
X35052000Y-98646000D03*
X32512000Y-98646000D03*
X35052000Y-101186000D03*
X32512000Y-101186000D03*
X35052000Y-103726000D03*
X32512000Y-103726000D03*
%TD*%
D14*
%TO.C,R6*%
X83400900Y-30860000D03*
X83400900Y-29210000D03*
%TD*%
D10*
%TO.C,R9*%
X121158000Y-97790000D03*
X119508000Y-97790000D03*
%TD*%
D22*
%TO.C,D4*%
X86790000Y-22734000D03*
X86790000Y-25709000D03*
%TD*%
D23*
%TO.C,CRD1*%
X39479000Y-62686000D03*
X39479000Y-61586000D03*
X39479000Y-60486000D03*
X39479000Y-59386000D03*
X39479000Y-58286000D03*
X39479000Y-57186000D03*
X39479000Y-56086000D03*
X39479000Y-54986000D03*
D24*
X35179000Y-53086000D03*
D25*
X24829000Y-53086000D03*
D26*
X24379000Y-66586000D03*
D24*
X39479000Y-64236000D03*
D27*
X28979000Y-53086000D03*
D23*
X39479000Y-54036000D03*
%TD*%
D12*
%TO.C,JP5*%
X80518000Y-114046000D03*
X81818000Y-114046000D03*
%TD*%
D28*
%TO.C,C5*%
X124587000Y-88797800D03*
X124587000Y-90347800D03*
%TD*%
D22*
%TO.C,D6*%
X80010000Y-22734000D03*
X80010000Y-25709000D03*
%TD*%
D29*
%TO.C,C6*%
X89535000Y-113588800D03*
X89535000Y-115663800D03*
%TD*%
D14*
%TO.C,R4*%
X90182700Y-30860000D03*
X90182700Y-29210000D03*
%TD*%
D22*
%TO.C,D5*%
X83400000Y-22734000D03*
X83400000Y-25709000D03*
%TD*%
D14*
%TO.C,R3*%
X93573600Y-30860000D03*
X93573600Y-29210000D03*
%TD*%
%TO.C,R5*%
X86791800Y-30860000D03*
X86791800Y-29210000D03*
%TD*%
D22*
%TO.C,D2*%
X93570000Y-22734000D03*
X93570000Y-25709000D03*
%TD*%
D30*
%TO.C,C3*%
X88432008Y-85303992D03*
X87335992Y-86400008D03*
%TD*%
D31*
%TO.C,D1*%
X94778500Y-122174000D03*
X97753500Y-122174000D03*
%TD*%
D29*
%TO.C,C7*%
X92710000Y-117834500D03*
X92710000Y-119909500D03*
%TD*%
D30*
%TO.C,C1*%
X96592020Y-90834307D03*
X95496004Y-91930323D03*
%TD*%
D32*
%TO.C,U1*%
X86302315Y-99785158D03*
X86868000Y-100350844D03*
X87433686Y-100916529D03*
X87999371Y-101482215D03*
X88565056Y-102047900D03*
X89130742Y-102613585D03*
X89696427Y-103179271D03*
X90262113Y-103744956D03*
D33*
X92199585Y-103744956D03*
X92765271Y-103179271D03*
X93330956Y-102613585D03*
X93896642Y-102047900D03*
X94462327Y-101482215D03*
X95028012Y-100916529D03*
X95593698Y-100350844D03*
X96159383Y-99785158D03*
D32*
X96159383Y-97847686D03*
X95593698Y-97282000D03*
X95028012Y-96716315D03*
X94462327Y-96150629D03*
X93896642Y-95584944D03*
X93330956Y-95019259D03*
X92765271Y-94453573D03*
X92199585Y-93887888D03*
D33*
X90262113Y-93887888D03*
X89696427Y-94453573D03*
X89130742Y-95019259D03*
X88565056Y-95584944D03*
X87999371Y-96150629D03*
X87433686Y-96716315D03*
X86868000Y-97282000D03*
X86302315Y-97847686D03*
%TD*%
D22*
%TO.C,D3*%
X90180000Y-22734000D03*
X90180000Y-25709000D03*
%TD*%
D34*
%TO.C,U3*%
X94742000Y-113078000D03*
D35*
X94829500Y-114578000D03*
D34*
X94742000Y-116078000D03*
%TD*%
D16*
%TO.C,AU2*%
X129202000Y-30988000D03*
X122202000Y-30988000D03*
D17*
X130302000Y-27288000D03*
D18*
X120902000Y-27288000D03*
D17*
X128302000Y-34688000D03*
%TD*%
D36*
%TO.C,U5*%
X31521166Y-73762476D03*
X32419191Y-74660502D03*
X33317217Y-75558527D03*
X34215243Y-76456553D03*
X35113268Y-77354578D03*
X36011294Y-78252604D03*
X36909319Y-79150630D03*
X37807345Y-80048655D03*
X41148000Y-76708000D03*
X40249975Y-75809974D03*
X39351949Y-74911949D03*
X38453923Y-74013923D03*
X37555898Y-73115898D03*
X36657872Y-72217872D03*
X35759847Y-71319846D03*
X34861821Y-70421821D03*
%TD*%
D37*
%TO.C,U6*%
X62865000Y-79375000D03*
X62865000Y-78725000D03*
X62865000Y-78075000D03*
X62865000Y-77425000D03*
X62865000Y-76775000D03*
X62865000Y-76125000D03*
X62865000Y-75475000D03*
X62865000Y-74825000D03*
X62865000Y-74175000D03*
X62865000Y-73525000D03*
X62865000Y-72875000D03*
X62865000Y-72225000D03*
X62865000Y-71575000D03*
X62865000Y-70925000D03*
X57125000Y-70925000D03*
X57125000Y-71575000D03*
X57125000Y-72225000D03*
X57125000Y-72875000D03*
X57125000Y-73525000D03*
X57125000Y-74175000D03*
X57125000Y-74825000D03*
X57125000Y-75475000D03*
X57125000Y-76125000D03*
X57125000Y-76775000D03*
X57125000Y-77425000D03*
X57125000Y-78075000D03*
X57125000Y-78725000D03*
X57125000Y-79375000D03*
%TD*%
D12*
%TO.C,JP4*%
X120904000Y-90170000D03*
X119604000Y-90170000D03*
%TD*%
D38*
%TO.C,Y1*%
X83293949Y-90188051D03*
X85090000Y-88392000D03*
%TD*%
D19*
%TO.C,U2*%
X48220000Y-121920000D03*
D20*
X45680000Y-121920000D03*
X48220000Y-119380000D03*
X45680000Y-119380000D03*
X48220000Y-116840000D03*
X45680000Y-116840000D03*
X48220000Y-114300000D03*
X45680000Y-114300000D03*
X48220000Y-111760000D03*
X45680000Y-111760000D03*
X48220000Y-109220000D03*
X45680000Y-109220000D03*
X48220000Y-106680000D03*
X45680000Y-106680000D03*
X48220000Y-104140000D03*
X45680000Y-104140000D03*
X48220000Y-101600000D03*
X45680000Y-101600000D03*
X48220000Y-99060000D03*
X45680000Y-99060000D03*
X48220000Y-96520000D03*
X45680000Y-96520000D03*
X48220000Y-93980000D03*
X45680000Y-93980000D03*
X48220000Y-91440000D03*
X45680000Y-91440000D03*
X48220000Y-88900000D03*
X45680000Y-88900000D03*
X48220000Y-86360000D03*
X45680000Y-86360000D03*
X48220000Y-83820000D03*
X45680000Y-83820000D03*
X48220000Y-81280000D03*
X45680000Y-81280000D03*
X48220000Y-78740000D03*
X45680000Y-78740000D03*
X48220000Y-76200000D03*
X45680000Y-76200000D03*
X48220000Y-73660000D03*
X45680000Y-73660000D03*
X48220000Y-71120000D03*
X45680000Y-71120000D03*
X48220000Y-68580000D03*
X45680000Y-68580000D03*
X48220000Y-66040000D03*
X45680000Y-66040000D03*
X48220000Y-63500000D03*
X45680000Y-63500000D03*
X48220000Y-60960000D03*
X45680000Y-60960000D03*
X48220000Y-58420000D03*
X45680000Y-58420000D03*
X48220000Y-55880000D03*
X45680000Y-55880000D03*
X48220000Y-53340000D03*
X45680000Y-53340000D03*
X48220000Y-50800000D03*
X45680000Y-50800000D03*
X48220000Y-48260000D03*
X45680000Y-48260000D03*
X48220000Y-45720000D03*
X45680000Y-45720000D03*
X48220000Y-43180000D03*
X45680000Y-43180000D03*
%TD*%
D19*
%TO.C,U4*%
X109220000Y-121920000D03*
D20*
X106680000Y-121920000D03*
X109220000Y-119380000D03*
X106680000Y-119380000D03*
X109220000Y-116840000D03*
X106680000Y-116840000D03*
X109220000Y-114300000D03*
X106680000Y-114300000D03*
X109220000Y-111760000D03*
X106680000Y-111760000D03*
X109220000Y-109220000D03*
X106680000Y-109220000D03*
X109220000Y-106680000D03*
X106680000Y-106680000D03*
X109220000Y-104140000D03*
X106680000Y-104140000D03*
X109220000Y-101600000D03*
X106680000Y-101600000D03*
X109220000Y-99060000D03*
X106680000Y-99060000D03*
X109220000Y-96520000D03*
X106680000Y-96520000D03*
X109220000Y-93980000D03*
X106680000Y-93980000D03*
X109220000Y-91440000D03*
X106680000Y-91440000D03*
X109220000Y-88900000D03*
X106680000Y-88900000D03*
X109220000Y-86360000D03*
X106680000Y-86360000D03*
X109220000Y-83820000D03*
X106680000Y-83820000D03*
X109220000Y-81280000D03*
X106680000Y-81280000D03*
X109220000Y-78740000D03*
X106680000Y-78740000D03*
X109220000Y-76200000D03*
X106680000Y-76200000D03*
X109220000Y-73660000D03*
X106680000Y-73660000D03*
X109220000Y-71120000D03*
X106680000Y-71120000D03*
X109220000Y-68580000D03*
X106680000Y-68580000D03*
X109220000Y-66040000D03*
X106680000Y-66040000D03*
X109220000Y-63500000D03*
X106680000Y-63500000D03*
X109220000Y-60960000D03*
X106680000Y-60960000D03*
X109220000Y-58420000D03*
X106680000Y-58420000D03*
X109220000Y-55880000D03*
X106680000Y-55880000D03*
X109220000Y-53340000D03*
X106680000Y-53340000D03*
X109220000Y-50800000D03*
X106680000Y-50800000D03*
X109220000Y-48260000D03*
X106680000Y-48260000D03*
X109220000Y-45720000D03*
X106680000Y-45720000D03*
X109220000Y-43180000D03*
X106680000Y-43180000D03*
%TD*%
D39*
%TO.C,P1*%
X126907200Y-93552000D03*
X126907200Y-94402000D03*
X126907200Y-95252000D03*
X126907200Y-96102000D03*
X126907200Y-96952000D03*
X126907200Y-97802000D03*
X126907200Y-98652000D03*
X126907200Y-99502000D03*
X128257200Y-99502000D03*
X128257200Y-98652000D03*
X128257200Y-97802000D03*
X128257200Y-96952000D03*
X128257200Y-96102000D03*
X128257200Y-95252000D03*
X128257200Y-94402000D03*
X128257200Y-93552000D03*
D40*
X131267200Y-92202000D03*
X131267200Y-100852000D03*
D41*
X127887200Y-92202000D03*
X127887200Y-100852000D03*
%TD*%
D42*
%TO.C,J3*%
X124922000Y-65832600D03*
D43*
X123372000Y-66332600D03*
X124922000Y-66832600D03*
X123372000Y-67332600D03*
X124922000Y-67832600D03*
X123372000Y-68332600D03*
X124922000Y-68832600D03*
X123372000Y-69332600D03*
X124922000Y-69832600D03*
X123372000Y-70332600D03*
X124922000Y-70832600D03*
X123372000Y-71332600D03*
X124922000Y-71832600D03*
X123372000Y-72332600D03*
X124922000Y-72832600D03*
X123372000Y-73332600D03*
X124922000Y-73832600D03*
X123372000Y-74332600D03*
X124922000Y-74832600D03*
D44*
X123202000Y-79482600D03*
X123202000Y-61182600D03*
X130302000Y-61182600D03*
X130302000Y-79482600D03*
%TD*%
M02*
