%TF.GenerationSoftware,KiCad,Pcbnew,7.0.1*%
%TF.CreationDate,2023-04-23T21:46:45-07:00*%
%TF.ProjectId,expansionboardA,65787061-6e73-4696-9f6e-626f61726441,3*%
%TF.SameCoordinates,Original*%
%TF.FileFunction,Paste,Top*%
%TF.FilePolarity,Positive*%
%FSLAX46Y46*%
G04 Gerber Fmt 4.6, Leading zero omitted, Abs format (unit mm)*
G04 Created by KiCad (PCBNEW 7.0.1) date 2023-04-23 21:46:45*
%MOMM*%
%LPD*%
G01*
G04 APERTURE LIST*
G04 Aperture macros list*
%AMRoundRect*
0 Rectangle with rounded corners*
0 $1 Rounding radius*
0 $2 $3 $4 $5 $6 $7 $8 $9 X,Y pos of 4 corners*
0 Add a 4 corners polygon primitive as box body*
4,1,4,$2,$3,$4,$5,$6,$7,$8,$9,$2,$3,0*
0 Add four circle primitives for the rounded corners*
1,1,$1+$1,$2,$3*
1,1,$1+$1,$4,$5*
1,1,$1+$1,$6,$7*
1,1,$1+$1,$8,$9*
0 Add four rect primitives between the rounded corners*
20,1,$1+$1,$2,$3,$4,$5,0*
20,1,$1+$1,$4,$5,$6,$7,0*
20,1,$1+$1,$6,$7,$8,$9,0*
20,1,$1+$1,$8,$9,$2,$3,0*%
%AMRotRect*
0 Rectangle, with rotation*
0 The origin of the aperture is its center*
0 $1 length*
0 $2 width*
0 $3 Rotation angle, in degrees counterclockwise*
0 Add horizontal line*
21,1,$1,$2,0,0,$3*%
%AMFreePoly0*
4,1,9,5.362500,-0.866500,1.237500,-0.866500,1.237500,-0.450000,-1.237500,-0.450000,-1.237500,0.450000,1.237500,0.450000,1.237500,0.866500,5.362500,0.866500,5.362500,-0.866500,5.362500,-0.866500,$1*%
G04 Aperture macros list end*
%ADD10RoundRect,0.237500X0.250000X0.237500X-0.250000X0.237500X-0.250000X-0.237500X0.250000X-0.237500X0*%
%ADD11RoundRect,0.237500X-0.300000X-0.237500X0.300000X-0.237500X0.300000X0.237500X-0.300000X0.237500X0*%
%ADD12RoundRect,0.237500X-0.237500X0.250000X-0.237500X-0.250000X0.237500X-0.250000X0.237500X0.250000X0*%
%ADD13RoundRect,0.250000X0.550000X-1.500000X0.550000X1.500000X-0.550000X1.500000X-0.550000X-1.500000X0*%
%ADD14RoundRect,0.237500X0.300000X0.237500X-0.300000X0.237500X-0.300000X-0.237500X0.300000X-0.237500X0*%
%ADD15RoundRect,0.237500X0.008839X0.344715X-0.344715X-0.008839X-0.008839X-0.344715X0.344715X0.008839X0*%
%ADD16RoundRect,0.237500X0.237500X-0.250000X0.237500X0.250000X-0.237500X0.250000X-0.237500X-0.250000X0*%
%ADD17RoundRect,0.250001X-0.624999X0.462499X-0.624999X-0.462499X0.624999X-0.462499X0.624999X0.462499X0*%
%ADD18R,1.200000X0.700000*%
%ADD19R,1.200000X1.000000*%
%ADD20R,2.800000X1.000000*%
%ADD21R,1.900000X1.300000*%
%ADD22R,0.800000X1.000000*%
%ADD23RoundRect,0.237500X-0.237500X0.300000X-0.237500X-0.300000X0.237500X-0.300000X0.237500X0.300000X0*%
%ADD24RoundRect,0.250000X0.337500X0.475000X-0.337500X0.475000X-0.337500X-0.475000X0.337500X-0.475000X0*%
%ADD25RoundRect,0.237500X-0.250000X-0.237500X0.250000X-0.237500X0.250000X0.237500X-0.250000X0.237500X0*%
%ADD26RoundRect,0.250001X-0.462499X-0.624999X0.462499X-0.624999X0.462499X0.624999X-0.462499X0.624999X0*%
%ADD27RoundRect,0.237500X0.044194X0.380070X-0.380070X-0.044194X-0.044194X-0.380070X0.380070X0.044194X0*%
%ADD28RoundRect,0.038500X-0.332340X-0.666802X0.666802X0.332340X0.332340X0.666802X-0.666802X-0.332340X0*%
%ADD29RoundRect,0.038500X0.666802X-0.332340X-0.332340X0.666802X-0.666802X0.332340X0.332340X-0.666802X0*%
%ADD30R,2.300000X0.900000*%
%ADD31FreePoly0,0.000000*%
%ADD32RotRect,1.981200X0.558800X45.000000*%
G04 APERTURE END LIST*
D10*
%TO.C,R10*%
X121308500Y-95250000D03*
X119483500Y-95250000D03*
%TD*%
D11*
%TO.C,C2*%
X81637800Y-102489000D03*
X83362800Y-102489000D03*
%TD*%
D12*
%TO.C,R1*%
X102412800Y-116956700D03*
X102412800Y-118781700D03*
%TD*%
D11*
%TO.C,C4*%
X79883000Y-93497400D03*
X81608000Y-93497400D03*
%TD*%
D13*
%TO.C,C12*%
X70231000Y-71589200D03*
X70231000Y-65989200D03*
%TD*%
D14*
%TO.C,C9*%
X113893600Y-36703000D03*
X112168600Y-36703000D03*
%TD*%
D15*
%TO.C,R2*%
X95165247Y-89213080D03*
X93874777Y-90503550D03*
%TD*%
D16*
%TO.C,R6*%
X50409900Y-29397100D03*
X50409900Y-27572100D03*
%TD*%
D10*
%TO.C,R9*%
X121245500Y-97790000D03*
X119420500Y-97790000D03*
%TD*%
D17*
%TO.C,D4*%
X53799000Y-21183600D03*
X53799000Y-24158600D03*
%TD*%
D18*
%TO.C,CRD1*%
X39479000Y-62686000D03*
X39479000Y-61586000D03*
X39479000Y-60486000D03*
X39479000Y-59386000D03*
X39479000Y-58286000D03*
X39479000Y-57186000D03*
X39479000Y-56086000D03*
X39479000Y-54986000D03*
D19*
X35179000Y-53086000D03*
D20*
X24829000Y-53086000D03*
D21*
X24379000Y-66586000D03*
D19*
X39479000Y-64236000D03*
D22*
X28979000Y-53086000D03*
D18*
X39479000Y-54036000D03*
%TD*%
D23*
%TO.C,C5*%
X124587000Y-88710300D03*
X124587000Y-90435300D03*
%TD*%
D24*
%TO.C,C6*%
X89988300Y-116890800D03*
X87913300Y-116890800D03*
%TD*%
D16*
%TO.C,R4*%
X57191700Y-29397100D03*
X57191700Y-27572100D03*
%TD*%
D17*
%TO.C,D5*%
X50409000Y-21183600D03*
X50409000Y-24158600D03*
%TD*%
D16*
%TO.C,R3*%
X60582600Y-29397100D03*
X60582600Y-27572100D03*
%TD*%
%TO.C,R5*%
X53800800Y-29397100D03*
X53800800Y-27572100D03*
%TD*%
D17*
%TO.C,D2*%
X60579000Y-21183600D03*
X60579000Y-24158600D03*
%TD*%
D11*
%TO.C,C8*%
X111938100Y-25273000D03*
X113663100Y-25273000D03*
%TD*%
%TO.C,C3*%
X79883000Y-86588600D03*
X81608000Y-86588600D03*
%TD*%
D25*
%TO.C,R7*%
X111888900Y-20853400D03*
X113713900Y-20853400D03*
%TD*%
D26*
%TO.C,D1*%
X94738800Y-122605800D03*
X97713800Y-122605800D03*
%TD*%
D24*
%TO.C,C7*%
X90043000Y-121589800D03*
X87968000Y-121589800D03*
%TD*%
D27*
%TO.C,C1*%
X96653892Y-90772435D03*
X95434132Y-91992195D03*
%TD*%
D28*
%TO.C,U1*%
X86302315Y-99785158D03*
X86868000Y-100350844D03*
X87433686Y-100916529D03*
X87999371Y-101482215D03*
X88565056Y-102047900D03*
X89130742Y-102613585D03*
X89696427Y-103179271D03*
X90262113Y-103744956D03*
D29*
X92199585Y-103744956D03*
X92765271Y-103179271D03*
X93330956Y-102613585D03*
X93896642Y-102047900D03*
X94462327Y-101482215D03*
X95028012Y-100916529D03*
X95593698Y-100350844D03*
X96159383Y-99785158D03*
D28*
X96159383Y-97847686D03*
X95593698Y-97282000D03*
X95028012Y-96716315D03*
X94462327Y-96150629D03*
X93896642Y-95584944D03*
X93330956Y-95019259D03*
X92765271Y-94453573D03*
X92199585Y-93887888D03*
D29*
X90262113Y-93887888D03*
X89696427Y-94453573D03*
X89130742Y-95019259D03*
X88565056Y-95584944D03*
X87999371Y-96150629D03*
X87433686Y-96716315D03*
X86868000Y-97282000D03*
X86302315Y-97847686D03*
%TD*%
D17*
%TO.C,D3*%
X57189000Y-21183600D03*
X57189000Y-24158600D03*
%TD*%
D30*
%TO.C,U3*%
X94115000Y-115592600D03*
D31*
X94202500Y-117092600D03*
D30*
X94115000Y-118592600D03*
%TD*%
D32*
%TO.C,U5*%
X31521166Y-73762476D03*
X32419191Y-74660502D03*
X33317217Y-75558527D03*
X34215243Y-76456553D03*
X35113268Y-77354578D03*
X36011294Y-78252604D03*
X36909319Y-79150630D03*
X37807345Y-80048655D03*
X41148000Y-76708000D03*
X40249975Y-75809974D03*
X39351949Y-74911949D03*
X38453923Y-74013923D03*
X37555898Y-73115898D03*
X36657872Y-72217872D03*
X35759847Y-71319846D03*
X34861821Y-70421821D03*
%TD*%
D25*
%TO.C,R8*%
X112119400Y-32181800D03*
X113944400Y-32181800D03*
%TD*%
M02*
