M48
; DRILL file {KiCad 7.0.2} date Mon May  8 01:03:47 2023
; FORMAT={-:-/ absolute / inch / decimal}
; #@! TF.CreationDate,2023-05-08T01:03:47-07:00
; #@! TF.GenerationSoftware,Kicad,Pcbnew,7.0.2
; #@! TF.FileFunction,Plated,1,2,PTH
FMAT,2
INCH
; #@! TA.AperFunction,Plated,PTH,ViaDrill
T1C0.0157
; #@! TA.AperFunction,Plated,PTH,ComponentDrill
T2C0.0157
; #@! TA.AperFunction,Plated,PTH,ComponentDrill
T3C0.0197
; #@! TA.AperFunction,Plated,PTH,ComponentDrill
T4C0.0217
; #@! TA.AperFunction,Plated,PTH,ComponentDrill
T5C0.0236
; #@! TA.AperFunction,Plated,PTH,ComponentDrill
T6C0.0276
; #@! TA.AperFunction,Plated,PTH,ComponentDrill
T7C0.0315
; #@! TA.AperFunction,Plated,PTH,ComponentDrill
T8C0.0374
; #@! TA.AperFunction,Plated,PTH,ComponentDrill
T9C0.0390
; #@! TA.AperFunction,Plated,PTH,ComponentDrill
T10C0.0394
; #@! TA.AperFunction,Plated,PTH,ComponentDrill
T11C0.0512
; #@! TA.AperFunction,Plated,PTH,ComponentDrill
T12C0.0906
%
G90
G05
T1
X1.067Y-3.056
X1.13Y-2.36
X1.157Y-3.124
X1.179Y-2.965
X1.185Y-3.239
X1.204Y-2.841
X1.2125Y-3.364
X1.2564Y-3.03
X1.321Y-3.478
X1.327Y-3.091
X1.4021Y-3.1672
X1.41Y-2.684
X1.437Y-2.223
X1.469Y-2.337
X1.55Y-2.74
X1.611Y-2.683
X1.65Y-3.57
X1.68Y-2.61
X1.68Y-4.15
X1.69Y-3.96
X1.72Y-1.53
X2.12Y-3.62
X2.14Y-3.94
X2.17Y-3.35
X2.26Y-2.269
X2.3808Y-2.1295
X2.39Y-3.49
X2.42Y-2.133
X2.453Y-2.05
X2.465Y-3.385
X2.47Y-3.95
X2.48Y-4.74
X2.487Y-3.051
X2.538Y-3.29
X2.54Y-3.145
X2.586Y-3.216
X2.68Y-3.82
X2.684Y-2.099
X3.04Y-4.27
X3.107Y-3.029
X3.18Y-4.19
X3.274Y-2.526
X3.3046Y-2.5508
X3.324Y-4.812
X3.337Y-2.528
X3.372Y-2.549
X3.874Y-1.88
X3.896Y-1.262
X3.969Y-4.167
X3.991Y-3.437
X4.08Y-1.836
X4.42Y-2.95
X4.57Y-3.41
X4.616Y-0.993
X4.622Y-4.8097
X4.66Y-2.323
X4.754Y-1.391
X4.8146Y-3.0256
X5.12Y-3.68
X5.17Y-4.5003
T2
X4.9983Y-4.3831
X4.9983Y-4.4166
X4.9983Y-4.4501
X4.9983Y-4.4835
X4.9983Y-4.517
X4.9983Y-4.5505
X4.9983Y-4.5839
X4.9983Y-4.6174
X5.0515Y-4.3831
X5.0515Y-4.4166
X5.0515Y-4.4501
X5.0515Y-4.4835
X5.0515Y-4.517
X5.0515Y-4.5505
X5.0515Y-4.5839
X5.0515Y-4.6174
T3
X2.6763Y-2.2732
X2.6763Y-2.3732
X3.2997Y-3.9534
X3.3704Y-4.0241
T4
X4.8572Y-2.6115
X4.8572Y-2.6509
X4.8572Y-2.6903
X4.8572Y-2.7296
X4.8572Y-2.769
X4.8572Y-2.8084
X4.8572Y-2.8477
X4.8572Y-2.8871
X4.8572Y-2.9265
X4.9182Y-2.5918
X4.9182Y-2.6312
X4.9182Y-2.6706
X4.9182Y-2.7099
X4.9182Y-2.7493
X4.9182Y-2.7887
X4.9182Y-2.8281
X4.9182Y-2.8674
X4.9182Y-2.9068
X4.9182Y-2.9462
T5
X1.6299Y-1.079
X1.689Y-1.079
X4.926Y-4.1009
X4.926Y-4.16
T6
X4.265Y-0.922
X4.265Y-1.122
X4.266Y-1.368
X4.266Y-1.568
T7
X4.138Y-0.822
X4.138Y-1.122
X4.14Y-1.267
X4.14Y-1.567
T8
X1.3827Y-1.2335
X1.3827Y-1.332
X1.3827Y-1.4107
X1.3827Y-1.5091
T9
X4.901Y-1.813
X4.901Y-1.9902
T10
X1.28Y-3.6837
X1.28Y-3.7837
X1.28Y-3.8837
X1.28Y-3.9837
X1.28Y-4.0837
X1.38Y-3.6837
X1.38Y-3.7837
X1.38Y-3.8837
X1.38Y-3.9837
X1.38Y-4.0837
X1.7984Y-1.7
X1.7984Y-1.8
X1.7984Y-1.9
X1.7984Y-2.0
X1.7984Y-2.1
X1.7984Y-2.2
X1.7984Y-2.3
X1.7984Y-2.4
X1.7984Y-2.5
X1.7984Y-2.6
X1.7984Y-2.7
X1.7984Y-2.8
X1.7984Y-2.9
X1.7984Y-3.0
X1.7984Y-3.1
X1.7984Y-3.2
X1.7984Y-3.3
X1.7984Y-3.4
X1.7984Y-3.5
X1.7984Y-3.6
X1.7984Y-3.7
X1.7984Y-3.8
X1.7984Y-3.9
X1.7984Y-4.0
X1.7984Y-4.1
X1.7984Y-4.2
X1.7984Y-4.3
X1.7984Y-4.4
X1.7984Y-4.5
X1.7984Y-4.6
X1.7984Y-4.7
X1.7984Y-4.8
X1.8984Y-1.7
X1.8984Y-1.8
X1.8984Y-1.9
X1.8984Y-2.0
X1.8984Y-2.1
X1.8984Y-2.2
X1.8984Y-2.3
X1.8984Y-2.4
X1.8984Y-2.5
X1.8984Y-2.6
X1.8984Y-2.7
X1.8984Y-2.8
X1.8984Y-2.9
X1.8984Y-3.0
X1.8984Y-3.1
X1.8984Y-3.2
X1.8984Y-3.3
X1.8984Y-3.4
X1.8984Y-3.5
X1.8984Y-3.6
X1.8984Y-3.7
X1.8984Y-3.8
X1.8984Y-3.9
X1.8984Y-4.0
X1.8984Y-4.1
X1.8984Y-4.2
X1.8984Y-4.3
X1.8984Y-4.4
X1.8984Y-4.5
X1.8984Y-4.6
X1.8984Y-4.7
X1.8984Y-4.8
X2.223Y-2.7091
X2.223Y-2.906
X3.4941Y-1.474
X3.4971Y-0.985
X3.691Y-1.474
X3.694Y-0.985
X4.2Y-1.7
X4.2Y-1.8
X4.2Y-1.9
X4.2Y-2.0
X4.2Y-2.1
X4.2Y-2.2
X4.2Y-2.3
X4.2Y-2.4
X4.2Y-2.5
X4.2Y-2.6
X4.2Y-2.7
X4.2Y-2.8
X4.2Y-2.9
X4.2Y-3.0
X4.2Y-3.1
X4.2Y-3.2
X4.2Y-3.3
X4.2Y-3.4
X4.2Y-3.5
X4.2Y-3.6
X4.2Y-3.7
X4.2Y-3.8
X4.2Y-3.9
X4.2Y-4.0
X4.2Y-4.1
X4.2Y-4.2
X4.2Y-4.3
X4.2Y-4.4
X4.2Y-4.6
X4.2Y-4.7
X4.2Y-4.8
X4.3Y-1.7
X4.3Y-1.8
X4.3Y-1.9
X4.3Y-2.0
X4.3Y-2.1
X4.3Y-2.2
X4.3Y-2.3
X4.3Y-2.4
X4.3Y-2.5
X4.3Y-2.6
X4.3Y-2.7
X4.3Y-2.8
X4.3Y-2.9
X4.3Y-3.0
X4.3Y-3.1
X4.3Y-3.2
X4.3Y-3.3
X4.3Y-3.4
X4.3Y-3.5
X4.3Y-3.6
X4.3Y-3.7
X4.3Y-3.8
X4.3Y-3.9
X4.3Y-4.0
X4.3Y-4.1
X4.3Y-4.2
X4.3Y-4.3
X4.3Y-4.4
X4.3Y-4.6
X4.3Y-4.7
X4.3Y-4.8
X4.5002Y-1.7
X4.6002Y-1.7
X4.8368Y-3.4884
X4.8368Y-3.5884
X4.8368Y-3.6884
X4.8368Y-3.7884
T11
X4.803Y-1.7636
X4.803Y-2.0396
T12
X1.276Y-1.1127
X1.276Y-1.63
T5
G00X5.0665Y-4.33
M15
G01X5.0074Y-4.33
M16
G05
G00X5.0665Y-4.6706
M15
G01X5.0074Y-4.6706
M16
G05
G00X5.1857Y-4.33
M15
G01X5.1543Y-4.33
M16
G05
G00X5.1857Y-4.6706
M15
G01X5.1543Y-4.6706
M16
G05
T7
G00X4.8761Y-2.4088
M15
G01X4.8249Y-2.4088
M16
G05
G00X4.8761Y-3.1292
M15
G01X4.8249Y-3.1292
M16
G05
G00X5.1556Y-2.4088
M15
G01X5.1044Y-2.4088
M16
G05
G00X5.1556Y-3.1292
M15
G01X5.1044Y-3.1292
M16
G05
T0
M30
