%TF.GenerationSoftware,KiCad,Pcbnew,7.0.1-3b83917a11~172~ubuntu22.10.1*%
%TF.CreationDate,2023-04-17T12:03:06-07:00*%
%TF.ProjectId,expansionboardA,65787061-6e73-4696-9f6e-626f61726441,3*%
%TF.SameCoordinates,Original*%
%TF.FileFunction,Soldermask,Bot*%
%TF.FilePolarity,Negative*%
%FSLAX46Y46*%
G04 Gerber Fmt 4.6, Leading zero omitted, Abs format (unit mm)*
G04 Created by KiCad (PCBNEW 7.0.1-3b83917a11~172~ubuntu22.10.1) date 2023-04-17 12:03:06*
%MOMM*%
%LPD*%
G01*
G04 APERTURE LIST*
G04 Aperture macros list*
%AMRoundRect*
0 Rectangle with rounded corners*
0 $1 Rounding radius*
0 $2 $3 $4 $5 $6 $7 $8 $9 X,Y pos of 4 corners*
0 Add a 4 corners polygon primitive as box body*
4,1,4,$2,$3,$4,$5,$6,$7,$8,$9,$2,$3,0*
0 Add four circle primitives for the rounded corners*
1,1,$1+$1,$2,$3*
1,1,$1+$1,$4,$5*
1,1,$1+$1,$6,$7*
1,1,$1+$1,$8,$9*
0 Add four rect primitives between the rounded corners*
20,1,$1+$1,$2,$3,$4,$5,0*
20,1,$1+$1,$4,$5,$6,$7,0*
20,1,$1+$1,$6,$7,$8,$9,0*
20,1,$1+$1,$8,$9,$2,$3,0*%
G04 Aperture macros list end*
%ADD10R,1.600000X1.600000*%
%ADD11C,1.600000*%
%ADD12R,1.700000X1.700000*%
%ADD13O,1.700000X1.700000*%
%ADD14R,1.500000X1.600000*%
%ADD15C,3.000000*%
%ADD16C,1.700000*%
%ADD17R,2.200000X2.800000*%
%ADD18R,2.800000X2.800000*%
%ADD19C,1.000000*%
%ADD20R,1.308100X0.304800*%
%ADD21C,0.650000*%
%ADD22O,1.700000X0.900000*%
%ADD23O,2.400000X0.900000*%
%ADD24R,0.800000X0.800000*%
%ADD25C,0.800000*%
%ADD26O,2.800000X1.700000*%
%ADD27RoundRect,0.237500X-0.300000X-0.237500X0.300000X-0.237500X0.300000X0.237500X-0.300000X0.237500X0*%
G04 APERTURE END LIST*
D10*
%TO.C,C12*%
X65582800Y-75996800D03*
D11*
X65582800Y-73496800D03*
%TD*%
D12*
%TO.C,J1*%
X115011200Y-113588800D03*
D13*
X115011200Y-116128800D03*
X115011200Y-118668800D03*
X115011200Y-121208800D03*
%TD*%
D10*
%TO.C,C11*%
X57683400Y-72161400D03*
D11*
X57683400Y-69661400D03*
%TD*%
D12*
%TO.C,ADC1*%
X35052000Y-93566000D03*
D13*
X32512000Y-93566000D03*
X35052000Y-96106000D03*
X32512000Y-96106000D03*
X35052000Y-98646000D03*
X32512000Y-98646000D03*
X35052000Y-101186000D03*
X32512000Y-101186000D03*
X35052000Y-103726000D03*
X32512000Y-103726000D03*
%TD*%
D10*
%TO.C,C14*%
X98338000Y-24612600D03*
D11*
X100838000Y-24612600D03*
%TD*%
D10*
%TO.C,C13*%
X98338000Y-34188400D03*
D11*
X100838000Y-34188400D03*
%TD*%
D14*
%TO.C,J2*%
X34307600Y-27522000D03*
D11*
X34307600Y-30022000D03*
X34307600Y-32022000D03*
X34307600Y-34522000D03*
D15*
X31597600Y-24452000D03*
X31597600Y-37592000D03*
%TD*%
D16*
%TO.C,AU1*%
X129049600Y-29243800D03*
X122049600Y-29243800D03*
D17*
X130149600Y-32943800D03*
D18*
X120749600Y-32943800D03*
D17*
X128149600Y-25543800D03*
%TD*%
D19*
%TO.C,Y1*%
X84563949Y-91464750D03*
X86360000Y-89668699D03*
%TD*%
D20*
%TO.C,U6*%
X57683400Y-82702400D03*
X57683400Y-82194400D03*
X57683400Y-81686400D03*
X57683400Y-81178400D03*
X57683400Y-80670400D03*
X61988700Y-80670400D03*
X61988700Y-81178400D03*
X61988700Y-81686400D03*
X61988700Y-82194400D03*
X61988700Y-82702400D03*
%TD*%
D12*
%TO.C,U2*%
X48220000Y-121920000D03*
D13*
X45680000Y-121920000D03*
X48220000Y-119380000D03*
X45680000Y-119380000D03*
X48220000Y-116840000D03*
X45680000Y-116840000D03*
X48220000Y-114300000D03*
X45680000Y-114300000D03*
X48220000Y-111760000D03*
X45680000Y-111760000D03*
X48220000Y-109220000D03*
X45680000Y-109220000D03*
X48220000Y-106680000D03*
X45680000Y-106680000D03*
X48220000Y-104140000D03*
X45680000Y-104140000D03*
X48220000Y-101600000D03*
X45680000Y-101600000D03*
X48220000Y-99060000D03*
X45680000Y-99060000D03*
X48220000Y-96520000D03*
X45680000Y-96520000D03*
X48220000Y-93980000D03*
X45680000Y-93980000D03*
X48220000Y-91440000D03*
X45680000Y-91440000D03*
X48220000Y-88900000D03*
X45680000Y-88900000D03*
X48220000Y-86360000D03*
X45680000Y-86360000D03*
X48220000Y-83820000D03*
X45680000Y-83820000D03*
X48220000Y-81280000D03*
X45680000Y-81280000D03*
X48220000Y-78740000D03*
X45680000Y-78740000D03*
X48220000Y-76200000D03*
X45680000Y-76200000D03*
X48220000Y-73660000D03*
X45680000Y-73660000D03*
X48220000Y-71120000D03*
X45680000Y-71120000D03*
X48220000Y-68580000D03*
X45680000Y-68580000D03*
X48220000Y-66040000D03*
X45680000Y-66040000D03*
X48220000Y-63500000D03*
X45680000Y-63500000D03*
X48220000Y-60960000D03*
X45680000Y-60960000D03*
X48220000Y-58420000D03*
X45680000Y-58420000D03*
X48220000Y-55880000D03*
X45680000Y-55880000D03*
X48220000Y-53340000D03*
X45680000Y-53340000D03*
X48220000Y-50800000D03*
X45680000Y-50800000D03*
X48220000Y-48260000D03*
X45680000Y-48260000D03*
X48220000Y-45720000D03*
X45680000Y-45720000D03*
X48220000Y-43180000D03*
X45680000Y-43180000D03*
%TD*%
D12*
%TO.C,U4*%
X109220000Y-121920000D03*
D13*
X106680000Y-121920000D03*
X109220000Y-119380000D03*
X106680000Y-119380000D03*
X109220000Y-116840000D03*
X106680000Y-116840000D03*
X109220000Y-114300000D03*
X106680000Y-114300000D03*
X109220000Y-111760000D03*
X106680000Y-111760000D03*
X109220000Y-109220000D03*
X106680000Y-109220000D03*
X109220000Y-106680000D03*
X106680000Y-106680000D03*
X109220000Y-104140000D03*
X106680000Y-104140000D03*
X109220000Y-101600000D03*
X106680000Y-101600000D03*
X109220000Y-99060000D03*
X106680000Y-99060000D03*
X109220000Y-96520000D03*
X106680000Y-96520000D03*
X109220000Y-93980000D03*
X106680000Y-93980000D03*
X109220000Y-91440000D03*
X106680000Y-91440000D03*
X109220000Y-88900000D03*
X106680000Y-88900000D03*
X109220000Y-86360000D03*
X106680000Y-86360000D03*
X109220000Y-83820000D03*
X106680000Y-83820000D03*
X109220000Y-81280000D03*
X106680000Y-81280000D03*
X109220000Y-78740000D03*
X106680000Y-78740000D03*
X109220000Y-76200000D03*
X106680000Y-76200000D03*
X109220000Y-73660000D03*
X106680000Y-73660000D03*
X109220000Y-71120000D03*
X106680000Y-71120000D03*
X109220000Y-68580000D03*
X106680000Y-68580000D03*
X109220000Y-66040000D03*
X106680000Y-66040000D03*
X109220000Y-63500000D03*
X106680000Y-63500000D03*
X109220000Y-60960000D03*
X106680000Y-60960000D03*
X109220000Y-58420000D03*
X106680000Y-58420000D03*
X109220000Y-55880000D03*
X106680000Y-55880000D03*
X109220000Y-53340000D03*
X106680000Y-53340000D03*
X109220000Y-50800000D03*
X106680000Y-50800000D03*
X109220000Y-48260000D03*
X106680000Y-48260000D03*
X109220000Y-45720000D03*
X106680000Y-45720000D03*
X109220000Y-43180000D03*
X106680000Y-43180000D03*
%TD*%
D21*
%TO.C,P1*%
X126907200Y-93552000D03*
X126907200Y-94402000D03*
X126907200Y-95252000D03*
X126907200Y-96102000D03*
X126907200Y-96952000D03*
X126907200Y-97802000D03*
X126907200Y-98652000D03*
X126907200Y-99502000D03*
X128257200Y-99502000D03*
X128257200Y-98652000D03*
X128257200Y-97802000D03*
X128257200Y-96952000D03*
X128257200Y-96102000D03*
X128257200Y-95252000D03*
X128257200Y-94402000D03*
X128257200Y-93552000D03*
D22*
X131267200Y-92202000D03*
X131267200Y-100852000D03*
D23*
X127887200Y-92202000D03*
X127887200Y-100852000D03*
%TD*%
D24*
%TO.C,J3*%
X124922000Y-65832600D03*
D25*
X123372000Y-66332600D03*
X124922000Y-66832600D03*
X123372000Y-67332600D03*
X124922000Y-67832600D03*
X123372000Y-68332600D03*
X124922000Y-68832600D03*
X123372000Y-69332600D03*
X124922000Y-69832600D03*
X123372000Y-70332600D03*
X124922000Y-70832600D03*
X123372000Y-71332600D03*
X124922000Y-71832600D03*
X123372000Y-72332600D03*
X124922000Y-72832600D03*
X123372000Y-73332600D03*
X124922000Y-73832600D03*
X123372000Y-74332600D03*
X124922000Y-74832600D03*
D26*
X123202000Y-79482600D03*
X123202000Y-61182600D03*
X130302000Y-61182600D03*
X130302000Y-79482600D03*
%TD*%
D27*
%TO.C,C10*%
X55882200Y-76631800D03*
X57607200Y-76631800D03*
%TD*%
M02*
