M48
; DRILL file {KiCad 7.0.1} date Mon Apr 24 14:27:30 2023
; FORMAT={-:-/ absolute / inch / decimal}
; #@! TF.CreationDate,2023-04-24T14:27:30-07:00
; #@! TF.GenerationSoftware,Kicad,Pcbnew,7.0.1
; #@! TF.FileFunction,Plated,1,2,PTH
FMAT,2
INCH
; #@! TA.AperFunction,Plated,PTH,ViaDrill
T1C0.0157
; #@! TA.AperFunction,Plated,PTH,ComponentDrill
T2C0.0157
; #@! TA.AperFunction,Plated,PTH,ComponentDrill
T3C0.0197
; #@! TA.AperFunction,Plated,PTH,ComponentDrill
T4C0.0217
; #@! TA.AperFunction,Plated,PTH,ComponentDrill
T5C0.0236
; #@! TA.AperFunction,Plated,PTH,ComponentDrill
T6C0.0276
; #@! TA.AperFunction,Plated,PTH,ComponentDrill
T7C0.0315
; #@! TA.AperFunction,Plated,PTH,ComponentDrill
T8C0.0374
; #@! TA.AperFunction,Plated,PTH,ComponentDrill
T9C0.0390
; #@! TA.AperFunction,Plated,PTH,ComponentDrill
T10C0.0394
; #@! TA.AperFunction,Plated,PTH,ComponentDrill
T11C0.0512
; #@! TA.AperFunction,Plated,PTH,ComponentDrill
T12C0.0906
%
G90
G05
T1
X1.067Y-3.056
X1.13Y-2.36
X1.157Y-3.124
X1.179Y-2.965
X1.185Y-3.239
X1.204Y-2.841
X1.2125Y-3.364
X1.2564Y-3.03
X1.321Y-3.478
X1.327Y-3.091
X1.4021Y-3.1672
X1.41Y-2.684
X1.437Y-2.223
X1.469Y-2.337
X1.615Y-2.735
X1.651Y-2.57
X1.723Y-2.683
X2.091Y-2.442
X2.107Y-1.78
X2.487Y-3.051
X2.538Y-3.29
X2.54Y-3.145
X2.544Y-4.577
X2.586Y-3.216
X2.638Y-2.988
X2.68Y-4.033
X2.686Y-4.75
X2.972Y-3.853
X2.979Y-4.672
X3.164Y-4.92
X3.277Y-3.816
X3.324Y-4.812
X3.346Y-3.7832
X3.384Y-3.753
X3.396Y-4.067
X3.565Y-3.895
X3.569Y-3.76
X3.6066Y-4.2286
X3.608Y-3.964
X3.6096Y-4.1851
X3.61Y-4.144
X3.636Y-3.827
X3.7467Y-3.4
X3.757Y-4.067
X3.7855Y-4.124
X3.812Y-1.884
X3.8141Y-4.062
X3.877Y-3.948
X3.93Y-4.71
X3.969Y-4.167
X3.991Y-3.437
X4.08Y-1.836
X4.42Y-2.95
X4.51Y-3.393
X4.616Y-0.993
X4.62Y-4.08
X4.66Y-2.323
X4.754Y-1.391
X4.8146Y-3.0256
X5.009Y-3.321
X5.168Y-3.8003
T2
X4.9963Y-3.6831
X4.9963Y-3.7166
X4.9963Y-3.7501
X4.9963Y-3.7835
X4.9963Y-3.817
X4.9963Y-3.8505
X4.9963Y-3.8839
X4.9963Y-3.9174
X5.0495Y-3.6831
X5.0495Y-3.7166
X5.0495Y-3.7501
X5.0495Y-3.7835
X5.0495Y-3.817
X5.0495Y-3.8505
X5.0495Y-3.8839
X5.0495Y-3.9174
T3
X3.353Y-3.495
X3.353Y-3.595
T4
X4.8572Y-2.6115
X4.8572Y-2.6509
X4.8572Y-2.6903
X4.8572Y-2.7296
X4.8572Y-2.769
X4.8572Y-2.8084
X4.8572Y-2.8477
X4.8572Y-2.8871
X4.8572Y-2.9265
X4.9182Y-2.5918
X4.9182Y-2.6312
X4.9182Y-2.6706
X4.9182Y-2.7099
X4.9182Y-2.7493
X4.9182Y-2.7887
X4.9182Y-2.8281
X4.9182Y-2.8674
X4.9182Y-2.9068
X4.9182Y-2.9462
T6
X4.265Y-0.922
X4.265Y-1.122
X4.266Y-1.368
X4.266Y-1.568
T7
X4.138Y-0.822
X4.138Y-1.122
X4.14Y-1.267
X4.14Y-1.567
T8
X1.3507Y-1.0835
X1.3507Y-1.182
X1.3507Y-1.2607
X1.3507Y-1.3591
T9
X4.901Y-1.813
X4.901Y-1.9902
T10
X1.28Y-3.6837
X1.28Y-3.7837
X1.28Y-3.8837
X1.28Y-3.9837
X1.28Y-4.0837
X1.38Y-3.6837
X1.38Y-3.7837
X1.38Y-3.8837
X1.38Y-3.9837
X1.38Y-4.0837
X1.507Y-4.496
X1.507Y-4.596
X1.7984Y-1.7
X1.7984Y-1.8
X1.7984Y-1.9
X1.7984Y-2.0
X1.7984Y-2.1
X1.7984Y-2.2
X1.7984Y-2.3
X1.7984Y-2.4
X1.7984Y-2.5
X1.7984Y-2.6
X1.7984Y-2.7
X1.7984Y-2.8
X1.7984Y-2.9
X1.7984Y-3.0
X1.7984Y-3.1
X1.7984Y-3.2
X1.7984Y-3.3
X1.7984Y-3.4
X1.7984Y-3.5
X1.7984Y-3.6
X1.7984Y-3.7
X1.7984Y-3.8
X1.7984Y-3.9
X1.7984Y-4.0
X1.7984Y-4.1
X1.7984Y-4.2
X1.7984Y-4.3
X1.7984Y-4.4
X1.7984Y-4.5
X1.7984Y-4.6
X1.7984Y-4.7
X1.7984Y-4.8
X1.8984Y-1.7
X1.8984Y-1.8
X1.8984Y-1.9
X1.8984Y-2.0
X1.8984Y-2.1
X1.8984Y-2.2
X1.8984Y-2.3
X1.8984Y-2.4
X1.8984Y-2.5
X1.8984Y-2.6
X1.8984Y-2.7
X1.8984Y-2.8
X1.8984Y-2.9
X1.8984Y-3.0
X1.8984Y-3.1
X1.8984Y-3.2
X1.8984Y-3.3
X1.8984Y-3.4
X1.8984Y-3.5
X1.8984Y-3.6
X1.8984Y-3.7
X1.8984Y-3.8
X1.8984Y-3.9
X1.8984Y-4.0
X1.8984Y-4.1
X1.8984Y-4.2
X1.8984Y-4.3
X1.8984Y-4.4
X1.8984Y-4.5
X1.8984Y-4.6
X1.8984Y-4.7
X1.8984Y-4.8
X2.311Y-2.589
X2.311Y-2.7859
X3.4941Y-1.474
X3.4971Y-0.985
X3.691Y-1.474
X3.694Y-0.985
X4.2Y-1.7
X4.2Y-1.8
X4.2Y-1.9
X4.2Y-2.0
X4.2Y-2.1
X4.2Y-2.2
X4.2Y-2.3
X4.2Y-2.4
X4.2Y-2.5
X4.2Y-2.6
X4.2Y-2.7
X4.2Y-2.8
X4.2Y-2.9
X4.2Y-3.0
X4.2Y-3.1
X4.2Y-3.2
X4.2Y-3.3
X4.2Y-3.4
X4.2Y-3.5
X4.2Y-3.6
X4.2Y-3.7
X4.2Y-3.8
X4.2Y-3.9
X4.2Y-4.0
X4.2Y-4.1
X4.2Y-4.2
X4.2Y-4.3
X4.2Y-4.4
X4.2Y-4.5
X4.2Y-4.6
X4.2Y-4.7
X4.2Y-4.8
X4.3Y-1.7
X4.3Y-1.8
X4.3Y-1.9
X4.3Y-2.0
X4.3Y-2.1
X4.3Y-2.2
X4.3Y-2.3
X4.3Y-2.4
X4.3Y-2.5
X4.3Y-2.6
X4.3Y-2.7
X4.3Y-2.8
X4.3Y-2.9
X4.3Y-3.0
X4.3Y-3.1
X4.3Y-3.2
X4.3Y-3.3
X4.3Y-3.4
X4.3Y-3.5
X4.3Y-3.6
X4.3Y-3.7
X4.3Y-3.8
X4.3Y-3.9
X4.3Y-4.0
X4.3Y-4.1
X4.3Y-4.2
X4.3Y-4.3
X4.3Y-4.4
X4.3Y-4.5
X4.3Y-4.6
X4.3Y-4.7
X4.3Y-4.8
X4.825Y-4.359
X4.825Y-4.459
X4.825Y-4.559
X4.825Y-4.659
T11
X4.803Y-1.7636
X4.803Y-2.0396
T12
X1.244Y-0.9627
X1.244Y-1.48
T5
G00X5.0645Y-3.63
M15
G01X5.0054Y-3.63
M16
G05
G00X5.0645Y-3.9706
M15
G01X5.0054Y-3.9706
M16
G05
G00X5.1837Y-3.63
M15
G01X5.1523Y-3.63
M16
G05
G00X5.1837Y-3.9706
M15
G01X5.1523Y-3.9706
M16
G05
T7
G00X4.8761Y-2.4088
M15
G01X4.8249Y-2.4088
M16
G05
G00X4.8761Y-3.1292
M15
G01X4.8249Y-3.1292
M16
G05
G00X5.1556Y-2.4088
M15
G01X5.1044Y-2.4088
M16
G05
G00X5.1556Y-3.1292
M15
G01X5.1044Y-3.1292
M16
G05
T0
M30
